<?xml version="1.0" encoding="utf-8"?>
<!-- Generator: Adobe Illustrator 28.0.0, SVG Export Plug-In . SVG Version: 6.00 Build 0)  -->
<svg version="1.1" id="Capa_1" xmlns="http://www.w3.org/2000/svg" xmlns:xlink="http://www.w3.org/1999/xlink" x="0px" y="0px"
	 viewBox="0 0 50 50" style="enable-background:new 0 0 50 50;" xml:space="preserve">
<style type="text/css">
	.st0{fill:#FFC839;}
</style>
<g>
	<g id="VOyM59.tif_00000006676197718298971840000008244499144866823061_">
		<g>
			<path class="st0" d="M38.9,9.7c1,1.1,1.3,2.6,0.7,4.3c-0.9,2.2-1.8,4.4-2.7,6.6c-0.6,1.4-1.1,2.7-1.7,4.1c-0.1,0.2-0.1,0.6,0,0.8
				c1.4,3.5,2.9,6.9,4.3,10.4c0.7,1.6,0.5,3.2-0.6,4.5c-1.2,1.4-3.3,1.7-5.1,0.7c-2.3-1.3-4.6-2.6-6.8-3.9
				c-4.8-2.8-9.7-5.6-14.5-8.4c-2.2-1.3-3-3.8-1.7-5.9c0.4-0.6,0.9-1.1,1.5-1.5c5.7-3.4,11.5-6.7,17.3-10c1.4-0.8,2.8-1.6,4.2-2.4
				C35.4,8,37.4,8.2,38.9,9.7z"/>
		</g>
	</g>
</g>
</svg>
