<?xml version="1.0" encoding="utf-8"?>
<!-- Generator: Adobe Illustrator 28.0.0, SVG Export Plug-In . SVG Version: 6.00 Build 0)  -->
<svg version="1.1" id="Capa_1" xmlns="http://www.w3.org/2000/svg" xmlns:xlink="http://www.w3.org/1999/xlink" x="0px" y="0px"
	 viewBox="0 0 100 100" style="enable-background:new 0 0 100 100;" xml:space="preserve">
<style type="text/css">
	.st0{fill:#00ACFA;}
	.st1{fill:#FFC839;}
	.st2{fill:#040303;}
	.st3{fill:#005CD5;}
	.st4{fill:#F9DCD3;}
	.st5{fill:#E9E7E9;}
	.st6{fill:#FDBF60;}
	.st7{fill:#A5C0D7;}
	.st8{fill:#F9A456;}
	.st9{fill:#F8BEAA;}
	.st10{fill:#CFCFCF;}
	.st11{fill:#F6BCA8;}
	.st12{fill:#EFAE98;}
	.st13{fill:#90A9BD;}
	.st14{fill:#0050B2;}
	.st15{fill:#F6F8F9;}
	.st16{fill:#050505;}
	.st17{fill:#F48082;}
</style>
<g>
	<g>
		<path class="st0" d="M75.17,10.1H24.83c-8.14,0-14.73,6.6-14.73,14.73v50.34c0,8.14,6.6,14.73,14.73,14.73h50.34
			c8.14,0,14.73-6.6,14.73-14.73V24.83C89.9,16.7,83.3,10.1,75.17,10.1z"/>
		<circle class="st1" cx="50" cy="50" r="31.93"/>
	</g>
	<g id="hMtPXX.tif">
		<g>
			<path class="st2" d="M38.66,50.15c-0.45-0.86-0.87-1.74-1.14-2.68c-0.05-0.19-0.16-0.27-0.37-0.3c-2.87-0.4-4.17-3.57-2.42-5.87
				c0.13-0.17,0.21-0.34,0.25-0.55c0.67-3.5,2.33-6.45,4.99-8.81c2.36-2.09,5.12-3.36,8.25-3.75c3.91-0.49,7.51,0.36,10.76,2.59
				c3.05,2.09,5.08,4.93,6.14,8.47c0.08,0.28,0.16,0.57,0.22,0.86c0.11,0.55,0.31,1.04,0.62,1.53c1.44,2.24,0.03,5.2-2.61,5.54
				c-0.19,0.02-0.33,0.04-0.39,0.27c-0.27,0.95-0.7,1.84-1.15,2.72c-0.01,0.03-0.03,0.06-0.04,0.1c0.04,0,0.07-0.01,0.11-0.01
				c1.43-0.46,2.88-0.6,4.35-0.19c1.89,0.53,3.29,1.74,4.45,3.26c0.79,1.04,1.42,2.17,1.96,3.35c0.52,1.13,0.24,2.33-0.71,3.05
				c-0.94,0.72-2.11,0.66-3.07-0.17c-0.16-0.13-0.23-0.14-0.39,0c-1.07,1.01-2.32,1.04-3.4,0.09c-0.17-0.15-0.24-0.14-0.38,0.02
				c-0.45,0.5-1.02,0.74-1.73,0.75c0.31,0.77,0.66,1.49,0.93,2.25c0.28,0.78,0.48,1.58,0.67,2.38c0.06,0.24,0.01,0.47-0.12,0.67
				c-0.97,1.45-2.17,2.68-3.55,3.75c-0.36,0.28-0.69,0.15-0.99-0.12c-0.21-0.46-0.02-0.78,0.34-1.07c1.04-0.83,1.99-1.77,2.78-2.85
				c0.08-0.12,0.21-0.22,0.17-0.39c-0.19-0.83-0.41-1.64-0.77-2.46c-0.68,0.83-1.37,1.57-2.13,2.25
				c-4.44,3.97-11.07,4.95-16.47,2.42c-0.55-0.26-0.65-0.47-0.51-1.04c0.31-0.36,0.66-0.36,1.07-0.17c1.51,0.71,3.1,1.11,4.77,1.21
				c5.21,0.31,9.32-1.71,12.46-5.82c0.17-0.23,0.15-0.39,0.03-0.62c-0.77-1.5-1.73-2.88-2.72-4.24c-0.38-0.53-0.75-1.06-1.2-1.54
				c-0.19-0.2-0.34-0.26-0.6-0.1c-0.41,0.26-0.84,0.48-1.29,0.68c-0.27,0.12-0.38,0.29-0.38,0.57c0,0.56-0.2,1.07-0.48,1.54
				c-0.97,1.63-3.33,2.19-4.57,1c-0.16-0.16-0.27-0.11-0.41,0.02c-0.24,0.23-0.53,0.38-0.84,0.48c-1.83,0.62-4.03-0.91-4.2-2.9
				c-0.02-0.19,0.08-0.42-0.13-0.57c-0.53-0.29-1.06-0.57-1.58-0.87c-0.18-0.1-0.26-0.02-0.36,0.09c-1.64,1.8-3.04,3.76-4.15,5.93
				c-0.09,0.17-0.08,0.28,0.03,0.43c0.43,0.58,0.87,1.15,1.4,1.65c0.52,0.58,1.12,1.07,1.74,1.54c0.34,0.26,0.48,0.58,0.3,0.99
				c-0.43,0.38-0.69,0.4-1.13,0.05c-0.51-0.41-1-0.83-1.5-1.25c-0.52-0.58-1.04-1.15-1.58-1.75c-0.32,0.79-0.55,1.57-0.74,2.37
				c-0.03,0.14,0.01,0.25,0.09,0.37c0.41,0.54,0.81,1.08,1.33,1.53c0.33,0.45,0.77,0.77,1.18,1.13c3.04,2.58,6.58,3.74,10.53,3.72
				c2.61-0.01,5.09-0.6,7.4-1.83c0.43-0.23,0.78-0.21,1.09,0.18c0.1,0.6,0.03,0.74-0.51,1.02c-3.58,1.85-7.36,2.37-11.31,1.68
				c-4.47-0.79-8.07-3.03-10.81-6.66c-0.34-0.45-0.45-0.87-0.31-1.43c0.33-1.34,0.79-2.62,1.36-3.87c0.05-0.12,0.14-0.22,0.12-0.38
				c-0.69-0.01-1.26-0.27-1.72-0.78c-0.11-0.13-0.18-0.13-0.32-0.01c-1.19,0.98-2.35,0.95-3.44-0.07c-0.16-0.15-0.23-0.13-0.39,0.01
				c-0.94,0.82-2.17,0.88-3.09,0.19c-0.95-0.72-1.22-1.92-0.7-3.06c0.61-1.33,1.33-2.6,2.27-3.74c2.25-2.73,5.03-3.81,8.51-2.7
				c0.04,0,0.08,0.01,0.12,0.01C38.68,50.22,38.67,50.18,38.66,50.15z M60.09,52.68c-0.57,0.3-0.94,0.84-1.45,1.21
				c-0.2,0.15-0.02,0.25,0.06,0.35c1.21,1.32,2.26,2.76,3.21,4.27c0.31,0.48,0.81,0.6,1.32,0.52c0.49-0.07,0.75-0.43,0.8-0.92
				c0.06-0.18-0.02-0.35-0.06-0.52c-0.1-0.46,0.03-0.79,0.39-0.91c0.36-0.12,0.67,0.05,0.87,0.48c0.16,0.35,0.31,0.7,0.47,1.05
				c0.29,0.63,0.87,0.92,1.43,0.71c0.55-0.2,0.79-0.76,0.62-1.43c-0.11-0.43,0.03-0.77,0.35-0.9c0.36-0.15,0.7,0.01,0.9,0.42
				c0.18,0.39,0.34,0.78,0.53,1.17c0.28,0.58,0.91,0.85,1.43,0.61c0.58-0.26,0.82-0.88,0.54-1.49c-0.77-1.69-1.7-3.28-3.1-4.54
				c-1.2-1.08-2.58-1.69-4.23-1.61C62.66,51.23,61.32,51.82,60.09,52.68z M36.47,58.09c0.01,0.49,0.28,0.8,0.72,0.95
				c0.43,0.14,1.11-0.09,1.34-0.46c0.97-1.55,2.05-3.02,3.29-4.38c0.1-0.11,0.19-0.2,0.02-0.32c-0.51-0.37-0.88-0.92-1.45-1.21
				c-0.25-0.16-0.49-0.33-0.74-0.48c-2.67-1.61-5.49-1.37-7.71,0.68c-1.37,1.27-2.25,2.87-3,4.55c-0.22,0.5,0.05,1.12,0.53,1.35
				c0.49,0.24,1.15,0.04,1.41-0.47c0.22-0.42,0.39-0.86,0.59-1.28c0.2-0.42,0.53-0.58,0.89-0.44c0.33,0.13,0.47,0.46,0.36,0.89
				c-0.17,0.71,0.07,1.26,0.64,1.45c0.56,0.19,1.13-0.1,1.42-0.74c0.17-0.38,0.33-0.76,0.51-1.13c0.17-0.35,0.48-0.5,0.84-0.36
				c0.36,0.14,0.5,0.44,0.39,0.83C36.48,57.71,36.4,57.89,36.47,58.09z M63.89,39.99c0.02,0.02,0.04,0.05,0.04,0.04
				c0.04-0.03,0.03-0.06,0-0.09c-0.01-0.09-0.02-0.18-0.05-0.26c-1.81-6.48-8.09-10.83-14.8-10.25c-0.35,0.04-0.71,0.05-1.05,0.12
				c-4.65,0.83-8.1,3.32-10.36,7.45c-0.46,0.84-0.81,1.74-1.06,2.67c-0.03,0.11-0.2,0.36,0.14,0.32c0.93-0.11,1.88-0.12,2.76-0.53
				c0.73-0.14,1.41-0.43,2.08-0.72c1.97-0.84,3.75-1.93,5.03-3.7c0.16-0.23,0.32-0.46,0.51-0.67c0.46-0.51,1.04-0.57,1.58-0.16
				c0.35,0.27,0.67,0.57,1.01,0.86c2.56,2.19,5.48,3.64,8.76,4.39C60.27,39.88,62.09,39.84,63.89,39.99z M40.37,40.64
				c-0.54,0.15-1.08,0.3-1.62,0.44c-0.2,0.05-0.28,0.16-0.31,0.36c-0.2,1.34-0.24,2.67-0.01,4.01c0.66,3.79,2.66,6.65,5.99,8.57
				c0.67,0.39,0.68,0.38,0.95-0.36c0.72-1.29,1.79-2.08,3.28-2.29c0.56-0.08,1.08,0.26,1.57,0.27c0.5,0.01,1.03-0.36,1.61-0.27
				c1.65,0.26,2.82,1.14,3.42,2.72c0.09,0.23,0.14,0.3,0.39,0.18c4.59-2.25,7.33-7.68,6.42-12.67c-0.05-0.27-0.13-0.36-0.41-0.37
				c-1.06-0.04-2.12-0.16-3.16-0.38c-3.85-0.82-7.24-2.56-10.15-5.21c-0.27-0.25-0.38-0.22-0.57,0.07c-0.63,0.98-1.47,1.77-2.4,2.46
				C43.86,39.28,42.15,40.05,40.37,40.64z M49.59,55.06c0-0.55,0-1.09,0-1.64c0-0.63-0.24-0.82-0.85-0.71
				c-0.16,0.03-0.32,0.07-0.47,0.12c-1.33,0.43-2.03,1.58-1.95,3.2c0.04,0.81,0.44,1.42,1.14,1.77c1.11,0.55,2.21,0.08,2.13-1.27
				C49.56,56.03,49.59,55.54,49.59,55.06z M50.92,54.97c0.01,0,0.01,0,0.02,0c0,0.65-0.03,1.3,0.01,1.95
				c0.04,0.69,0.57,1.12,1.25,1.09c0.87-0.04,1.6-0.59,1.88-1.43c0.18-0.55,0.14-1.11,0.05-1.67c-0.2-1.17-1.32-2.16-2.49-2.23
				c-0.51-0.03-0.7,0.14-0.7,0.65C50.92,53.88,50.92,54.43,50.92,54.97z M63.37,45.82c1.16-0.3,1.9-1.24,1.86-2.33
				c-0.04-1.06-0.82-1.99-1.84-2.17c0.08,0.74,0.17,1.47,0.17,2.2C63.56,44.28,63.49,45.03,63.37,45.82z M37.13,45.8
				c-0.27-1.5-0.25-2.99-0.02-4.49c-1.09,0.24-1.88,1.24-1.85,2.29C35.29,44.67,36.05,45.59,37.13,45.8z"/>
			<path class="st3" d="M43.33,66.2c-0.14,0.58-0.03,0.79,0.51,1.04c5.4,2.53,12.04,1.55,16.47-2.42c0.76-0.68,1.45-1.42,2.13-2.25
				c0.36,0.82,0.58,1.63,0.77,2.46c0.04,0.17-0.09,0.27-0.17,0.39c-0.79,1.08-1.73,2.01-2.78,2.85c-0.36,0.29-0.55,0.61-0.34,1.07
				c-0.34,0.24-0.67,0.48-1.01,0.72c-0.31-0.39-0.66-0.41-1.09-0.18c-2.31,1.23-4.79,1.82-7.4,1.83c-3.95,0.02-7.5-1.14-10.53-3.72
				c-0.41-0.35-0.86-0.68-1.18-1.13c0.3-0.84,0.6-1.68,0.9-2.52c0.5,0.42,0.99,0.84,1.5,1.25c0.43,0.35,0.7,0.33,1.13-0.05
				C42.56,65.83,42.93,66.04,43.33,66.2z"/>
			<path class="st4" d="M40.37,40.64c1.79-0.59,3.49-1.35,5.01-2.48c0.93-0.69,1.77-1.48,2.4-2.46c0.19-0.29,0.29-0.32,0.57-0.07
				c2.92,2.65,6.3,4.39,10.15,5.21c1.04,0.22,2.1,0.34,3.16,0.38c0.28,0.01,0.36,0.1,0.41,0.37c0.92,4.99-1.83,10.42-6.42,12.67
				c-0.25,0.12-0.3,0.05-0.39-0.18c-0.61-1.57-1.77-2.46-3.42-2.72c-0.58-0.09-1.11,0.28-1.61,0.27c-0.49-0.01-1.01-0.35-1.57-0.27
				c-1.48,0.21-2.55,1-3.28,2.29c-0.06-0.02-0.12-0.02-0.17-0.05c-0.89-0.73-1.73-1.52-2.42-2.44c-1.13-1.52-1.89-3.22-2.28-5.08
				c-0.19-0.91-0.24-1.84-0.26-2.76C40.24,42.43,40.32,41.53,40.37,40.64z M50.23,46.65c0.63,0.02,1.17-0.21,1.62-0.66
				c0.3-0.3,0.33-0.67,0.1-0.95c-0.25-0.31-0.6-0.34-0.98-0.07c-0.64,0.45-0.83,0.45-1.5-0.01c-0.36-0.25-0.69-0.23-0.95,0.06
				c-0.26,0.29-0.22,0.67,0.1,0.98C49.08,46.44,49.61,46.66,50.23,46.65z M43.52,46.72C43.52,46.72,43.52,46.72,43.52,46.72
				c0.31,0,0.62,0.01,0.93-0.01c0.39-0.02,0.58-0.27,0.62-0.63c0.04-0.34-0.24-0.66-0.62-0.68c-0.6-0.02-1.21-0.02-1.82,0
				c-0.39,0.01-0.65,0.31-0.65,0.65c0,0.36,0.28,0.64,0.69,0.66C42.96,46.73,43.24,46.72,43.52,46.72z M56.92,46.72
				c0.31,0,0.62,0.02,0.93,0c0.38-0.03,0.65-0.32,0.63-0.67c-0.02-0.38-0.24-0.62-0.61-0.64c-0.62-0.03-1.24-0.03-1.86,0
				c-0.38,0.02-0.58,0.28-0.61,0.64c-0.03,0.35,0.25,0.64,0.63,0.67C56.33,46.74,56.63,46.72,56.92,46.72z M57.61,43.49
				C57.61,43.49,57.61,43.49,57.61,43.49c0-0.22,0.02-0.44,0-0.66c-0.03-0.37-0.23-0.6-0.61-0.63c-0.36-0.03-0.61,0.16-0.67,0.51
				c-0.09,0.52-0.09,1.06,0,1.58c0.06,0.35,0.31,0.53,0.67,0.5c0.36-0.02,0.57-0.23,0.6-0.59C57.63,43.97,57.61,43.73,57.61,43.49z
				 M42.88,43.49C42.88,43.49,42.88,43.49,42.88,43.49c0,0.24-0.02,0.47,0.01,0.71c0.04,0.35,0.24,0.57,0.6,0.59
				c0.38,0.03,0.65-0.18,0.69-0.54c0.05-0.5,0.05-1,0-1.5c-0.03-0.36-0.29-0.58-0.68-0.55c-0.38,0.03-0.58,0.26-0.62,0.63
				C42.86,43.05,42.88,43.27,42.88,43.49z"/>
			<path class="st5" d="M43.33,66.2c-0.41-0.16-0.78-0.37-1.1-0.66c0.18-0.42,0.04-0.73-0.3-0.99c-0.62-0.47-1.21-0.97-1.74-1.54
				c0.01-0.06,0.02-0.12,0.05-0.17c0.83-1.96,1.89-3.78,3.21-5.46c0.44-0.56,0.84-1.17,1.41-1.62c0.22,0.15,0.12,0.38,0.13,0.57
				c0.16,1.99,2.36,3.52,4.2,2.9c0.31-0.1,0.6-0.26,0.84-0.48c0.14-0.13,0.24-0.18,0.41-0.02c1.24,1.19,3.6,0.63,4.57-1
				c0.28-0.47,0.48-0.98,0.48-1.54c0-0.28,0.11-0.45,0.38-0.57c0.44-0.2,0.88-0.43,1.29-0.68c0.26-0.16,0.42-0.1,0.6,0.1
				c0.45,0.48,0.82,1.01,1.2,1.54c0.99,1.36,1.95,2.74,2.72,4.24c0.12,0.23,0.14,0.39-0.03,0.62c-3.14,4.12-7.26,6.14-12.46,5.82
				c-1.67-0.1-3.26-0.5-4.77-1.21C43.99,65.84,43.64,65.84,43.33,66.2z"/>
			<path class="st6" d="M49.09,29.44c6.72-0.58,13,3.77,14.8,10.25c0.02,0.08,0.03,0.17,0.05,0.26c-0.01,0.01-0.03,0.03-0.04,0.04
				c-1.8-0.15-3.62-0.11-5.41-0.52c-3.29-0.75-6.2-2.2-8.76-4.39c-0.34-0.29-0.66-0.59-1.01-0.86c-0.54-0.41-1.12-0.34-1.58,0.16
				c-0.19,0.21-0.35,0.44-0.51,0.67c-1.28,1.77-3.07,2.86-5.03,3.7c-0.68,0.29-1.35,0.58-2.08,0.72c0.28-0.84,0.56-1.68,0.96-2.47
				c0.62-1.2,1.36-2.3,2.25-3.32c0.96-1.1,2.09-1.98,3.3-2.77C46.99,30.29,48.04,29.88,49.09,29.44z"/>
			<path class="st7" d="M36.47,58.09c-0.07-0.2,0.02-0.38,0.07-0.56c0.11-0.39-0.03-0.69-0.39-0.83c-0.37-0.14-0.67,0.01-0.84,0.36
				c-0.18,0.37-0.34,0.75-0.51,1.13c-0.29,0.64-0.86,0.93-1.42,0.74c-0.57-0.19-0.81-0.74-0.64-1.45c0.1-0.43-0.04-0.76-0.36-0.89
				c-0.36-0.14-0.69,0.01-0.89,0.44c-0.2,0.42-0.37,0.87-0.59,1.28c-0.27,0.5-0.92,0.71-1.41,0.47c-0.48-0.23-0.76-0.85-0.53-1.35
				c0.75-1.68,1.63-3.29,3-4.55c2.22-2.05,5.04-2.29,7.71-0.68c0.25,0.15,0.49,0.32,0.74,0.48c0,0.13-0.09,0.21-0.17,0.3
				c-0.8,0.98-1.65,1.92-2.35,2.98C37.4,56.66,36.93,57.38,36.47,58.09z"/>
			<path class="st7" d="M60.09,52.68c1.23-0.86,2.57-1.45,4.09-1.53c1.65-0.09,3.03,0.52,4.23,1.61c1.39,1.26,2.32,2.85,3.1,4.54
				c0.28,0.61,0.03,1.22-0.54,1.49c-0.52,0.24-1.15-0.03-1.43-0.61c-0.18-0.39-0.34-0.78-0.53-1.17c-0.2-0.42-0.54-0.57-0.9-0.42
				c-0.32,0.13-0.45,0.47-0.35,0.9c0.17,0.67-0.07,1.23-0.62,1.43c-0.56,0.21-1.14-0.08-1.43-0.71c-0.16-0.35-0.31-0.7-0.47-1.05
				c-0.2-0.43-0.52-0.6-0.87-0.48c-0.35,0.12-0.49,0.45-0.39,0.91c0.04,0.17,0.12,0.34,0.06,0.52c-0.05-0.05-0.11-0.1-0.15-0.16
				c-0.84-1.45-1.82-2.81-2.9-4.09C60.67,53.49,60.29,53.15,60.09,52.68z"/>
			<path class="st8" d="M49.09,29.44c-1.04,0.44-2.1,0.85-3.06,1.47c-1.22,0.78-2.34,1.67-3.3,2.77c-0.89,1.02-1.64,2.12-2.25,3.32
				c-0.41,0.79-0.69,1.63-0.96,2.47c-0.87,0.41-1.83,0.42-2.76,0.53c-0.34,0.04-0.17-0.2-0.14-0.32c0.25-0.93,0.6-1.83,1.06-2.67
				c2.26-4.13,5.72-6.63,10.36-7.45C48.38,29.49,48.74,29.47,49.09,29.44z"/>
			<path class="st9" d="M40.37,40.64c-0.04,0.89-0.13,1.79-0.12,2.68c0.02,0.92,0.07,1.85,0.26,2.76c0.39,1.86,1.15,3.56,2.28,5.08
				c0.69,0.93,1.53,1.72,2.42,2.44c0.04,0.03,0.11,0.04,0.17,0.05c-0.27,0.74-0.28,0.75-0.95,0.36c-3.33-1.92-5.33-4.78-5.99-8.57
				c-0.23-1.34-0.19-2.67,0.01-4.01c0.03-0.2,0.1-0.31,0.31-0.36C39.29,40.94,39.83,40.79,40.37,40.64z"/>
			<path class="st10" d="M44.86,55.76c-0.57,0.45-0.97,1.06-1.41,1.62c-1.32,1.67-2.38,3.5-3.21,5.46
				c-0.02,0.05-0.03,0.11-0.05,0.17c-0.53-0.5-0.96-1.07-1.4-1.65c-0.11-0.15-0.12-0.26-0.03-0.43c1.11-2.17,2.51-4.13,4.15-5.93
				c0.1-0.11,0.18-0.2,0.36-0.09C43.8,55.19,44.33,55.47,44.86,55.76z"/>
			<path class="st11" d="M49.59,55.06c0,0.49-0.02,0.98,0,1.46c0.08,1.35-1.02,1.83-2.13,1.27c-0.71-0.35-1.1-0.96-1.14-1.77
				c-0.09-1.62,0.61-2.77,1.95-3.2c0.15-0.05,0.31-0.09,0.47-0.12c0.62-0.11,0.85,0.08,0.85,0.71
				C49.59,53.96,49.59,54.51,49.59,55.06z"/>
			<path class="st12" d="M50.92,54.97c0-0.55,0-1.09,0-1.64c0-0.51,0.19-0.68,0.7-0.65c1.17,0.07,2.3,1.06,2.49,2.23
				c0.09,0.55,0.13,1.12-0.05,1.67c-0.27,0.84-1,1.4-1.88,1.43c-0.68,0.03-1.21-0.4-1.25-1.09c-0.04-0.65-0.01-1.3-0.01-1.95
				C50.93,54.97,50.92,54.97,50.92,54.97z"/>
			<path class="st13" d="M36.47,58.09c0.47-0.71,0.93-1.43,1.4-2.14c0.7-1.06,1.55-2,2.35-2.98c0.07-0.09,0.17-0.17,0.17-0.3
				c0.58,0.29,0.94,0.84,1.45,1.21c0.17,0.12,0.08,0.21-0.02,0.32c-1.24,1.35-2.32,2.82-3.29,4.38c-0.23,0.37-0.91,0.6-1.34,0.46
				C36.75,58.89,36.48,58.58,36.47,58.09z"/>
			<path class="st13" d="M60.09,52.68c0.2,0.47,0.58,0.8,0.9,1.18c1.08,1.28,2.06,2.64,2.9,4.09c0.04,0.06,0.1,0.11,0.15,0.16
				c-0.06,0.49-0.31,0.85-0.8,0.93c-0.51,0.07-1.01-0.04-1.32-0.52c-0.95-1.51-2-2.95-3.21-4.27c-0.09-0.1-0.27-0.2-0.06-0.35
				C59.15,53.52,59.52,52.98,60.09,52.68z"/>
			<path class="st11" d="M63.37,45.82c0.12-0.79,0.19-1.54,0.19-2.3c0-0.74-0.09-1.47-0.17-2.2c1.01,0.17,1.8,1.11,1.84,2.17
				C65.26,44.58,64.53,45.52,63.37,45.82z"/>
			<path class="st11" d="M37.13,45.8c-1.08-0.21-1.84-1.13-1.87-2.21c-0.03-1.05,0.76-2.05,1.85-2.29
				C36.88,42.81,36.86,44.3,37.13,45.8z"/>
			<path class="st14" d="M39.61,64.34c-0.3,0.84-0.6,1.68-0.9,2.52c-0.52-0.44-0.92-0.99-1.33-1.53c-0.09-0.11-0.13-0.22-0.09-0.37
				c0.19-0.8,0.41-1.59,0.74-2.37C38.56,63.19,39.09,63.76,39.61,64.34z"/>
			<path class="st6" d="M63.94,39.95c0.04,0.03,0.04,0.06,0,0.09c0,0-0.03-0.03-0.04-0.04C63.91,39.98,63.92,39.96,63.94,39.95z"/>
			<path class="st15" d="M38.66,50.15c0.01,0.03,0.02,0.07,0.03,0.1c-0.04,0-0.08-0.01-0.12-0.01
				C38.6,50.21,38.63,50.18,38.66,50.15z"/>
			<path class="st15" d="M61.91,50.24c-0.04,0-0.07,0.01-0.11,0.01c0.01-0.03,0.03-0.06,0.04-0.1
				C61.86,50.18,61.88,50.21,61.91,50.24z"/>
			<path class="st16" d="M50.23,46.65c-0.62,0.01-1.15-0.21-1.59-0.65c-0.32-0.31-0.35-0.69-0.1-0.98c0.26-0.29,0.58-0.31,0.95-0.06
				c0.66,0.46,0.85,0.46,1.5,0.01c0.38-0.27,0.72-0.24,0.98,0.07c0.23,0.28,0.19,0.65-0.1,0.95C51.41,46.44,50.87,46.66,50.23,46.65
				z"/>
			<path class="st17" d="M43.52,46.72c-0.28,0-0.56,0.01-0.84,0c-0.41-0.02-0.69-0.3-0.69-0.66c0-0.35,0.26-0.64,0.65-0.65
				c0.61-0.02,1.21-0.02,1.82,0c0.38,0.02,0.66,0.34,0.62,0.68c-0.04,0.36-0.24,0.61-0.62,0.63C44.14,46.74,43.83,46.72,43.52,46.72
				C43.52,46.72,43.52,46.72,43.52,46.72z"/>
			<path class="st17" d="M56.92,46.72c-0.3,0-0.59,0.02-0.89,0c-0.38-0.03-0.66-0.32-0.63-0.67c0.03-0.36,0.23-0.63,0.61-0.64
				c0.62-0.02,1.24-0.03,1.86,0c0.37,0.02,0.59,0.26,0.61,0.64c0.02,0.35-0.25,0.64-0.63,0.67C57.55,46.74,57.24,46.72,56.92,46.72z
				"/>
			<path class="st16" d="M57.61,43.49c0,0.24,0.02,0.47,0,0.71c-0.03,0.35-0.25,0.56-0.6,0.59c-0.36,0.03-0.62-0.15-0.67-0.5
				c-0.09-0.52-0.09-1.06,0-1.58c0.06-0.35,0.31-0.53,0.67-0.51c0.38,0.03,0.58,0.26,0.61,0.63C57.62,43.05,57.61,43.27,57.61,43.49
				C57.61,43.49,57.61,43.49,57.61,43.49z"/>
			<path class="st2" d="M42.88,43.49c0-0.22-0.02-0.44,0-0.66c0.03-0.37,0.24-0.6,0.62-0.63c0.39-0.03,0.65,0.19,0.68,0.55
				c0.05,0.5,0.05,1,0,1.5c-0.03,0.36-0.3,0.57-0.69,0.54c-0.36-0.03-0.56-0.24-0.6-0.59C42.86,43.96,42.88,43.73,42.88,43.49
				C42.88,43.49,42.88,43.49,42.88,43.49z"/>
		</g>
	</g>
</g>
</svg>
