<?xml version="1.0" encoding="utf-8"?>
<!-- Generator: Adobe Illustrator 28.0.0, SVG Export Plug-In . SVG Version: 6.00 Build 0)  -->
<svg version="1.1" id="Capa_1" xmlns="http://www.w3.org/2000/svg" xmlns:xlink="http://www.w3.org/1999/xlink" x="0px" y="0px"
	 viewBox="0 0 100 100" style="enable-background:new 0 0 100 100;" xml:space="preserve">
<style type="text/css">
	.st0{fill:#00ACFA;}
	.st1{fill:#FFC839;}
	.st2{fill:#010101;}
	.st3{fill:#FDCDC4;}
	.st4{fill:#030303;}
	.st5{fill:#FCFCFC;}
	.st6{fill:#005CD5;}
	.st7{fill:#F6F8F9;}
</style>
<g>
	<path class="st0" d="M75.17,10.1H24.83c-8.14,0-14.73,6.6-14.73,14.73v50.34c0,8.14,6.6,14.73,14.73,14.73h50.34
		c8.14,0,14.73-6.6,14.73-14.73V24.83C89.9,16.7,83.3,10.1,75.17,10.1z"/>
	<circle class="st1" cx="50" cy="50" r="31.93"/>
	<g id="_x37_ZxPUg.tif_00000032624390129262618850000004377628385507297971_">
		<g>
			<path class="st2" d="M50.62,51.33c-4.91,0-9.82,0-14.73,0c-0.84,0-1.11-0.27-1.11-1.12c0-5.31,0-10.62,0-15.92
				c0-0.85,0.26-1.12,1.1-1.12c0.58,0,1.16-0.02,1.73,0.01c0.35,0.02,0.5-0.05,0.48-0.45c-0.04-0.63-0.02-1.26-0.01-1.9
				c0.01-0.64,0.32-0.96,0.97-0.96c3.03,0,6.05,0,9.08,0c0.88,0,1.65,0.29,2.28,0.9c0.18,0.18,0.26,0.18,0.45,0
				c0.64-0.62,1.43-0.91,2.32-0.9c3.01,0,6.02,0,9.04,0c0.66,0,0.96,0.3,0.96,0.96c0,0.63,0.02,1.27-0.01,1.9
				c-0.01,0.34,0.05,0.48,0.44,0.46c0.64-0.04,1.29-0.01,1.94-0.01c0.63,0,0.93,0.31,0.93,0.94c0,5.42,0,10.84,0,16.25
				c0,0.67-0.31,0.96-1,0.96C60.53,51.33,55.58,51.33,50.62,51.33z M49.81,47.2c0-4.78,0.01-9.45-0.01-14.13
				c0-0.89-0.75-1.54-1.7-1.55c-2.67,0-5.34,0-8-0.01c-0.29,0-0.36,0.08-0.36,0.36c0.01,4.72,0.01,9.44,0,14.15
				c0,0.3,0.09,0.35,0.37,0.35c2.1-0.01,4.21,0.01,6.31-0.01C47.6,46.36,48.75,46.4,49.81,47.2z M51.46,47.16
				c1.42-0.75,1.58-0.78,3.16-0.78c2.16,0,4.32-0.01,6.48,0.01c0.32,0,0.44-0.04,0.44-0.41c-0.01-4.69-0.01-9.38,0-14.07
				c0-0.34-0.11-0.39-0.41-0.39c-2.57,0.01-5.14,0.01-7.72,0.01c-1.32,0-1.95,0.63-1.95,1.94c0,4.42,0,8.83,0,13.25
				C51.46,46.84,51.46,46.97,51.46,47.16z M49.65,49.68c-0.37-1.03-1.25-1.65-2.34-1.65c-2.7-0.01-5.39,0-8.09,0
				c-0.87,0-1.13-0.26-1.13-1.13c0-3.85,0-7.7,0-11.55c0-0.1-0.01-0.19,0-0.29c0.02-0.18-0.06-0.24-0.24-0.23
				c-0.33,0.01-0.66,0.03-0.99,0c-0.34-0.03-0.44,0.07-0.43,0.42c0.01,4.68,0.01,9.35,0,14.03c0,0.35,0.1,0.42,0.44,0.42
				c4.13-0.01,8.25-0.01,12.38-0.01C49.37,49.68,49.49,49.68,49.65,49.68z M51.64,49.68c0.14,0,0.25,0,0.36,0
				c4.14,0,8.27,0,12.41,0.01c0.35,0,0.42-0.09,0.42-0.43c-0.01-4.41-0.01-8.82-0.01-13.24c0-0.38,0.13-0.89-0.06-1.12
				c-0.22-0.26-0.75-0.04-1.14-0.09c-0.35-0.04-0.46,0.06-0.46,0.44c0.02,3.89,0.01,7.78,0.01,11.67c0,0.85-0.25,1.1-1.11,1.1
				c-2.69,0-5.39,0-8.08,0C52.88,48.03,51.98,48.66,51.64,49.68z"/>
			<path class="st3" d="M58.13,66.76c-0.69-0.01-1.35,0.23-2.04,0.17c-0.14-0.54-0.4-0.77-0.85-0.76c-0.46,0.01-0.71,0.26-0.82,0.84
				c-0.68,0-1.36,0-2.04,0c-0.1-0.61-0.35-0.84-0.96-0.84c-1.69,0-3.38,0.01-5.07,0c-1.93-0.01-3.56,0.67-4.92,2.03
				c-0.59,0.59-1.2,1.18-1.77,1.78c-0.19,0.2-0.3,0.18-0.51,0.03c-2.3-1.72-4.6-3.44-6.9-5.15c-0.23-0.17-0.22-0.25-0.03-0.44
				c1.9-1.89,3.79-3.79,5.69-5.68c1.25-1.24,2.74-2.05,4.46-2.42c1.99-0.42,3.94-0.32,5.55,1.03c0.8,0.67,1.58,0.88,2.55,0.81
				c0.56-0.04,1.13-0.01,1.69-0.01c0.85,0,1.71-0.01,2.56,0.02c0.69,0.02,1.23,0.55,1.34,1.24c0.1,0.63-0.3,1.31-0.91,1.55
				c-0.25,0.1-0.51,0.11-0.77,0.11c-1.99,0-3.99,0-5.98,0c-0.5,0-0.86,0.34-0.88,0.8c-0.01,0.45,0.34,0.81,0.83,0.85
				c0.05,0,0.11,0,0.16,0c2.61,0,5.23,0,7.84,0c0.5,0,0.99-0.05,1.48-0.12c2.11-0.33,3.89-1.29,5.38-2.8
				c1.29-1.3,2.59-2.58,3.88-3.88c0.38-0.38,0.81-0.62,1.37-0.5c0.6,0.13,1.01,0.49,1.18,1.08c0.17,0.58,0.02,1.09-0.41,1.51
				c-1.37,1.37-2.73,2.75-4.11,4.11c-1.75,1.72-3.82,2.89-6.18,3.55C58.28,65.86,58.12,66.07,58.13,66.76z"/>
			<path class="st4" d="M58.13,66.76c-0.01-0.69,0.14-0.9,0.81-1.08c2.36-0.66,4.43-1.83,6.18-3.55c1.38-1.36,2.74-2.74,4.11-4.11
				c0.42-0.42,0.58-0.94,0.41-1.51c-0.17-0.59-0.58-0.95-1.18-1.08c-0.55-0.12-0.99,0.12-1.37,0.5c-1.29,1.29-2.6,2.58-3.88,3.88
				c-1.5,1.51-3.28,2.47-5.38,2.8c-0.49,0.08-0.98,0.12-1.48,0.12c-2.61,0-5.23,0-7.84,0c-0.05,0-0.11,0-0.16,0
				c-0.49-0.04-0.85-0.4-0.83-0.85c0.01-0.45,0.38-0.79,0.88-0.8c1.99,0,3.99,0,5.98,0c0.26,0,0.52-0.01,0.77-0.11
				c0.62-0.24,1.01-0.92,0.91-1.55c-0.11-0.69-0.65-1.21-1.34-1.24c-0.85-0.03-1.7-0.01-2.56-0.02c-0.56,0-1.13-0.03-1.69,0.01
				c-0.97,0.07-1.75-0.14-2.55-0.81c-1.61-1.35-3.56-1.46-5.55-1.03c-1.72,0.37-3.22,1.18-4.46,2.42c-1.9,1.89-3.79,3.79-5.69,5.68
				c-0.19,0.19-0.2,0.27,0.03,0.44c2.31,1.71,4.61,3.43,6.9,5.15c0.2,0.15,0.32,0.17,0.51-0.03c0.58-0.61,1.18-1.19,1.77-1.78
				c1.36-1.36,2.99-2.05,4.92-2.03c1.69,0.01,3.38,0,5.07,0c0.61,0,0.86,0.23,0.96,0.84c-0.13,0.6-0.39,0.81-1,0.81
				c-1.66,0-3.33,0.01-4.99,0c-1.51-0.01-2.78,0.52-3.84,1.6c-0.76,0.78-1.53,1.54-2.3,2.31c-0.52,0.52-0.84,0.54-1.44,0.1
				c-2.8-2.09-5.59-4.17-8.39-6.26c-0.67-0.5-0.71-0.97-0.11-1.56c2.11-2.11,4.22-4.22,6.33-6.33c2.14-2.13,4.72-3.21,7.74-3.2
				c1.82,0.01,3.45,0.61,4.85,1.77c0.23,0.19,0.45,0.26,0.74,0.26c1.61-0.01,3.22-0.03,4.83,0.02c1.7,0.05,3.01,1.55,2.92,3.25
				c-0.02,0.39-0.15,0.75-0.25,1.12c-0.02,0.02-0.03,0.03-0.05,0.05c0.04,0,0.07,0.01,0.11,0.01c1.69-0.23,3.13-0.97,4.34-2.16
				c1.38-1.36,2.74-2.74,4.12-4.1c0.87-0.86,1.91-1.19,3.09-0.82c1.21,0.38,1.98,1.22,2.23,2.47c0.18,0.92,0.03,1.84-0.63,2.51
				c-2,2.04-3.87,4.21-6.16,5.95c-1.55,1.17-3.28,1.97-5.16,2.47C58.71,67.44,58.46,67.33,58.13,66.76z"/>
			<path class="st4" d="M54.42,67.01c0.11-0.58,0.36-0.83,0.82-0.84c0.45-0.01,0.71,0.23,0.85,0.76c-0.08,0.56-0.35,0.85-0.8,0.88
				C54.87,67.83,54.59,67.58,54.42,67.01z"/>
			<path class="st5" d="M49.81,47.2c-1.06-0.8-2.21-0.84-3.39-0.83c-2.1,0.02-4.21,0-6.31,0.01c-0.28,0-0.37-0.05-0.37-0.35
				c0.01-4.72,0.01-9.44,0-14.15c0-0.29,0.07-0.36,0.36-0.36c2.67,0.01,5.34,0,8,0.01c0.95,0,1.7,0.66,1.7,1.55
				C49.81,37.75,49.81,42.42,49.81,47.2z M44.81,35.81c0.71,0,1.43,0,2.14,0c0.6,0,0.96-0.32,0.96-0.83c0-0.5-0.36-0.81-0.93-0.81
				c-1.47,0-2.94,0-4.41,0c-0.55,0-0.93,0.36-0.92,0.83c0.01,0.48,0.39,0.81,0.94,0.82C43.33,35.82,44.07,35.81,44.81,35.81z
				 M44.77,39.77c0.74,0,1.48,0,2.22,0c0.57,0,0.92-0.33,0.92-0.83c0-0.5-0.36-0.82-0.93-0.82c-1.47,0-2.94,0-4.41,0
				c-0.55,0-0.93,0.35-0.93,0.83c0,0.48,0.39,0.82,0.94,0.82C43.31,39.78,44.04,39.77,44.77,39.77z M44.81,42.09
				c-0.74,0-1.48,0-2.22,0c-0.55,0-0.94,0.34-0.94,0.82c0,0.48,0.38,0.83,0.93,0.83c1.47,0,2.94,0,4.41,0
				c0.57,0,0.93-0.32,0.93-0.82c0-0.5-0.35-0.83-0.92-0.83C46.26,42.08,45.54,42.08,44.81,42.09z"/>
			<path class="st5" d="M51.46,47.16c0-0.19,0-0.32,0-0.45c0-4.42,0-8.83,0-13.25c0-1.31,0.63-1.94,1.95-1.94
				c2.57,0,5.14,0,7.72-0.01c0.3,0,0.41,0.04,0.41,0.39c-0.01,4.69-0.01,9.38,0,14.07c0,0.36-0.11,0.41-0.44,0.41
				c-2.16-0.01-4.32-0.01-6.48-0.01C53.04,46.38,52.88,46.41,51.46,47.16z M56.52,34.16c-0.74,0-1.48,0-2.22,0
				c-0.55,0-0.93,0.35-0.93,0.83c0,0.48,0.39,0.82,0.94,0.82c1.47,0,2.94,0,4.41,0c0.57,0,0.92-0.33,0.92-0.83
				c0-0.5-0.36-0.81-0.93-0.82C57.97,34.16,57.24,34.16,56.52,34.16z M56.49,43.74c0.74,0,1.48,0,2.22,0c0.57,0,0.92-0.33,0.92-0.83
				c0-0.5-0.36-0.81-0.93-0.82c-1.47,0-2.94,0-4.41,0c-0.55,0-0.93,0.36-0.93,0.83c0.01,0.48,0.39,0.81,0.94,0.82
				C55.03,43.74,55.76,43.74,56.49,43.74z M56.53,38.12c-0.74,0-1.48,0-2.22,0c-0.55,0-0.94,0.34-0.94,0.82
				c0,0.48,0.38,0.83,0.93,0.83c1.47,0,2.94,0,4.41,0c0.57,0,0.93-0.32,0.93-0.82c0-0.5-0.35-0.83-0.92-0.83
				C57.98,38.12,57.26,38.12,56.53,38.12z"/>
			<path class="st6" d="M49.65,49.68c-0.16,0-0.28,0-0.4,0c-4.13,0-8.25,0-12.38,0.01c-0.33,0-0.44-0.07-0.44-0.42
				c0.01-4.68,0.01-9.35,0-14.03c0-0.35,0.1-0.45,0.43-0.42c0.33,0.03,0.66,0.01,0.99,0c0.18-0.01,0.26,0.05,0.24,0.23
				c-0.01,0.1,0,0.19,0,0.29c0,3.85,0,7.7,0,11.55c0,0.87,0.26,1.13,1.13,1.13c2.7,0,5.39,0,8.09,0
				C48.39,48.03,49.28,48.65,49.65,49.68z"/>
			<path class="st6" d="M51.64,49.68c0.34-1.02,1.24-1.65,2.35-1.65c2.69,0,5.39,0,8.08,0c0.85,0,1.11-0.25,1.11-1.1
				c0-3.89,0.01-7.78-0.01-11.67c0-0.38,0.11-0.48,0.46-0.44c0.39,0.05,0.92-0.17,1.14,0.09c0.19,0.22,0.06,0.73,0.06,1.12
				c0,4.41,0,8.82,0.01,13.24c0,0.34-0.07,0.43-0.42,0.43c-4.14-0.01-8.27-0.01-12.41-0.01C51.9,49.68,51.79,49.68,51.64,49.68z"/>
			<path class="st7" d="M57.52,60.95c-0.04,0-0.07-0.01-0.11-0.01c0.02-0.02,0.03-0.03,0.05-0.05
				C57.48,60.91,57.5,60.93,57.52,60.95z"/>
			<path class="st2" d="M44.81,35.81c-0.74,0-1.48,0-2.22,0c-0.56,0-0.94-0.34-0.94-0.82c-0.01-0.48,0.38-0.83,0.92-0.83
				c1.47,0,2.94,0,4.41,0c0.57,0,0.93,0.32,0.93,0.81c0,0.51-0.35,0.83-0.96,0.83C46.24,35.82,45.53,35.81,44.81,35.81z"/>
			<path class="st2" d="M44.77,39.77c-0.73,0-1.46,0-2.18,0c-0.55,0-0.94-0.34-0.94-0.82c0-0.48,0.38-0.83,0.93-0.83
				c1.47,0,2.94,0,4.41,0c0.57,0,0.93,0.32,0.93,0.82c0,0.5-0.35,0.82-0.92,0.83C46.25,39.78,45.51,39.77,44.77,39.77z"/>
			<path class="st2" d="M44.81,42.09c0.73,0,1.46,0,2.18,0c0.57,0,0.92,0.33,0.92,0.83c0,0.5-0.36,0.82-0.93,0.82
				c-1.47,0-2.94,0-4.41,0c-0.55,0-0.93-0.35-0.93-0.83c0-0.48,0.39-0.81,0.94-0.82C43.33,42.08,44.07,42.09,44.81,42.09z"/>
			<path class="st2" d="M56.52,34.16c0.73,0,1.46,0,2.18,0c0.57,0,0.93,0.32,0.93,0.82c0,0.5-0.35,0.83-0.92,0.83
				c-1.47,0-2.94,0-4.41,0c-0.55,0-0.94-0.34-0.94-0.82c0-0.48,0.38-0.82,0.93-0.83C55.03,34.16,55.77,34.16,56.52,34.16z"/>
			<path class="st2" d="M56.49,43.74c-0.73,0-1.46,0-2.18,0c-0.56,0-0.94-0.34-0.94-0.82c-0.01-0.48,0.38-0.83,0.93-0.83
				c1.47,0,2.94,0,4.41,0c0.57,0,0.93,0.32,0.93,0.82c0,0.5-0.35,0.83-0.92,0.83C57.97,43.74,57.23,43.74,56.49,43.74z"/>
			<path class="st2" d="M56.53,38.12c0.73,0,1.46,0,2.18,0c0.57,0,0.92,0.33,0.92,0.83c0,0.5-0.36,0.82-0.93,0.82
				c-1.47,0-2.94,0-4.41,0c-0.55,0-0.93-0.35-0.93-0.83c0-0.48,0.39-0.81,0.94-0.82C55.05,38.12,55.79,38.12,56.53,38.12z"/>
		</g>
	</g>
</g>
</svg>
