<?xml version="1.0" encoding="utf-8"?>
<!-- Generator: Adobe Illustrator 28.0.0, SVG Export Plug-In . SVG Version: 6.00 Build 0)  -->
<svg version="1.1" id="Capa_1" xmlns="http://www.w3.org/2000/svg" xmlns:xlink="http://www.w3.org/1999/xlink" x="0px" y="0px"
	 viewBox="0 0 100 100" style="enable-background:new 0 0 100 100;" xml:space="preserve">
<style type="text/css">
	.st0{fill:#00ACFA;}
	.st1{fill:#FFC839;}
	.st2{fill:#FCB156;}
	.st3{fill:#040303;}
	.st4{fill:#FCCB70;}
	.st5{fill:#F9AF55;}
	.st6{fill:#FBDBCD;}
	.st7{fill:#ACD5FC;}
	.st8{fill:#005CD5;}
	.st9{fill:#FBC8BB;}
	.st10{fill:#ABD4FB;}
	.st11{fill:#FAC7BA;}
	.st12{fill:#FA8D9B;}
	.st13{fill:#F5C2B6;}
	.st14{fill:#040404;}
</style>
<g>
	<g>
		<path class="st0" d="M75.17,10.1H24.83c-8.14,0-14.73,6.6-14.73,14.73v50.34c0,8.14,6.6,14.73,14.73,14.73h50.34
			c8.14,0,14.73-6.6,14.73-14.73V24.83C89.9,16.7,83.3,10.1,75.17,10.1z"/>
		<circle class="st1" cx="50" cy="50" r="31.93"/>
	</g>
	<g id="OR2k3q.tif">
		<g>
			<path class="st2" d="M33.56,47.87c0.29-0.27,0.49-0.62,0.81-0.85c0.36,0.24,0.67,0.17,0.95-0.14c0.19-0.22,0.42-0.41,0.62-0.63
				c0.38-0.44,0.85-0.61,1.42-0.59c0.57,0.02,0.8-0.23,0.75-0.81c-0.03-0.35,0.04-0.67,0.26-0.94c0.22-0.27,0.44-0.54,0.68-0.78
				c1.28-1.29,2.56-2.57,3.84-3.85c0.31-0.31,0.62-0.62,0.98-0.88c0.28-0.21,0.59-0.3,0.93-0.28c0.65,0.04,0.86-0.16,0.84-0.79
				c-0.01-0.52,0.14-0.96,0.53-1.32c0.55-0.51,1.07-1.04,1.62-1.55c0.48-0.44,0.99-0.86,1.59-1.14c0.49-0.23,0.98-0.29,1.5-0.06
				c0.49,0.22,0.78,0.09,0.96-0.42c0.22-0.6,0.62-0.98,1.24-1.14c1.35-0.35,2.73-0.49,4.12-0.42c0.63,0.03,1.12,0.29,1.45,0.85
				c0.3,0.51,0.59,0.57,1.08,0.23c0.31-0.21,0.64-0.35,1.01-0.28c1.28,0.26,2.42,0.81,3.34,1.74c0.09,0.09,0.14,0.22,0.21,0.33
				c-0.09,0-0.19-0.01-0.28,0.01c-1.43,0.35-2.8,0.84-4.04,1.65c-0.87-0.54-1.75-1.07-2.77-1.29c-1.71-0.37-2.69,0.59-2.33,2.3
				c0.01,0.03,0.01,0.05,0.02,0.08c0.11,0.28,0.03,0.36-0.27,0.36c-1.42-0.03-2.77,0.29-4.05,0.91c-0.18,0.09-0.31,0.1-0.5-0.03
				c-1.15-0.79-2.59-0.67-3.54,0.29c-0.94,0.95-1.07,2.39-0.3,3.51c0.12,0.18,0.15,0.3,0.06,0.5c-0.85,1.75-1.14,3.59-0.81,5.52
				c0.04,0.23-0.03,0.31-0.25,0.34c-1.33,0.16-2.44,0.79-3.42,1.68c-1.37,1.25-2.71,2.54-3.92,3.94c-1.78,2.08-2.09,4.48-1.02,6.99
				c0.79,1.86,2.28,3,4.18,3.63c-0.12,0.07-0.12,0.16-0.07,0.27c0.14,0.33,0.27,0.66,0.42,0.99c0.66,1.51,1.61,2.83,2.74,4.03
				c-0.76,0.01-1.38-0.21-1.76-0.93c-0.21-0.4-0.56-0.46-0.94-0.19c-0.44,0.31-0.93,0.47-1.43,0.3c-0.91-0.29-1.8-0.67-2.55-1.29
				c-0.7-0.57-1.09-1.29-1.09-2.21c0.01-0.57-0.21-0.78-0.77-0.78c-0.94,0.01-1.66-0.4-2.24-1.11c-0.5-0.63-0.81-1.37-1.12-2.11
				c-0.28-0.65-0.26-1.26,0.16-1.85c0.29-0.4,0.21-0.73-0.22-0.96c-0.54-0.29-0.78-0.74-0.85-1.31c-0.17-1.4,0.02-2.76,0.32-4.12
				c0.16-0.71,0.53-1.2,1.24-1.43c0.44-0.15,0.58-0.47,0.38-0.88c-0.27-0.57-0.2-1.11,0.09-1.64c0.11-0.21,0.23-0.42,0.35-0.63
				C33.87,48.37,33.85,48.1,33.56,47.87z"/>
			<path class="st3" d="M33.56,47.87c0.29,0.23,0.31,0.51,0.14,0.81c-0.12,0.21-0.23,0.42-0.35,0.63c-0.29,0.53-0.36,1.07-0.09,1.64
				c0.2,0.41,0.05,0.73-0.38,0.88c-0.7,0.24-1.08,0.72-1.24,1.43c-0.3,1.36-0.5,2.72-0.32,4.12c0.07,0.58,0.31,1.03,0.85,1.31
				c0.43,0.23,0.51,0.56,0.22,0.96c-0.42,0.59-0.44,1.2-0.16,1.85c0.31,0.74,0.62,1.47,1.12,2.11c0.57,0.72,1.3,1.12,2.24,1.11
				c0.56-0.01,0.78,0.21,0.77,0.78c-0.01,0.92,0.38,1.64,1.09,2.21c0.76,0.61,1.64,0.99,2.55,1.29c0.51,0.16,0.99,0.01,1.43-0.3
				c0.38-0.27,0.73-0.2,0.94,0.19c0.38,0.72,1.01,0.94,1.76,0.93c1.33,0.07,2.63-0.1,3.91-0.44c0.59-0.16,0.97-0.53,1.18-1.09
				c0.2-0.54,0.46-0.67,0.98-0.44c0.46,0.2,0.9,0.18,1.35-0.01c0.36-0.15,0.68-0.36,0.99-0.59c0.8-0.61,1.49-1.33,2.22-2.02
				c0.47-0.44,0.7-0.94,0.66-1.59c-0.03-0.45,0.24-0.71,0.69-0.66c0.57,0.06,1.02-0.15,1.4-0.53c1.64-1.63,3.26-3.26,4.89-4.89
				c0.11-0.11,0.2-0.25,0.3-0.38c0.2-0.27,0.28-0.57,0.26-0.9c-0.04-0.64,0.16-0.85,0.8-0.84c0.52,0.01,0.96-0.14,1.32-0.54
				c0.29-0.32,0.6-0.6,0.9-0.91c0.63-0.67,1.28-1.33,1.72-2.15c0.27-0.51,0.4-1.04,0.14-1.61c-0.24-0.54-0.12-0.8,0.44-1.01
				c0.49-0.18,0.88-0.5,1.02-1c0.43-1.52,0.65-3.08,0.42-4.66c-0.07-0.48-0.3-0.87-0.74-1.12c-0.54-0.31-0.6-0.58-0.25-1.1
				c0.29-0.43,0.4-0.89,0.24-1.37c-0.3-0.91-0.68-1.79-1.3-2.55c-0.56-0.69-1.27-1.07-2.18-1.07c-0.59,0-0.78-0.2-0.79-0.8
				c-0.01-0.52-0.12-1-0.42-1.43c-0.07-0.11-0.12-0.24-0.21-0.33c-0.93-0.94-2.07-1.48-3.34-1.74c-0.37-0.08-0.7,0.07-1.01,0.28
				c-0.5,0.34-0.78,0.28-1.08-0.23c-0.33-0.55-0.83-0.82-1.45-0.85c-1.39-0.07-2.77,0.07-4.12,0.42c-0.62,0.16-1.02,0.54-1.24,1.14
				c-0.18,0.51-0.47,0.64-0.96,0.42c-0.52-0.23-1.01-0.17-1.5,0.06c-0.6,0.28-1.11,0.69-1.59,1.14c-0.55,0.51-1.07,1.04-1.62,1.55
				c-0.39,0.36-0.54,0.8-0.53,1.32c0.01,0.64-0.2,0.83-0.84,0.79c-0.35-0.02-0.65,0.08-0.93,0.28c-0.36,0.26-0.67,0.57-0.98,0.88
				c-1.28,1.28-2.57,2.56-3.84,3.85c-0.24,0.25-0.47,0.51-0.68,0.78c-0.22,0.27-0.28,0.59-0.26,0.94c0.04,0.58-0.18,0.83-0.75,0.81
				c-0.57-0.02-1.04,0.15-1.42,0.59c-0.19,0.22-0.42,0.41-0.62,0.63c-0.28,0.32-0.59,0.38-0.95,0.14c-0.27-0.44-0.26-0.62,0.09-0.98
				c0.45-0.46,0.86-0.95,1.43-1.27c0.31-0.18,0.74-0.13,0.96-0.34c0.21-0.21,0.17-0.65,0.35-0.95c0.31-0.49,0.7-0.9,1.11-1.31
				c1.39-1.4,2.79-2.8,4.19-4.18c0.5-0.49,1.04-0.97,1.79-1.05c0.17-0.02,0.17-0.14,0.19-0.25c0.13-0.67,0.48-1.19,0.97-1.66
				c0.81-0.77,1.58-1.59,2.5-2.24c0.84-0.6,1.74-1.05,2.82-0.82c0.09,0.02,0.15,0,0.2-0.08c0.6-1.05,1.62-1.35,2.71-1.54
				c1.29-0.23,2.59-0.35,3.9-0.22c0.66,0.07,1.22,0.36,1.68,0.83c0.09,0.1,0.16,0.19,0.33,0.12c0.9-0.39,1.78-0.23,2.63,0.14
				c0.69,0.29,1.34,0.65,1.96,1.07c0.91,0.63,1.47,1.49,1.67,2.58c0.04,0.24,0.14,0.35,0.39,0.39c1.03,0.15,1.82,0.71,2.45,1.51
				c0.67,0.86,1.11,1.85,1.45,2.87c0.2,0.6,0.15,1.21-0.08,1.8c-0.06,0.16-0.08,0.26,0.06,0.38c0.62,0.55,0.86,1.27,0.9,2.07
				c0.08,1.54-0.09,3.06-0.49,4.55c-0.18,0.68-0.58,1.22-1.18,1.61c-0.17,0.11-0.23,0.19-0.19,0.4c0.13,0.71-0.07,1.37-0.4,2
				c-0.46,0.84-1.09,1.54-1.74,2.23c-0.35,0.37-0.72,0.71-1.06,1.09c-0.4,0.44-0.89,0.71-1.47,0.82c-0.2,0.04-0.31,0.1-0.34,0.34
				c-0.05,0.43-0.29,0.79-0.56,1.13c-0.35,0.45-0.76,0.85-1.17,1.26c-1.28,1.28-2.57,2.57-3.86,3.84c-0.5,0.49-1.03,0.93-1.77,1.02
				c-0.18,0.02-0.17,0.15-0.19,0.26c-0.13,0.67-0.48,1.19-0.97,1.66c-0.79,0.75-1.54,1.55-2.43,2.2c-0.86,0.62-1.77,1.1-2.89,0.87
				c-0.09-0.02-0.15,0-0.19,0.09c-0.6,1.05-1.62,1.35-2.71,1.54c-1.29,0.23-2.59,0.36-3.9,0.2c-0.66-0.08-1.23-0.34-1.68-0.83
				C41.69,70,41.59,70,41.42,70.07c-0.71,0.27-1.43,0.25-2.14-0.04c-0.82-0.33-1.62-0.67-2.34-1.19c-0.91-0.66-1.54-1.51-1.71-2.64
				c-0.03-0.19-0.1-0.29-0.31-0.32c-1.28-0.19-2.18-0.94-2.85-1.99c-0.46-0.72-0.81-1.5-1.08-2.31c-0.21-0.61-0.21-1.23,0.03-1.84
				c0.08-0.22,0.08-0.34-0.11-0.51c-0.6-0.55-0.8-1.27-0.84-2.05c-0.07-1.5,0.09-2.98,0.47-4.44c0.19-0.71,0.59-1.28,1.21-1.68
				c0.17-0.11,0.21-0.2,0.18-0.41c-0.16-1.02,0.25-1.88,0.84-2.66C32.97,47.71,33.27,47.72,33.56,47.87z"/>
			<path class="st4" d="M64.3,34.14c0.3,0.43,0.41,0.91,0.42,1.43c0.01,0.6,0.21,0.8,0.79,0.8c0.91-0.01,1.62,0.38,2.18,1.07
				c0.62,0.76,0.99,1.64,1.3,2.55c0.16,0.48,0.05,0.94-0.24,1.37c-0.35,0.52-0.29,0.79,0.25,1.1c0.45,0.25,0.67,0.64,0.74,1.12
				c0.23,1.58,0.01,3.14-0.42,4.66c-0.14,0.5-0.53,0.82-1.02,1c-0.56,0.2-0.69,0.47-0.44,1.01c0.26,0.57,0.13,1.09-0.14,1.61
				c-0.44,0.82-1.09,1.48-1.72,2.15c-0.29,0.31-0.61,0.6-0.9,0.91c-0.36,0.39-0.8,0.55-1.32,0.54c-0.64-0.01-0.83,0.19-0.8,0.84
				c0.02,0.33-0.06,0.63-0.26,0.9c-0.1,0.13-0.19,0.26-0.3,0.38c-1.63,1.63-3.26,3.27-4.89,4.89c-0.38,0.38-0.83,0.6-1.4,0.53
				c-0.45-0.05-0.72,0.21-0.69,0.66c0.04,0.65-0.19,1.15-0.66,1.59c-0.73,0.68-1.42,1.41-2.22,2.02c-0.31,0.23-0.63,0.44-0.99,0.59
				c-0.45,0.19-0.89,0.21-1.35,0.01c-0.52-0.23-0.78-0.1-0.98,0.44c-0.21,0.57-0.59,0.94-1.18,1.09c-1.28,0.34-2.59,0.5-3.91,0.44
				c-1.13-1.19-2.08-2.51-2.74-4.03c-0.14-0.33-0.27-0.66-0.42-0.99c-0.05-0.11-0.04-0.21,0.07-0.27c0.1,0.02,0.21,0.05,0.31,0.07
				c2.2,0.51,4.19,0.06,5.88-1.46c1.25-1.12,2.43-2.32,3.58-3.54c1.02-1.07,1.81-2.27,1.98-3.79c0.03-0.26,0.17-0.24,0.36-0.21
				c1.88,0.31,3.69,0.03,5.41-0.78c0.25-0.12,0.41-0.11,0.64,0.05c1.09,0.74,2.53,0.6,3.44-0.32c0.95-0.95,1.1-2.42,0.34-3.51
				c-0.14-0.2-0.16-0.35-0.05-0.57c0.43-0.85,0.68-1.75,0.82-2.7c0.08-0.53,0.05-1.07,0.11-1.64c0.33,0.13,0.63,0.18,0.93,0.22
				c0.75,0.09,1.44-0.19,1.72-0.76c0.35-0.72,0.29-1.45-0.04-2.16c-0.14-0.3-0.4-0.47-0.76-0.34c-0.31,0.11-0.44,0.42-0.34,0.79
				c0.07,0.24,0.14,0.49,0.15,0.74c0.01,0.44-0.13,0.58-0.58,0.53c-0.35-0.03-0.67-0.15-1-0.27c-0.18-0.07-0.26-0.17-0.3-0.37
				c-0.2-0.97-0.56-1.89-1.07-2.74c-1.16-1.94-2.82-3.27-4.92-4.06c0.22-0.57,0.74-0.83,1.22-1.12c1.23,0.72,2.29,1.64,3.29,2.64
				c0.79,0.79,1.5,1.66,2.14,2.58c0.23,0.34,0.56,0.39,0.86,0.18c0.29-0.2,0.34-0.51,0.13-0.84c-0.11-0.18-0.24-0.35-0.37-0.52
				c-1.4-1.87-3.06-3.48-4.95-4.85c1.24-0.81,2.61-1.3,4.04-1.65C64.11,34.13,64.21,34.14,64.3,34.14z"/>
			<path class="st3" d="M59.99,35.8c1.89,1.37,3.55,2.98,4.95,4.85c0.13,0.17,0.25,0.34,0.37,0.52c0.21,0.33,0.16,0.64-0.13,0.84
				c-0.31,0.22-0.63,0.17-0.86-0.18c-0.64-0.92-1.35-1.79-2.14-2.58c-1-1-2.06-1.92-3.29-2.64c-0.69-0.46-1.41-0.85-2.24-0.99
				c-0.23-0.04-0.49-0.05-0.58,0.22c-0.16,0.48,0.09,0.91,0.21,1.35c0.08,0.29,0.33,0.23,0.52,0.29c0.29,0.1,0.59,0.16,0.88,0.25
				c2.11,0.79,3.77,2.12,4.92,4.06c0.51,0.85,0.86,1.77,1.07,2.74c0.04,0.2,0.12,0.3,0.3,0.37c0.33,0.12,0.65,0.23,1,0.27
				c0.45,0.04,0.59-0.09,0.58-0.53c-0.01-0.26-0.08-0.5-0.15-0.74c-0.1-0.37,0.03-0.68,0.34-0.79c0.35-0.13,0.62,0.04,0.76,0.34
				c0.33,0.71,0.39,1.44,0.04,2.16c-0.28,0.57-0.96,0.85-1.72,0.76c-0.3-0.04-0.6-0.09-0.93-0.22c-0.06,0.57-0.03,1.11-0.11,1.64
				c-0.14,0.94-0.4,1.85-0.82,2.7c-0.11,0.22-0.09,0.37,0.05,0.57c0.76,1.1,0.61,2.56-0.34,3.51c-0.91,0.92-2.35,1.06-3.44,0.32
				c-0.23-0.16-0.39-0.17-0.64-0.05c-1.72,0.82-3.52,1.09-5.41,0.78c-0.19-0.03-0.33-0.05-0.36,0.21c-0.18,1.51-0.96,2.71-1.98,3.79
				c-1.16,1.22-2.34,2.42-3.58,3.54c-1.68,1.51-3.67,1.96-5.88,1.46c-0.1-0.02-0.21-0.05-0.31-0.07c-1.9-0.63-3.39-1.77-4.18-3.63
				c-1.06-2.51-0.76-4.91,1.02-6.99c1.2-1.4,2.54-2.7,3.92-3.94c0.98-0.89,2.09-1.52,3.42-1.68c0.22-0.03,0.28-0.11,0.25-0.34
				c-0.33-1.93-0.04-3.77,0.81-5.52c0.1-0.2,0.07-0.32-0.06-0.5c-0.77-1.13-0.64-2.57,0.3-3.51c0.95-0.96,2.4-1.09,3.54-0.29
				c0.19,0.13,0.32,0.12,0.5,0.03c1.28-0.62,2.63-0.94,4.05-0.91c0.31,0.01,0.39-0.08,0.27-0.36c-0.01-0.02-0.02-0.05-0.02-0.08
				c-0.36-1.71,0.62-2.67,2.33-2.3C58.24,34.73,59.12,35.26,59.99,35.8z M47.03,43.82c-0.27,0.67-0.42,1.36-0.42,2.07
				c-0.14,0.95,0.01,1.88,0.27,2.8c0.89,3.22,4.01,5.72,7.2,5.8c0.37,0.07,0.74,0.07,1.11,0c0.72-0.02,1.42-0.17,2.09-0.43
				c0.05-0.01,0.1-0.02,0.15-0.04c4.02-1.48,6.18-5.97,4.85-10.03c-1.16-3.52-4.71-5.91-8.2-5.52c-0.62-0.02-1.21,0.12-1.79,0.31
				C49.71,39.62,47.94,41.28,47.03,43.82z M43.02,63.58c0.59,0.02,1.15-0.14,1.72-0.3c0.32-0.1,0.35-0.2,0.15-0.48
				c-1.35-1.84-2.08-3.9-2.2-6.17c-0.08-2.51,0.59-4.81,2.01-6.89c0.01-0.01-0.01-0.04-0.02-0.09c-0.84,0.21-1.52,0.69-2.13,1.27
				c-1.14,1.11-2.25,2.24-3.38,3.35c-0.94,0.92-1.47,2.03-1.64,3.33C37.11,60.74,39.86,63.75,43.02,63.58z M43.98,54.95
				c-0.08,0.18-0.07,0.36-0.08,0.55c-0.14,2.5,0.57,4.73,2.04,6.74c0.17,0.24,0.28,0.25,0.47,0.06c1.36-1.35,2.78-2.65,4.04-4.1
				c0.64-0.74,1.05-1.6,1.18-2.57c0.02-0.17,0.1-0.35-0.17-0.45c-1.75-0.63-3.17-1.72-4.3-3.19c-0.44-0.62-0.81-1.28-1.13-2.01
				c-0.07,0.09-0.11,0.14-0.15,0.19c-0.11,0.15-0.22,0.3-0.32,0.45C44.69,51.95,44.11,53.37,43.98,54.95z M49.19,38.99
				c-0.76-0.32-1.46-0.15-1.91,0.42c-0.4,0.5-0.45,1.16-0.12,1.6C47.72,40.24,48.39,39.58,49.19,38.99z M60.05,53.96
				c0.68,0.33,1.38,0.19,1.84-0.34c0.44-0.5,0.51-1.16,0.18-1.67C61.51,52.72,60.85,53.38,60.05,53.96z"/>
			<path class="st5" d="M57.67,37.73c-0.29-0.08-0.59-0.15-0.88-0.25c-0.19-0.06-0.43,0-0.52-0.29c-0.13-0.44-0.37-0.87-0.21-1.35
				c0.09-0.26,0.35-0.26,0.58-0.22c0.83,0.14,1.55,0.52,2.24,0.99C58.4,36.9,57.89,37.16,57.67,37.73z"/>
			<path class="st6" d="M55.18,54.5c-0.37,0.07-0.74,0.07-1.11,0c-0.05-0.04-0.09-0.11-0.14-0.13c-1.25-0.57-2.33-1.37-3.18-2.46
				c-1.18-1.5-1.89-3.19-1.88-5.13c0.5-0.32,0.71-0.79,0.65-1.38c0.41,0.25,0.84,0.45,1.34,0.43c0.42-0.02,0.65-0.22,0.66-0.59
				c0-0.37-0.22-0.58-0.63-0.62c-0.62-0.05-0.88-0.29-0.93-0.92c-0.02-0.28-0.12-0.48-0.36-0.62c0.03-0.13,0.03-0.27,0.09-0.38
				c0.59-1.15,1.37-2.15,2.38-2.98c0.62-0.5,1.33-0.87,2.01-1.27c3.5-0.39,7.05,2,8.2,5.52c1.34,4.07-0.83,8.55-4.85,10.03
				c-0.05,0.02-0.1,0.02-0.15,0.04c0.1-0.29,0.1-0.59,0.06-0.89c-0.05-0.3-0.28-0.53-0.3-0.84c0.09,0.01,0.19,0.02,0.28,0.02
				c0.45,0,0.7-0.2,0.72-0.57c0.02-0.38-0.2-0.58-0.65-0.63c-0.61-0.06-0.86-0.32-0.91-0.94c-0.03-0.41-0.25-0.63-0.62-0.63
				c-0.35,0.01-0.55,0.23-0.58,0.62c-0.03,0.52,0.17,0.96,0.43,1.38c-0.24,0.02-0.47-0.03-0.71,0.07c-0.75,0.31-1,1.21-0.56,1.99
				C54.61,53.99,54.91,54.22,55.18,54.5z M53.2,48.74c0-0.47-0.39-0.86-0.87-0.85c-0.47,0.01-0.91,0.45-0.92,0.92
				c-0.01,0.47,0.38,0.87,0.85,0.87C52.75,49.68,53.2,49.23,53.2,48.74z"/>
			<path class="st7" d="M47.16,51.99c1.14,1.47,2.55,2.56,4.3,3.19c0.28,0.1,0.19,0.28,0.17,0.45c-0.13,0.98-0.54,1.83-1.18,2.57
				c-1.26,1.45-2.68,2.75-4.04,4.1c-0.2,0.19-0.3,0.18-0.47-0.06c-1.47-2.01-2.18-4.24-2.04-6.74c0.01-0.19,0-0.37,0.08-0.55
				c0.89-0.87,1.77-1.75,2.66-2.62C46.79,52.18,46.93,52.02,47.16,51.99z"/>
			<path class="st8" d="M43.02,63.58c-3.16,0.16-5.91-2.84-5.5-5.97c0.17-1.3,0.71-2.41,1.64-3.33c1.13-1.11,2.24-2.24,3.38-3.35
				c0.6-0.59,1.29-1.06,2.13-1.27c0.01,0.04,0.03,0.07,0.02,0.09c-1.42,2.08-2.09,4.38-2.01,6.89c-0.07,0.01-0.12,0.05-0.15,0.11
				c-0.84,1.44-0.99,2.97-0.63,4.57C42.09,62.16,42.52,62.89,43.02,63.58z"/>
			<path class="st9" d="M48.86,46.79c0,1.94,0.7,3.62,1.88,5.13c0.85,1.08,1.93,1.88,3.18,2.46c0.06,0.03,0.09,0.09,0.14,0.13
				c-3.19-0.08-6.31-2.59-7.2-5.8c-0.25-0.91-0.41-1.84-0.27-2.8C47.18,46.64,47.87,47.09,48.86,46.79z"/>
			<path class="st10" d="M43.02,63.58c-0.5-0.69-0.93-1.43-1.12-2.27c-0.36-1.6-0.22-3.13,0.63-4.57c0.04-0.06,0.09-0.1,0.15-0.11
				c0.12,2.28,0.86,4.34,2.2,6.17c0.2,0.27,0.17,0.38-0.15,0.48C44.17,63.45,43.61,63.6,43.02,63.58z"/>
			<path class="st11" d="M54.07,38.47c-0.68,0.4-1.39,0.76-2.01,1.27c-1.01,0.82-1.79,1.83-2.38,2.98
				c-0.06,0.11-0.06,0.25-0.09,0.38c-0.56-0.05-0.78,0.09-0.83,0.53c-0.02,0.14,0,0.29,0,0.43c-0.13,0.01-0.23-0.05-0.34-0.1
				c-0.44-0.25-0.9-0.28-1.39-0.14c0.91-2.55,2.68-4.21,5.24-5.04C52.85,38.59,53.45,38.46,54.07,38.47z"/>
			<path class="st12" d="M57.02,52.34c0.03,0.31,0.26,0.54,0.3,0.84c0.05,0.3,0.04,0.6-0.06,0.89c-0.67,0.27-1.37,0.41-2.09,0.43
				c-0.27-0.27-0.57-0.51-0.76-0.85c-0.45-0.78-0.19-1.68,0.56-1.99c0.23-0.1,0.47-0.05,0.71-0.07
				C56.06,51.97,56.48,52.26,57.02,52.34z"/>
			<path class="st12" d="M47.03,43.82c0.48-0.15,0.94-0.11,1.39,0.14c0.1,0.06,0.21,0.12,0.34,0.1c0.08,0.54,0.37,0.97,0.75,1.34
				c0.06,0.59-0.14,1.05-0.65,1.38c-0.99,0.3-1.68-0.15-2.26-0.89C46.61,45.18,46.76,44.49,47.03,43.82z"/>
			<path class="st8" d="M47.16,51.99c-0.23,0.03-0.37,0.19-0.52,0.34c-0.89,0.87-1.77,1.75-2.66,2.62c0.13-1.59,0.71-3.01,1.57-4.33
				c0.1-0.16,0.22-0.3,0.32-0.45c0.04-0.05,0.08-0.1,0.15-0.19C46.35,50.71,46.73,51.37,47.16,51.99z"/>
			<path class="st13" d="M49.19,38.99c-0.8,0.59-1.47,1.25-2.03,2.02c-0.33-0.44-0.28-1.1,0.12-1.6
				C47.73,38.83,48.43,38.67,49.19,38.99z"/>
			<path class="st13" d="M60.05,53.96c0.79-0.59,1.46-1.25,2.02-2.01c0.33,0.51,0.26,1.17-0.18,1.67
				C61.43,54.15,60.74,54.29,60.05,53.96z"/>
			<path class="st14" d="M49.51,45.41c-0.38-0.37-0.67-0.8-0.75-1.34c0-0.14-0.02-0.29,0-0.43c0.05-0.45,0.27-0.58,0.83-0.53
				c0.24,0.14,0.34,0.34,0.36,0.62c0.05,0.63,0.31,0.87,0.93,0.92c0.42,0.03,0.64,0.25,0.63,0.62c0,0.37-0.24,0.57-0.66,0.59
				C50.35,45.86,49.92,45.66,49.51,45.41z"/>
			<path class="st14" d="M57.02,52.34c-0.54-0.08-0.97-0.37-1.34-0.75c-0.26-0.42-0.46-0.87-0.43-1.38
				c0.03-0.39,0.22-0.61,0.58-0.62c0.37-0.01,0.59,0.22,0.62,0.63c0.05,0.63,0.29,0.88,0.91,0.94c0.46,0.05,0.67,0.25,0.65,0.63
				c-0.01,0.37-0.27,0.57-0.72,0.57C57.21,52.36,57.12,52.34,57.02,52.34z"/>
			<path class="st14" d="M53.2,48.74c0,0.49-0.45,0.94-0.94,0.94c-0.47,0-0.86-0.4-0.85-0.87c0.01-0.47,0.45-0.91,0.92-0.92
				C52.81,47.88,53.2,48.27,53.2,48.74z"/>
		</g>
	</g>
</g>
</svg>
