<?xml version="1.0" encoding="utf-8"?>
<!-- Generator: Adobe Illustrator 28.0.0, SVG Export Plug-In . SVG Version: 6.00 Build 0)  -->
<svg version="1.1" id="Capa_1" xmlns="http://www.w3.org/2000/svg" xmlns:xlink="http://www.w3.org/1999/xlink" x="0px" y="0px"
	 viewBox="0 0 100 100" style="enable-background:new 0 0 100 100;" xml:space="preserve">
<style type="text/css">
	.st0{fill:#00ACFA;}
	.st1{fill:#FFC839;}
	.st2{fill:#030302;}
	.st3{fill:#F2C3AC;}
	.st4{fill:#050404;}
	.st5{fill:#005CD5;}
</style>
<g>
	<g>
		<path class="st0" d="M75.17,10.1H24.83c-8.14,0-14.73,6.6-14.73,14.73v50.34c0,8.14,6.6,14.73,14.73,14.73h50.34
			c8.14,0,14.73-6.6,14.73-14.73V24.83C89.9,16.7,83.3,10.1,75.17,10.1z"/>
		<circle class="st1" cx="50" cy="50" r="31.93"/>
		<g id="qa25xe.tif_00000093867221298152582160000002577252102222998669_">
			<g>
				<path class="st2" d="M45.05,33.37c-0.59-0.39-0.7-0.71-0.46-1.35c0.38-0.99,0.77-1.97,1.13-2.96c0.73-1.99,3.02-2.48,4.39-1.19
					c0.18,0.17,0.26,0.09,0.4-0.03c1.53-1.25,3.59-0.76,4.3,1.09c1.9,4.96,3.9,9.88,5.72,14.88c1.01,2.78,1.13,5.62,0.95,8.51
					c-0.09,1.37-0.13,2.74-0.2,4.12c-0.01,0.21,0.06,0.33,0.23,0.43c0.99,0.64,1.98,1.27,2.95,1.94c0.29,0.2,0.39-0.01,0.54-0.14
					c1.38-1.24,3.37-1.12,4.48,0.29c0.97,1.22,0.86,2.95-0.29,4.06c-1.17,1.13-2.37,2.23-3.56,3.34c-2.1,1.96-4.18,3.92-6.29,5.86
					c-1.65,1.51-4.22,0.87-4.93-1.21c-0.3-0.87-0.22-1.71,0.25-2.5c0.15-0.25,0.17-0.37-0.1-0.55c-1.88-1.28-3.33-2.93-4.18-5.06
					c-0.01-0.02-0.04-0.04-0.06-0.05c-0.03,0.01-0.06,0.02-0.07,0.04c-0.85,2.13-2.29,3.79-4.17,5.07
					c-0.25,0.17-0.29,0.27-0.13,0.54c0.77,1.3,0.47,2.94-0.68,3.87c-1.2,0.97-2.84,0.91-4-0.17c-2.74-2.54-5.46-5.09-8.19-7.64
					c-0.52-0.49-1.05-0.97-1.57-1.47c-1.28-1.23-1.36-3.09-0.2-4.33c1.17-1.24,3.02-1.28,4.33-0.07c0.23,0.21,0.37,0.23,0.63,0.05
					c0.91-0.62,1.84-1.22,2.77-1.81c0.25-0.16,0.32-0.32,0.31-0.61c-0.09-2.69-0.36-5.37-0.24-8.06c0.09-1.86,0.69-3.59,1.3-5.32
					c0.36-1,0.73-1.98,1.11-2.97c0.28-0.75,0.48-0.87,1.27-0.8c0.58,0.43,0.67,0.72,0.41,1.42c-0.33,0.89-0.65,1.79-1.01,2.68
					c-1.02,2.54-1.53,5.16-1.3,7.92c0.16,1.9,0.18,3.82,0.28,5.73c0.03,0.52-0.15,0.88-0.59,1.16c-1.02,0.65-2.02,1.32-3.04,1.97
					c-0.2,0.13-0.24,0.2-0.05,0.38c2.26,2.09,4.51,4.19,6.75,6.29c0.14,0.13,0.24,0.15,0.42,0.04c1.97-1.29,3.46-2.96,4.15-5.26
					c0.61-2.02,0.52-4.07,0.29-6.13c-0.2-1.87-0.69-3.72-0.57-5.6c0.12-1.95,0.38-3.89,0.57-5.84c0.07-0.68,0.16-1.36,0.21-2.05
					c0.04-0.48-0.21-0.85-0.62-0.98c-0.45-0.14-0.71,0.13-0.91,0.46c-0.14,0.23-0.25,0.47-0.35,0.72c-0.91,2.19-1.67,4.43-2.23,6.74
					c-0.15,0.61-0.59,0.9-1.11,0.76c-0.53-0.14-0.76-0.58-0.62-1.19c0.58-2.52,1.43-4.95,2.44-7.33c0.23-0.54,0.54-1.03,1-1.42
					c0.15-0.13,0.21-0.28,0.25-0.46c0.66-2.82,1.31-5.63,1.96-8.45c0.09-0.39,0.18-0.79,0.03-1.19c-0.25-0.68-1.04-0.83-1.5-0.28
					c-0.15,0.17-0.22,0.38-0.3,0.59c-0.35,0.93-0.71,1.87-1.07,2.8C46.02,33.29,45.7,33.47,45.05,33.37z M59.68,52.24
					c0.02-1.33,0.2-3.01-0.03-4.7c-0.21-1.5-0.73-2.91-1.24-4.33c-1.63-4.53-3.5-8.96-5.18-13.47c-0.06-0.15-0.14-0.3-0.23-0.43
					c-0.21-0.28-0.5-0.43-0.86-0.36c-0.35,0.07-0.57,0.29-0.68,0.63c-0.08,0.26-0.09,0.53-0.03,0.8c0.68,2.96,1.37,5.92,2.05,8.88
					c0.03,0.11,0.05,0.23,0.15,0.32c0.69,0.56,1.03,1.34,1.34,2.13c0.88,2.2,1.65,4.44,2.18,6.75c0.13,0.56-0.18,1.04-0.71,1.14
					c-0.49,0.09-0.89-0.22-1.04-0.81c-0.56-2.29-1.31-4.52-2.21-6.7c-0.14-0.33-0.27-0.66-0.51-0.94c-0.3-0.36-0.7-0.4-1.06-0.1
					c-0.28,0.23-0.36,0.54-0.32,0.89c0.19,1.81,0.36,3.62,0.58,5.43c0.23,1.83,0.27,3.65-0.02,5.48c-0.33,2.05-0.62,4.1-0.49,6.19
					c0.21,3.35,1.78,5.87,4.57,7.68c0.18,0.12,0.29,0.12,0.45-0.03c2.23-2.09,4.47-4.18,6.71-6.26c0.19-0.18,0.2-0.26-0.03-0.41
					c-1.03-0.66-2.05-1.34-3.08-2c-0.39-0.25-0.57-0.57-0.55-1.04C59.53,55.53,59.59,54.06,59.68,52.24z M44.57,70.03
					c0.01-0.44-0.22-0.76-0.53-1.04c-2.37-2.21-4.74-4.42-7.11-6.63c-0.86-0.8-1.72-1.62-2.59-2.41c-0.45-0.41-0.96-0.46-1.45-0.19
					C32.45,60,32.22,60.47,32.28,61c0.04,0.36,0.26,0.62,0.52,0.86c2.83,2.64,5.66,5.27,8.48,7.91c0.43,0.4,0.84,0.81,1.29,1.18
					c0.4,0.34,0.86,0.4,1.34,0.16C44.34,70.89,44.56,70.52,44.57,70.03z M68.32,60.84c-0.01-0.51-0.23-0.89-0.69-1.11
					c-0.54-0.26-1.02-0.12-1.44,0.27c-3.24,3.02-6.49,6.05-9.72,9.08c-0.56,0.53-0.6,1.28-0.12,1.79c0.48,0.5,1.19,0.52,1.77,0.02
					c0.36-0.31,0.7-0.65,1.05-0.98c2.86-2.67,5.72-5.34,8.58-8C68.07,61.61,68.33,61.3,68.32,60.84z M50.34,33.75
					c-0.03,0-0.06,0.01-0.09,0.01c-0.37,1.59-0.73,3.19-1.12,4.78c-0.1,0.4-0.12,0.65,0.37,0.76c0.23,0.05,0.43,0.25,0.64,0.39
					c0.09,0.06,0.16,0.14,0.27,0.04c0.32-0.3,0.88-0.35,1.08-0.64c0.22-0.33-0.13-0.84-0.2-1.27c0-0.01,0-0.03-0.01-0.04
					C50.97,36.44,50.66,35.09,50.34,33.75z"/>
				<path class="st3" d="M45.05,33.37c0.65,0.1,0.97-0.08,1.21-0.7c0.36-0.93,0.72-1.86,1.07-2.8c0.08-0.21,0.16-0.42,0.3-0.59
					c0.47-0.55,1.25-0.4,1.5,0.28c0.15,0.4,0.06,0.8-0.03,1.19c-0.65,2.82-1.31,5.63-1.96,8.45c-0.04,0.17-0.09,0.33-0.25,0.46
					c-0.45,0.38-0.77,0.87-1,1.42c-1,2.38-1.85,4.81-2.44,7.33c-0.14,0.61,0.09,1.05,0.62,1.19c0.51,0.14,0.96-0.16,1.11-0.76
					c0.56-2.31,1.32-4.55,2.23-6.74c0.1-0.25,0.22-0.49,0.35-0.72c0.2-0.34,0.45-0.61,0.91-0.46c0.41,0.13,0.66,0.5,0.62,0.98
					c-0.06,0.68-0.14,1.37-0.21,2.05c-0.2,1.95-0.45,3.89-0.57,5.84c-0.12,1.89,0.37,3.74,0.57,5.6c0.23,2.06,0.32,4.11-0.29,6.13
					c-0.7,2.3-2.18,3.97-4.15,5.26c-0.17,0.11-0.27,0.09-0.42-0.04c-2.25-2.1-4.5-4.2-6.75-6.29c-0.2-0.18-0.15-0.25,0.05-0.38
					c1.02-0.65,2.02-1.33,3.04-1.97c0.44-0.28,0.62-0.64,0.59-1.16c-0.1-1.91-0.13-3.82-0.28-5.73c-0.23-2.76,0.29-5.37,1.3-7.92
					c0.35-0.88,0.67-1.78,1.01-2.68c0.26-0.69,0.17-0.99-0.41-1.42c0.22-0.58,0.44-1.17,0.66-1.75c0.04-0.11,0.08-0.23,0.22-0.26
					c0.58,0.02,0.94-0.17,1.08-0.58c0.14-0.42,0.01-0.77-0.45-1.14C44.43,34.71,44.77,34.05,45.05,33.37z"/>
				<path class="st4" d="M44.28,35.44c0.46,0.37,0.59,0.72,0.45,1.14c-0.14,0.41-0.5,0.6-1.08,0.58c-0.85-0.33-0.81-1.29-0.23-1.65
					C43.69,35.33,43.98,35.37,44.28,35.44z"/>
				<path class="st3" d="M59.68,52.24c-0.09,1.82-0.15,3.28-0.23,4.74c-0.03,0.47,0.16,0.79,0.55,1.04c1.03,0.66,2.04,1.34,3.08,2
					c0.24,0.15,0.23,0.23,0.03,0.41c-2.24,2.08-4.48,4.17-6.71,6.26c-0.17,0.16-0.28,0.15-0.45,0.03c-2.79-1.81-4.36-4.33-4.57-7.68
					c-0.13-2.09,0.16-4.14,0.49-6.19c0.29-1.83,0.25-3.65,0.02-5.48c-0.23-1.81-0.39-3.62-0.58-5.43c-0.04-0.35,0.04-0.65,0.32-0.89
					c0.36-0.3,0.76-0.26,1.06,0.1c0.23,0.28,0.37,0.61,0.51,0.94c0.9,2.18,1.65,4.41,2.21,6.7c0.15,0.6,0.55,0.9,1.04,0.81
					c0.54-0.1,0.84-0.58,0.71-1.14c-0.53-2.31-1.3-4.55-2.18-6.75c-0.32-0.79-0.65-1.57-1.34-2.13c-0.1-0.08-0.13-0.2-0.15-0.32
					c-0.69-2.96-1.37-5.92-2.05-8.88c-0.06-0.26-0.05-0.53,0.03-0.8c0.11-0.34,0.33-0.57,0.68-0.63c0.36-0.07,0.65,0.08,0.86,0.36
					c0.1,0.13,0.18,0.28,0.23,0.43c1.68,4.51,3.55,8.94,5.18,13.47c0.51,1.42,1.04,2.82,1.24,4.33
					C59.88,49.23,59.7,50.92,59.68,52.24z"/>
				<path class="st5" d="M44.57,70.03c-0.01,0.49-0.23,0.86-0.67,1.08c-0.47,0.24-0.94,0.18-1.34-0.16
					c-0.44-0.38-0.86-0.79-1.29-1.18c-2.83-2.64-5.65-5.28-8.48-7.91c-0.26-0.24-0.47-0.5-0.52-0.86c-0.06-0.53,0.17-1,0.62-1.24
					c0.49-0.27,1-0.22,1.45,0.19c0.87,0.79,1.73,1.6,2.59,2.41c2.37,2.21,4.74,4.42,7.11,6.63C44.35,69.27,44.58,69.58,44.57,70.03z
					"/>
				<path class="st5" d="M68.32,60.84c0.01,0.46-0.26,0.77-0.57,1.07c-2.86,2.67-5.72,5.33-8.58,8c-0.35,0.33-0.69,0.66-1.05,0.98
					c-0.57,0.5-1.29,0.48-1.77-0.02c-0.48-0.51-0.44-1.26,0.12-1.79c3.24-3.03,6.48-6.05,9.72-9.08c0.42-0.39,0.9-0.52,1.44-0.27
					C68.1,59.95,68.32,60.33,68.32,60.84z"/>
			</g>
		</g>
	</g>
</g>
</svg>
