<?xml version="1.0" encoding="utf-8"?>
<!-- Generator: Adobe Illustrator 28.0.0, SVG Export Plug-In . SVG Version: 6.00 Build 0)  -->
<svg version="1.1" id="Capa_1" xmlns="http://www.w3.org/2000/svg" xmlns:xlink="http://www.w3.org/1999/xlink" x="0px" y="0px"
	 viewBox="0 0 100 100" style="enable-background:new 0 0 100 100;" xml:space="preserve">
<style type="text/css">
	.st0{fill:#00ACFA;}
	.st1{fill:#FFC839;}
	.st2{fill:#030302;}
	.st3{fill:#D69C72;}
	.st4{fill:#F0BE88;}
	.st5{fill:#E7AB7B;}
	.st6{fill:#FAEE9D;}
</style>
<g>
	<g>
		<path class="st0" d="M75.2,10.1H24.8c-8.1,0-14.7,6.6-14.7,14.7v50.3c0,8.1,6.6,14.7,14.7,14.7h50.3c8.1,0,14.7-6.6,14.7-14.7
			V24.8C89.9,16.7,83.3,10.1,75.2,10.1z"/>
		<circle class="st1" cx="50" cy="50" r="31.9"/>
	</g>
	<g id="LaDC1s.tif">
		<g>
			<path class="st2" d="M42.4,41.8c0.1-0.6,0.2-0.7,0.8-0.8c0.3,0,0.6-0.1,0.9-0.1c0.7,0,1-0.3,1.3-1c0.9-1.9,1.9-3.8,2.8-5.7
				c0.4-0.8,0.9-1.2,1.8-1.2c0.9,0,1.4,0.5,1.8,1.2c1,2,2,4.1,3,6.1c0.2,0.3,0.4,0.5,0.7,0.5c2.2,0.3,4.4,0.6,6.6,0.9
				c0.8,0.1,1.5,0.5,1.8,1.3c0.3,0.8,0,1.5-0.6,2.1c-0.4,0.4-0.9,0.9-1.3,1.3c1.4,0.3,2.8,0.7,4.2,1c0.5,0.1,0.9,0.3,1.3,0.7
				c1.8,1.9,3.7,3.7,5.6,5.6c0.2,0.2,0.5,0.5,0.4,0.9c-0.1,0.4-0.4,0.5-0.8,0.6c-1.6,0.4-3.3,0.8-4.9,1.1c-0.4,0.1-0.4,0.2-0.4,0.5
				c0,3.8,0,7.6,0,11.4c0,1.1-0.4,1.7-1.5,1.9c-5.1,1.2-10.2,2.3-15.4,3.5c-0.3,0.1-0.6,0.1-0.9,0c-2.7-0.6-5.4-1.2-8.1-1.9
				c-0.6-0.1-0.8-0.3-0.8-0.9c0.3-0.4,0.6-0.5,1.1-0.4c2.4,0.6,4.7,1.1,7.1,1.6c0.4,0.1,0.5,0,0.5-0.4c0-2.1,0-4.2,0-6.3
				c0-0.6,0.1-0.8,0.7-1c0.6,0.2,0.7,0.3,0.7,1c0,2.1,0,4.2,0,6.3c0,0.3,0.1,0.4,0.4,0.3c4.8-1.1,9.5-2.2,14.3-3.3
				c0.4-0.1,0.5-0.2,0.5-0.6c0-3.7,0-7.4,0-11c0-0.4-0.1-0.4-0.5-0.4c-0.8,0.2-1.6,0.3-2.4,0.5c-0.5,0.1-0.8,0-1.1-0.4
				c0-0.7,0.1-0.8,0.7-1c1.3-0.3,2.6-0.6,4-0.9c1.5-0.3,3-0.7,4.6-1c-0.1-0.1-0.1-0.1-0.1-0.2c-1.5-1.5-3.1-3.1-4.6-4.6
				c-0.2-0.2-0.3-0.2-0.5-0.1c-4.1,1-8.3,1.9-12.4,2.8c-0.8,0.2-1.5,0.4-2.3,0.5c1.6,1.6,3.2,3.2,4.7,4.7c0.2,0.2,0.3,0.2,0.5,0.1
				c0.9-0.2,1.7-0.4,2.6-0.6c0.5-0.1,0.9,0,1.1,0.5c0,0.6-0.2,0.8-0.7,0.9c-1,0.2-2,0.4-3,0.7c-0.5,0.1-0.8,0-1.2-0.3
				c-1.4-1.4-2.8-2.8-4.3-4.3c-0.1-0.1-0.2-0.3-0.4-0.3c0,0.2,0,0.3,0,0.5c0,2.4,0,4.8,0,7.2c0,0.7-0.1,0.8-0.7,1
				c-0.6-0.1-0.7-0.3-0.7-1c0-2.4,0-4.8,0-7.3c0-0.2,0-0.3,0-0.6c-0.2,0.2-0.3,0.3-0.4,0.4c-1.4,1.4-2.8,2.8-4.2,4.3
				c-0.3,0.3-0.6,0.4-1.1,0.3c-3-0.7-6-1.4-9-2c-0.4-0.1-0.5,0-0.5,0.4c0,3.7,0,7.3,0,11c0,0.4,0.2,0.6,0.5,0.6
				c1.2,0.3,2.4,0.5,3.6,0.8c0.6,0.1,0.7,0.3,0.7,0.9c-0.2,0.4-0.6,0.6-1,0.4c-1.2-0.3-2.5-0.6-3.7-0.9c-1-0.2-1.5-0.8-1.5-1.8
				c0-3.8,0-7.6,0-11.4c0-0.3-0.1-0.5-0.4-0.6c-1.7-0.3-3.3-0.7-5-1.1c-0.3-0.1-0.6-0.2-0.7-0.5c-0.1-0.4,0.1-0.6,0.3-0.9
				c2-2,3.9-3.9,5.9-5.9c0.2-0.2,0.4-0.3,0.7-0.4c1.5-0.3,3-0.7,4.5-1c-0.5-0.5-0.9-1-1.4-1.5c-0.5-0.6-0.8-1.2-0.5-1.9
				c0.2-0.7,0.6-1.1,1.3-1.3c0.8-0.2,1.6-0.3,2.5-0.4c0.4-0.1,0.7,0.2,0.8,0.6c-0.1,0.6-0.2,0.8-0.8,0.8c-0.6,0.1-1.2,0.2-1.9,0.3
				c-0.3,0-0.5,0.1-0.6,0.4c-0.1,0.3,0.1,0.5,0.3,0.7c1.5,1.5,3.1,3,4.6,4.5c0.3,0.3,0.7,0.6,0.8,1c0.1,0.2,0.2,0.2,0.4,0.2
				c2.1,0.5,4.2,0.9,6.3,1.4c0.2,0,0.4,0,0.6,0c2-0.5,4-0.9,5.9-1.3c0.5-0.1,0.8-0.3,0.9-0.7c1.7-1.7,3.5-3.4,5.2-5.1
				c0.2-0.2,0.4-0.4,0.3-0.7c-0.1-0.3-0.4-0.4-0.7-0.4c-2.2-0.3-4.5-0.7-6.7-1c-0.8-0.1-1.4-0.5-1.7-1.3c-1-2-2-4-3-6
				c-0.1-0.3-0.2-0.5-0.6-0.5c-0.3,0-0.4,0.3-0.5,0.5c-1,2-2,3.9-2.9,5.9c-0.4,0.8-0.9,1.4-1.8,1.5c-0.4,0-0.8,0.1-1.2,0.2
				C43,42.5,42.6,42.3,42.4,41.8z M30.8,54.5c0.1,0,0.2,0.1,0.3,0.1c4.1,0.9,8.2,1.8,12.3,2.8c0.2,0.1,0.4,0,0.5-0.2
				c0.5-0.5,1.1-1.1,1.6-1.6c1-1,2-2,3.1-3.1c-0.2,0-0.3-0.1-0.4-0.1c-2.1-0.5-4.3-1-6.4-1.5c-2.1-0.5-4.1-0.9-6.2-1.4
				c-0.5-0.1-1.1-0.2-1.6-0.4c-0.3-0.1-0.4,0-0.6,0.2c-1.4,1.5-2.9,2.9-4.4,4.4c-0.1,0.1-0.2,0.2-0.2,0.4
				C29.4,54.2,30.1,54.4,30.8,54.5z M63.4,48.3C63.4,48.3,63.4,48.3,63.4,48.3c-0.8-0.2-1.6-0.4-2.3-0.6c-0.1,0-0.2-0.1-0.3,0
				c-0.5,0.5-1,1-1.4,1.5C60.6,49,62,48.7,63.4,48.3z M40.7,49.3c-0.5-0.5-0.9-1-1.4-1.5c-0.1-0.1-0.2-0.1-0.4-0.1
				c-0.8,0.2-1.6,0.4-2.4,0.5c0,0,0,0,0,0.1C38,48.7,39.4,49,40.7,49.3z"/>
			<path class="st3" d="M38.9,70.6c0-0.6-0.1-0.8-0.7-0.9c-1.2-0.3-2.4-0.6-3.6-0.8c-0.4-0.1-0.5-0.2-0.5-0.6c0-3.7,0-7.3,0-11
				c0-0.4,0.1-0.4,0.5-0.4c3,0.7,6,1.3,9,2c0.5,0.1,0.8,0,1.1-0.3c1.4-1.4,2.8-2.8,4.2-4.3c0.1-0.1,0.2-0.2,0.4-0.4
				c0,0.2,0,0.4,0,0.6c0,2.4,0,4.8,0,7.3c0,0.6,0.1,0.8,0.7,1c0,0.6,0,1.2,0,1.8c-0.6,0.2-0.7,0.3-0.7,1c0,2.1,0,4.2,0,6.3
				c0,0.4-0.1,0.5-0.5,0.4c-2.4-0.6-4.7-1.1-7.1-1.6c-0.5-0.1-0.8,0-1.1,0.4C40.1,70.8,39.5,70.7,38.9,70.6z"/>
			<path class="st4" d="M42.4,41.8c0.2,0.5,0.6,0.6,1.1,0.5c0.4-0.1,0.8-0.1,1.2-0.2c0,0.2,0.1,0.4,0.2,0.6c0.6,1.3,1.3,2.5,2.4,3.5
				c2.1,2.1,4.6,3.1,7.6,3.2c0.8,0,1.5-0.1,2.3-0.2c-0.1,0.4-0.4,0.6-0.9,0.7c-2,0.4-4,0.9-5.9,1.3c-0.2,0-0.4,0-0.6,0
				c-2.1-0.5-4.2-1-6.3-1.4c-0.2,0-0.3,0-0.4-0.2c-0.2-0.4-0.5-0.7-0.8-1c-1.5-1.5-3.1-3-4.6-4.5c-0.2-0.2-0.4-0.4-0.3-0.7
				c0.1-0.3,0.4-0.3,0.6-0.4c0.6-0.1,1.2-0.2,1.9-0.3c0.6-0.1,0.7-0.3,0.8-0.8C41.2,42,41.8,41.9,42.4,41.8z"/>
			<path class="st2" d="M49.3,28.4c0-0.4,0-0.9,0-1.3c0-0.5,0.3-0.8,0.7-0.8c0.4,0,0.7,0.3,0.7,0.8c0,0.9,0,1.8,0,2.7
				c0,0.5-0.3,0.8-0.7,0.8c-0.4,0-0.7-0.3-0.7-0.8C49.3,29.3,49.3,28.8,49.3,28.4z"/>
			<path class="st2" d="M33.9,35.5c0.2,0,0.4,0.1,0.6,0.2c0.7,0.6,1.3,1.1,2,1.7c0.4,0.3,0.4,0.7,0.2,1c-0.3,0.3-0.7,0.3-1.1,0
				c-0.7-0.6-1.4-1.1-2.1-1.7c-0.3-0.2-0.4-0.5-0.2-0.8C33.3,35.6,33.6,35.5,33.9,35.5z"/>
			<path class="st2" d="M66.8,36.2c0,0.2-0.1,0.4-0.3,0.6c-0.7,0.6-1.4,1.2-2.1,1.7c-0.4,0.3-0.8,0.3-1,0c-0.3-0.3-0.2-0.7,0.1-1
				c0.7-0.6,1.4-1.2,2.1-1.8c0.2-0.2,0.5-0.3,0.8-0.1C66.7,35.7,66.8,35.9,66.8,36.2z"/>
			<path class="st2" d="M44.8,35.2c0,0.3-0.1,0.5-0.4,0.7c-0.3,0.1-0.6,0.1-0.8-0.1c-0.7-0.8-1.3-1.5-1.9-2.3
				c-0.2-0.3-0.2-0.7,0.1-0.9c0.3-0.3,0.7-0.3,0.9,0c0.7,0.7,1.3,1.5,1.9,2.3C44.8,34.9,44.8,35.1,44.8,35.2z"/>
			<path class="st2" d="M55.9,35.9c-0.3,0-0.5-0.1-0.6-0.4c-0.1-0.2-0.2-0.5,0-0.7c0.6-0.8,1.3-1.6,2-2.3c0.3-0.3,0.6-0.3,0.9,0
				c0.3,0.2,0.4,0.6,0.1,0.9c-0.6,0.8-1.3,1.6-2,2.4C56.2,35.9,56,35.9,55.9,35.9z"/>
			<path class="st5" d="M50,64.5c0-0.6,0-1.2,0-1.8c0.6-0.1,0.7-0.3,0.7-1c0-2.4,0-4.8,0-7.2c0-0.2,0-0.3,0-0.5
				c0.2,0,0.3,0.2,0.4,0.3c1.4,1.4,2.8,2.8,4.3,4.3c0.3,0.3,0.7,0.5,1.2,0.3c1-0.3,2-0.5,3-0.7c0.5-0.1,0.7-0.3,0.7-0.9
				c0.6,0,1.2-0.3,1.8-0.3c0.2,0.4,0.6,0.5,1.1,0.4c0.8-0.2,1.6-0.4,2.4-0.5c0.3-0.1,0.5-0.1,0.5,0.4c0,3.7,0,7.4,0,11
				c0,0.4-0.1,0.6-0.5,0.6c-4.8,1.1-9.5,2.2-14.3,3.3c-0.3,0.1-0.4,0-0.4-0.3c0-2.1,0-4.2,0-6.3C50.7,64.8,50.6,64.6,50,64.5z"/>
			<path class="st6" d="M57.1,49.3c-0.8,0-1.5,0.2-2.3,0.2c-3,0-5.5-1.1-7.6-3.2c-1-1-1.8-2.2-2.4-3.5c-0.1-0.2-0.2-0.4-0.2-0.6
				c0.9-0.1,1.5-0.7,1.8-1.5c0.9-2,1.9-3.9,2.9-5.9c0.1-0.2,0.2-0.5,0.5-0.5c0.4,0,0.5,0.3,0.6,0.5c1,2,2,4,3,6
				c0.4,0.7,0.9,1.2,1.7,1.3c2.2,0.3,4.5,0.7,6.7,1c0.3,0,0.6,0.1,0.7,0.4c0.1,0.3-0.1,0.5-0.3,0.7C60.6,45.9,58.9,47.6,57.1,49.3z"
				/>
			<path class="st4" d="M62,57c-0.6,0-1.2,0.3-1.8,0.3c-0.2-0.5-0.6-0.6-1.1-0.5c-0.9,0.2-1.7,0.4-2.6,0.6c-0.2,0-0.3,0-0.5-0.1
				c-1.6-1.6-3.1-3.1-4.7-4.7c0.8-0.2,1.6-0.4,2.3-0.5c4.1-0.9,8.3-1.9,12.4-2.8c0.2,0,0.3,0,0.5,0.1c1.5,1.5,3.1,3.1,4.6,4.6
				c0,0,0.1,0.1,0.1,0.2c-1.6,0.4-3.1,0.7-4.6,1c-1.3,0.3-2.6,0.6-4,0.9C62.1,56.1,62,56.3,62,57z"/>
			<path class="st4" d="M35.6,49.6c2.1,0.5,4.1,0.9,6.2,1.4c2.1,0.5,4.3,1,6.4,1.5c0.1,0,0.2,0.1,0.4,0.1c-1,1-2.1,2.1-3.1,3.1
				c-0.5,0.5-1.1,1.1-1.6,1.6c-0.2,0.2-0.3,0.2-0.5,0.2c-4.1-0.9-8.2-1.9-12.3-2.8c-0.1,0-0.2-0.1-0.3-0.1c0-0.1,0.1-0.1,0.1-0.2
				c1.4-1.5,2.8-2.9,4.3-4.4C35.4,49.9,35.5,49.8,35.6,49.6z"/>
			<path class="st5" d="M35.6,49.6c0,0.2-0.2,0.3-0.3,0.4c-1.4,1.5-2.8,2.9-4.3,4.4c-0.1,0.1-0.1,0.1-0.1,0.2
				c-0.7-0.2-1.4-0.3-2.1-0.5c0-0.2,0.2-0.3,0.2-0.4c1.5-1.5,2.9-2.9,4.4-4.4c0.2-0.2,0.4-0.3,0.6-0.2C34.5,49.3,35,49.4,35.6,49.6z
				"/>
			<path class="st5" d="M63.4,48.3c-1.4,0.3-2.7,0.6-4.1,0.9c0.5-0.5,0.9-1,1.4-1.5c0.1-0.1,0.2,0,0.3,0
				C61.8,47.9,62.6,48.1,63.4,48.3C63.4,48.3,63.4,48.3,63.4,48.3z"/>
			<path class="st5" d="M40.7,49.3c-1.3-0.3-2.7-0.6-4.1-0.9c0,0,0,0,0-0.1c0.8-0.2,1.6-0.4,2.4-0.5c0.1,0,0.3,0,0.4,0.1
				C39.8,48.3,40.3,48.8,40.7,49.3z"/>
		</g>
	</g>
</g>
</svg>
