<?xml version="1.0" encoding="utf-8"?>
<!-- Generator: Adobe Illustrator 28.0.0, SVG Export Plug-In . SVG Version: 6.00 Build 0)  -->
<svg version="1.1" id="Capa_1" xmlns="http://www.w3.org/2000/svg" xmlns:xlink="http://www.w3.org/1999/xlink" x="0px" y="0px"
	 viewBox="0 0 100 100" style="enable-background:new 0 0 100 100;" xml:space="preserve">
<style type="text/css">
	.st0{fill:#00ACFA;}
	.st1{fill:#FFC839;}
	.st2{fill:#030303;}
	.st3{fill:#C68469;}
	.st4{fill:#AE6D56;}
	.st5{fill:#FDEDCC;}
	.st6{fill:#005CD5;}
	.st7{fill:#FCB056;}
	.st8{fill:#FDBD63;}
	.st9{fill:#F9BC62;}
	.st10{fill:#F7C4B7;}
	.st11{fill:#ECACA0;}
	.st12{fill:#030302;}
	.st13{fill:#040302;}
	.st14{fill:#FCDACC;}
	.st15{fill:#FBC8BB;}
</style>
<g>
	<g>
		<path class="st0" d="M75.17,10.1H24.83c-8.14,0-14.73,6.6-14.73,14.73v50.34c0,8.14,6.6,14.73,14.73,14.73h50.34
			c8.14,0,14.73-6.6,14.73-14.73V24.83C89.9,16.7,83.3,10.1,75.17,10.1z"/>
		<circle class="st1" cx="50" cy="50" r="31.93"/>
	</g>
	<g id="mgTaFn.tif_00000007412714746680588680000000532218556377016488_">
		<g>
			<path class="st2" d="M57.56,64.18c0.72,0.62,1.35,1.28,1.89,2.02c1.06,1.44,1.79,3.02,2.1,4.79c0.25,1.48-0.87,2.84-2.38,2.88
				c-0.91,0.03-1.82,0.01-2.73,0.01c-5.11,0-10.21,0-15.32,0c-1.44,0-2.5-0.93-2.63-2.31c-0.06-0.59,0.13-1.14,0.3-1.69
				c0.64-2.16,1.82-3.99,3.5-5.49c0.07-0.06,0.16-0.09,0.17-0.23c-0.76-0.27-1.51-0.56-2.23-0.94c-2.91-1.54-4.43-3.99-4.79-7.22
				c-0.07-0.65-0.11-1.3-0.1-1.96c0-0.21-0.06-0.31-0.25-0.41c-2.78-1.44-3.08-4.96-0.59-6.82c0.25-0.19,0.24-0.39,0.24-0.63
				c0.06-4.5,1.73-8.29,5.03-11.35c0.41-0.38,0.86-0.72,1.31-1.06c0.17-0.13,0.22-0.2,0.03-0.37c-1.23-1.14-1.24-2.81,0.32-4.02
				c1.17-0.91,2.53-1.36,3.95-1.66c3.72-0.8,7.42-0.72,11.05,0.5c0.88,0.29,1.71,0.71,2.41,1.34c1.26,1.12,1.34,2.58,0.17,3.78
				c-0.23,0.24-0.18,0.32,0.05,0.49c3.33,2.5,5.36,5.8,6.06,9.91c0.14,0.84,0.2,1.69,0.19,2.54c0,0.26,0.08,0.4,0.29,0.55
				c2.42,1.8,2.13,5.37-0.56,6.76c-0.26,0.13-0.33,0.28-0.33,0.55c0.02,1.41-0.15,2.79-0.59,4.13c-0.84,2.56-2.63,4.23-5.04,5.31
				C58.62,63.78,58.12,63.96,57.56,64.18z M46.85,67.86c1.02,1.06,2.04,2.12,3.06,3.17c0.48,0.49,0.88,1.16,1.46,1.4
				c0.58,0.24,1.34,0.06,2.02,0.07c0.47,0,0.95,0,1.42,0c0.03-0.05,0.05-0.1,0.08-0.15c-0.47-0.43-0.96-0.84-1.4-1.3
				c-1.74-1.76-3.46-3.53-5.2-5.29c-0.34-0.49-0.76-0.8-1.41-0.8c-0.83,0-1.65-0.18-2.47-0.33c-0.2-0.04-0.32,0.06-0.44,0.17
				c-0.12,0.12,0.03,0.19,0.1,0.25C45,65.98,45.92,66.92,46.85,67.86z M46.2,69.22c-1.06-1.1-2.13-2.19-3.18-3.3
				c-0.21-0.22-0.3-0.07-0.42,0.06c-1.37,1.45-2.3,3.14-2.69,5.11c-0.15,0.75,0.33,1.39,1.08,1.4c1.47,0.02,2.94,0,4.41-0.01
				c1.32,0,2.63,0,3.95,0c0.03-0.05,0.06-0.1,0.1-0.16C48.36,71.29,47.28,70.26,46.2,69.22z M45.39,63.37
				c0.18,0.04,0.35,0.08,0.53,0.11c2.59,0.34,5.18,0.35,7.77,0.06c1.95-0.21,3.86-0.65,5.6-1.61c1.78-0.98,3.05-2.38,3.61-4.36
				c0.64-2.22,0.51-4.48,0.21-6.73c-0.17-1.26-0.44-2.51-0.76-3.74c-0.17-0.66,0.12-1.03,0.8-1.04c0.12,0,0.25-0.02,0.36,0.01
				c0.35,0.06,0.43-0.07,0.42-0.41c-0.11-3.01-1.07-5.71-2.93-8.07c-2.58-3.27-5.99-5.06-10.15-5.35c-1.77-0.12-3.51,0.08-5.19,0.72
				c-0.12,0.03-0.24,0.05-0.35,0.09c-5.21,1.83-8.94,6.88-9.16,12.39c-0.03,0.64-0.03,0.64,0.6,0.63c0.9-0.01,1.15,0.31,0.93,1.18
				c-0.64,2.48-1.06,4.99-0.95,7.56c0.06,1.47,0.27,2.92,1.02,4.2C39.45,61.91,42.29,62.88,45.39,63.37z M50.29,28.55
				c-1.71,0.01-3.16,0.14-4.59,0.47c-1.23,0.29-2.44,0.64-3.45,1.45c-0.86,0.69-0.85,1.35-0.04,2.08c0.23,0.2,0.4,0.22,0.68,0.07
				c2.15-1.15,4.45-1.75,6.89-1.79c2.65-0.04,5.14,0.56,7.47,1.81c0.11,0.06,0.21,0.16,0.38,0.1c0.84-0.33,1.09-1.37,0.47-2.03
				c-0.47-0.49-1.06-0.8-1.68-1.06C54.36,28.82,52.22,28.59,50.29,28.55z M58.08,72.5c0.32,0,0.64,0.01,0.96,0
				c0.82-0.02,1.31-0.63,1.14-1.44c-0.49-2.36-1.69-4.29-3.51-5.85c-0.48-0.42-0.95-0.74-1.62-0.47c-0.15,0.06-0.33,0.08-0.49,0.08
				c-0.28,0-0.41,0.12-0.53,0.38c-0.39,0.85-1,1.52-1.84,1.95c-0.31,0.16-0.36,0.24-0.09,0.52c1.3,1.3,2.6,2.6,3.84,3.95
				C56.53,72.26,57.13,72.76,58.08,72.5z M64.67,52.17c0.92-0.48,1.39-1.62,1.16-2.71c-0.22-1-1.07-1.85-1.93-1.9
				C64.25,49.07,64.53,50.59,64.67,52.17z M36.19,47.53c-1.09,0.21-1.91,1.19-2,2.32c-0.07,0.88,0.52,2.12,1.23,2.28
				C35.55,50.58,35.84,49.06,36.19,47.53z M52.55,65.01c-1,0.1-1.92,0.09-2.9,0.19c0.28,0.35,0.62,0.63,0.94,0.93
				c0.1,0.09,0.2,0.13,0.33,0.09C51.56,66,52.1,65.66,52.55,65.01z"/>
			<path class="st3" d="M45.67,32.94c1.68-0.64,3.42-0.84,5.19-0.72c4.16,0.29,7.57,2.07,10.15,5.35c1.86,2.36,2.82,5.06,2.93,8.07
				c0.01,0.35-0.07,0.48-0.42,0.41c-0.12-0.02-0.24-0.01-0.36-0.01c-0.68,0.02-0.97,0.38-0.8,1.04c0.32,1.23,0.59,2.48,0.76,3.74
				c0.3,2.25,0.42,4.5-0.21,6.73c-0.57,1.98-1.83,3.39-3.61,4.36c-1.75,0.96-3.65,1.39-5.6,1.61c-2.59,0.28-5.18,0.28-7.77-0.06
				c-0.18-0.02-0.36-0.07-0.53-0.11c-0.13-0.38-0.48-0.57-0.73-0.85c-1.08-1.22-1.47-2.69-1.44-4.27c0.02-1.07,0.36-2.07,0.99-2.96
				c0.55-0.02,1.09-0.09,1.6-0.3c2.82-1.16,5.63-1.12,8.47-0.01c2.41,0.94,4.82-0.39,5.42-2.89c0.44-1.82,0.63-3.68,0.71-5.54
				c0.03-0.55-0.14-0.78-0.66-0.93c-0.57-0.16-1.13-0.36-1.66-0.61c-3.04-1.41-5.4-3.61-7.36-6.29c-0.46-0.63-0.92-0.64-1.37-0.01
				c-0.7,0.98-1.47,1.9-2.33,2.74c-1.55,1.52-3.25,2.83-5.28,3.66c-0.69-1.65-0.85-3.37-0.51-5.11c0.52-2.64,1.86-4.82,3.94-6.55
				C45.35,33.3,45.63,33.23,45.67,32.94z M50.03,57.54c0.77-0.03,1.43-0.29,1.95-0.85c0.32-0.33,0.32-0.73,0.04-1.01
				c-0.28-0.28-0.64-0.27-0.98,0.01c-0.75,0.63-1.27,0.63-2,0.01c-0.34-0.29-0.7-0.3-0.98-0.03c-0.29,0.28-0.28,0.67,0.03,1.01
				C48.62,57.24,49.28,57.51,50.03,57.54z"/>
			<path class="st4" d="M44.21,55.3c-0.63,0.89-0.96,1.89-0.99,2.96c-0.03,1.58,0.36,3.05,1.44,4.27c0.25,0.28,0.6,0.47,0.73,0.85
				c-3.1-0.49-5.94-1.46-7.64-4.38c-0.75-1.29-0.96-2.74-1.02-4.2c-0.1-2.57,0.31-5.08,0.95-7.56c0.22-0.87-0.02-1.18-0.93-1.18
				c-0.62,0-0.62,0-0.6-0.63c0.22-5.52,3.95-10.56,9.16-12.39c0.11-0.04,0.23-0.06,0.35-0.09c-0.04,0.29-0.31,0.36-0.49,0.5
				c-2.07,1.73-3.42,3.9-3.94,6.55c-0.34,1.74-0.18,3.46,0.51,5.11c-0.46,0.23-0.95,0.39-1.45,0.52c-0.44,0.12-0.66,0.39-0.64,0.86
				c0.09,1.82,0.24,3.63,0.67,5.4C40.86,54.03,42.04,55.06,44.21,55.3z"/>
			<path class="st5" d="M50.29,28.55c1.93,0.03,4.08,0.27,6.12,1.1c0.62,0.25,1.21,0.56,1.68,1.06c0.62,0.65,0.38,1.7-0.47,2.03
				c-0.16,0.06-0.26-0.03-0.38-0.1c-2.34-1.25-4.83-1.85-7.47-1.81c-2.44,0.04-4.74,0.63-6.89,1.79c-0.28,0.15-0.45,0.13-0.68-0.07
				c-0.81-0.72-0.82-1.39,0.04-2.08c1.01-0.81,2.22-1.16,3.45-1.45C47.12,28.69,48.57,28.56,50.29,28.55z"/>
			<path class="st6" d="M58.08,72.5c-0.95,0.26-1.55-0.24-2.15-0.89c-1.25-1.35-2.55-2.65-3.84-3.95c-0.27-0.27-0.22-0.36,0.09-0.52
				c0.83-0.43,1.45-1.1,1.84-1.95c0.12-0.26,0.26-0.38,0.53-0.38c0.16,0,0.34-0.02,0.49-0.08c0.67-0.27,1.14,0.05,1.62,0.47
				c1.82,1.57,3.02,3.5,3.51,5.85c0.17,0.81-0.32,1.41-1.14,1.44C58.72,72.51,58.4,72.5,58.08,72.5z"/>
			<path class="st7" d="M45.39,72.48c-1.47,0-2.94,0.02-4.41,0.01c-0.76-0.01-1.23-0.65-1.08-1.4c0.39-1.97,1.32-3.66,2.69-5.11
				c0.13-0.13,0.22-0.28,0.42-0.06c1.05,1.11,2.12,2.2,3.18,3.3c-0.08,0.04-0.14,0.11-0.17,0.2C45.68,70.41,45.47,71.43,45.39,72.48
				z"/>
			<path class="st1" d="M48.3,65.76c1.73,1.77,3.46,3.53,5.2,5.29c0.45,0.45,0.93,0.87,1.4,1.3c-0.03,0.05-0.05,0.1-0.08,0.15
				c-0.47,0-0.95,0-1.42,0c-0.68,0-1.44,0.18-2.02-0.07c-0.58-0.24-0.99-0.91-1.46-1.4c-1.02-1.05-2.04-2.11-3.06-3.17
				C47.11,67.01,47.7,66.38,48.3,65.76z"/>
			<path class="st8" d="M45.39,72.48c0.07-1.05,0.29-2.07,0.64-3.06c0.03-0.09,0.09-0.16,0.17-0.2c1.08,1.04,2.16,2.07,3.24,3.11
				c-0.03,0.05-0.06,0.1-0.1,0.16C48.03,72.48,46.71,72.48,45.39,72.48z"/>
			<path class="st9" d="M48.3,65.76c-0.6,0.62-1.19,1.25-1.45,2.1c-0.92-0.94-1.85-1.87-2.77-2.81c-0.06-0.06-0.22-0.13-0.1-0.25
				c0.11-0.11,0.24-0.21,0.44-0.17c0.82,0.16,1.64,0.33,2.47,0.33C47.54,64.96,47.96,65.26,48.3,65.76z"/>
			<path class="st10" d="M64.67,52.17c-0.14-1.58-0.42-3.1-0.77-4.6c0.85,0.04,1.71,0.9,1.93,1.9
				C66.06,50.54,65.58,51.69,64.67,52.17z"/>
			<path class="st11" d="M36.19,47.53c-0.35,1.53-0.64,3.05-0.77,4.6c-0.71-0.16-1.3-1.4-1.23-2.28
				C34.28,48.72,35.1,47.74,36.19,47.53z"/>
			<path class="st10" d="M52.55,65.01c-0.44,0.65-0.98,1-1.63,1.2c-0.13,0.04-0.22,0-0.33-0.09c-0.32-0.29-0.66-0.57-0.94-0.93
				C50.62,65.1,51.54,65.1,52.55,65.01z"/>
			<path class="st12" d="M44.21,55.3c-2.17-0.24-3.35-1.27-3.87-3.41c-0.43-1.77-0.59-3.58-0.67-5.4c-0.02-0.47,0.21-0.74,0.64-0.86
				c0.5-0.14,0.99-0.29,1.45-0.52c2.03-0.83,3.73-2.14,5.28-3.66c0.86-0.84,1.63-1.76,2.33-2.74c0.45-0.63,0.91-0.62,1.37,0.01
				c1.96,2.68,4.32,4.89,7.36,6.29c0.54,0.25,1.09,0.45,1.66,0.61c0.53,0.15,0.69,0.38,0.66,0.93c-0.08,1.87-0.27,3.72-0.71,5.54
				c-0.61,2.5-3.02,3.83-5.42,2.89c-2.84-1.11-5.65-1.15-8.47,0.01C45.3,55.21,44.76,55.28,44.21,55.3z M46.02,44.21
				c-1.46,1.06-3.01,1.98-4.73,2.56c-0.19,0.06-0.22,0.16-0.21,0.33c0.08,1.66,0.27,3.3,0.7,4.9c0.41,1.51,2.03,2.31,3.44,1.73
				c0.1-0.03,0.2-0.05,0.3-0.09c1.15-0.44,2.34-0.74,3.57-0.84c1.93-0.16,3.77,0.17,5.56,0.87c1.73,0.67,3.26-0.12,3.72-1.91
				c0.38-1.49,0.55-3.01,0.64-4.54c0.02-0.3-0.07-0.43-0.34-0.52c-1.38-0.46-2.64-1.14-3.83-1.96c-1.75-1.21-3.26-2.67-4.57-4.34
				c-0.12-0.15-0.19-0.35-0.41-0.06C48.75,41.8,47.43,43.05,46.02,44.21z"/>
			<path class="st13" d="M50.03,57.54c-0.75-0.03-1.41-0.3-1.94-0.86c-0.31-0.33-0.32-0.73-0.03-1.01c0.28-0.27,0.64-0.26,0.98,0.03
				c0.74,0.62,1.25,0.62,2-0.01c0.34-0.29,0.7-0.29,0.98-0.01c0.28,0.28,0.28,0.68-0.04,1.01C51.46,57.24,50.8,57.51,50.03,57.54z"
				/>
			<path class="st14" d="M46.02,44.21c1.41-1.16,2.73-2.41,3.84-3.87c0.22-0.29,0.3-0.09,0.41,0.06c1.32,1.67,2.83,3.13,4.57,4.34
				c1.19,0.82,2.45,1.51,3.83,1.96c0.28,0.09,0.36,0.22,0.34,0.52c-0.09,1.53-0.27,3.05-0.64,4.54c-0.45,1.79-1.99,2.58-3.72,1.91
				c-1.79-0.7-3.64-1.03-5.56-0.87c-1.23,0.1-2.42,0.41-3.57,0.84c-0.1,0.04-0.2,0.06-0.3,0.09c-0.11-0.71-0.37-1.39-0.37-2.12
				c0.27-0.74,0.37-1.46-0.09-2.17c0.05-1.24,0.3-2.44,0.67-3.63C45.59,45.27,45.91,44.77,46.02,44.21z M56.42,50.6
				C56.42,50.6,56.42,50.6,56.42,50.6c0-0.23,0.03-0.46-0.01-0.68c-0.06-0.35-0.28-0.57-0.65-0.58c-0.39-0.01-0.65,0.21-0.69,0.58
				c-0.04,0.42-0.04,0.85,0,1.27c0.03,0.38,0.29,0.6,0.67,0.6c0.38,0,0.62-0.23,0.67-0.61C56.44,50.99,56.42,50.79,56.42,50.6z"/>
			<path class="st15" d="M44.84,51.61c0,0.73,0.26,1.41,0.37,2.12c-1.41,0.58-3.03-0.22-3.44-1.73c-0.43-1.6-0.62-3.24-0.7-4.9
				c-0.01-0.17,0.02-0.27,0.21-0.33c1.72-0.58,3.27-1.5,4.73-2.56c-0.11,0.57-0.43,1.06-0.6,1.61c-0.37,1.18-0.62,2.39-0.67,3.63
				c-0.71-0.24-1.08,0.02-1.09,0.75c0,0.24,0,0.48,0,0.72C43.67,51.72,44.13,51.99,44.84,51.61z"/>
			<path class="st2" d="M56.42,50.6c0,0.2,0.02,0.4,0,0.59c-0.05,0.38-0.29,0.6-0.67,0.61c-0.38,0-0.64-0.22-0.67-0.6
				c-0.04-0.42-0.04-0.85,0-1.27c0.04-0.37,0.3-0.59,0.69-0.58c0.37,0.01,0.59,0.23,0.65,0.58C56.45,50.14,56.42,50.37,56.42,50.6
				C56.42,50.6,56.42,50.6,56.42,50.6z"/>
			<path class="st2" d="M44.84,51.61c-0.71,0.38-1.18,0.11-1.18-0.69c0-0.24,0-0.48,0-0.72c0.01-0.73,0.38-0.99,1.09-0.75
				C45.21,50.15,45.11,50.88,44.84,51.61z"/>
		</g>
	</g>
</g>
</svg>
