<?xml version="1.0" encoding="utf-8"?>
<!-- Generator: Adobe Illustrator 28.0.0, SVG Export Plug-In . SVG Version: 6.00 Build 0)  -->
<svg version="1.1" id="Capa_1" xmlns="http://www.w3.org/2000/svg" xmlns:xlink="http://www.w3.org/1999/xlink" x="0px" y="0px"
	 viewBox="0 0 100 100" style="enable-background:new 0 0 100 100;" xml:space="preserve">
<style type="text/css">
	.st0{fill:#00ACFA;}
	.st1{fill:#FFC839;}
	.st2{fill:#F5584D;}
	.st3{fill:#020202;}
	.st4{fill:#E84642;}
	.st5{fill:#005CD5;}
	.st6{fill:#D6EDFD;}
	.st7{fill:#37CB92;}
	.st8{fill:#F6F8F9;}
</style>
<g>
	<g>
		<path class="st0" d="M75.17,10.1H24.83c-8.14,0-14.73,6.6-14.73,14.73v50.34c0,8.14,6.6,14.73,14.73,14.73h50.34
			c8.14,0,14.73-6.6,14.73-14.73V24.83C89.9,16.7,83.3,10.1,75.17,10.1z"/>
		<circle class="st1" cx="50" cy="50" r="31.93"/>
	</g>
	<g id="AgZw2Z.tif">
		<g>
			<path class="st2" d="M51.75,34.63c0.41,0,0.83,0,1.24,0c0.09,0.45,0.38,0.61,0.82,0.61c2.42-0.01,4.84,0,7.25,0
				c0.9,0,1.04,0.14,1.04,1.02c0,9.36,0,18.72,0,28.08c0,0.17-0.01,0.34-0.01,0.51c-0.21,0.14-0.44,0.17-0.68,0.17
				c-9.77,0-19.55,0-29.32,0c-0.25,0-0.48-0.03-0.68-0.17c0-0.13-0.01-0.25-0.01-0.38c0-9.44,0-18.89,0-28.33c0-0.07,0-0.14,0-0.21
				c0.02-0.44,0.25-0.68,0.69-0.69c1.57-0.01,3.14,0,4.71-0.01c0.23,0,0.29,0.07,0.29,0.29c-0.01,0.55-0.03,1.1,0,1.65
				c0.02,0.35-0.08,0.38-0.4,0.32c-1.28-0.26-2.49,0.85-2.35,2.14c0.11,1.08,1.02,1.9,2.06,1.85c1.11-0.05,1.95-0.92,1.96-2.05
				c0.01-1.29,0.01-2.57,0-3.86c0-0.28,0.07-0.36,0.35-0.35c1.03,0.02,2.06,0,3.1,0.01c0.63,0,0.57-0.13,0.59,0.58
				c0.01,0.27-0.02,0.36-0.35,0.3c-1.42-0.28-2.66,0.97-2.37,2.35c0.23,1.06,1.12,1.71,2.21,1.61c1-0.09,1.76-0.92,1.79-2.02
				c0.02-0.81,0.02-1.61,0-2.42c-0.01-0.35,0.11-0.42,0.43-0.41c2.26,0.01,4.52,0,6.79,0.01C51.33,35.24,51.63,35.09,51.75,34.63z
				 M50.77,59.34c0.52,0,1.05-0.04,1.57,0.01c0.97,0.09,1.5-0.92,1.06-1.7c-0.6-1.07-1.09-2.2-1.62-3.3
				c-0.06-0.13-0.17-0.23,0.07-0.36c0.67-0.37,0.81-0.89,0.47-1.56c-0.66-1.29-1.33-2.59-2-3.88c-0.09-0.18-0.12-0.29,0.07-0.46
				c0.45-0.39,0.52-0.86,0.23-1.37c-0.98-1.73-1.97-3.46-2.98-5.18c-0.43-0.74-1.41-0.74-1.84,0c-1.01,1.73-2.01,3.47-3,5.21
				c-0.26,0.46-0.19,0.98,0.21,1.31c0.25,0.2,0.18,0.34,0.07,0.55c-0.66,1.28-1.32,2.56-1.98,3.84c-0.31,0.6-0.17,1.21,0.39,1.5
				c0.29,0.15,0.23,0.27,0.12,0.48c-0.54,1.09-1.07,2.18-1.59,3.27c-0.43,0.89,0.03,1.64,1.02,1.65c1.09,0.01,2.18,0.01,3.26-0.01
				c0.3,0,0.43,0.06,0.41,0.39c-0.03,0.52-0.01,1.05-0.01,1.57c0.01,0.69,0.42,1.13,1.09,1.15c0.64,0.02,1.27,0.02,1.91,0
				c0.66-0.03,1.06-0.46,1.07-1.13c0.01-0.51,0.02-1.02,0-1.53c-0.02-0.34,0.06-0.48,0.43-0.46C49.73,59.37,50.25,59.34,50.77,59.34
				z M56.82,42.63c0-0.82,0-1.64,0-2.46c0-0.12-0.07-0.28,0.07-0.34c0.12-0.05,0.23,0.08,0.33,0.15c0.76,0.58,1.04,1.37,1.07,2.29
				c0.01,0.45,0.29,0.73,0.67,0.71c0.37-0.02,0.6-0.29,0.6-0.73c0.03-1.94-1.22-3.57-3.07-4.01c-0.61-0.15-0.94,0.09-0.95,0.71
				c-0.01,1.26-0.02,2.52,0,3.77c0.01,0.4-0.05,0.53-0.5,0.45c-1.32-0.22-2.49,1.03-2.23,2.34c0.21,1.04,1.11,1.74,2.14,1.66
				c1.04-0.08,1.84-0.94,1.87-2.05C56.83,44.3,56.82,43.47,56.82,42.63z"/>
			<path class="st3" d="M62.09,64.84c0-0.17,0.01-0.34,0.01-0.51c0-9.36,0-18.72,0-28.08c0-0.88-0.14-1.02-1.04-1.02
				c-2.42,0-4.84,0-7.25,0c-0.45,0-0.73-0.16-0.82-0.61c0.11-0.52,0.28-0.67,0.8-0.67c2.53,0,5.06-0.01,7.59,0c1.19,0,1.98,0.81,2,2
				c0,0.38-0.11,0.84,0.06,1.12c0.16,0.24,0.65,0.26,0.98,0.4c4.91,1.98,7.96,5.55,8.93,10.76c1.26,6.8-2.9,13.57-9.54,15.67
				c-0.36,0.11-0.47,0.26-0.43,0.61c0.03,0.27,0.01,0.54,0,0.81c-0.02,1.06-0.82,1.88-1.88,1.89c-1.6,0.02-3.2,0.01-4.79,0.01
				c-5.57,0-11.14,0-16.71,0c-0.62,0-0.76-0.11-0.89-0.66c0.18-0.52,0.31-0.61,0.91-0.61c7.04,0,14.07,0,21.11,0
				c0.13,0,0.26,0.01,0.38,0c0.36-0.03,0.57-0.24,0.6-0.59C62.11,65.19,62.09,65.01,62.09,64.84z M63.38,62.68
				c0.13-0.03,0.23-0.04,0.32-0.07c1.54-0.52,2.95-1.3,4.16-2.4c3.61-3.26,5.1-7.32,4.15-12.1c-0.93-4.66-3.78-7.79-8.2-9.5
				c-0.34-0.13-0.44-0.07-0.43,0.31c0.01,1.92,0.03,3.85-0.01,5.77c-0.01,0.49,0.16,0.79,0.51,1.1c1.46,1.27,2.18,2.92,2.17,4.83
				c-0.01,2.01-0.81,3.7-2.39,4.99c-0.21,0.17-0.29,0.34-0.29,0.61c0.02,0.96,0.01,1.92,0.01,2.88
				C63.38,60.28,63.38,61.47,63.38,62.68z M63.4,54.08c2.06-2.24,1.53-5.54,0-6.91C63.4,49.45,63.4,51.73,63.4,54.08z"/>
			<path class="st3" d="M51.75,34.63c-0.12,0.46-0.42,0.61-0.88,0.61c-2.26-0.01-4.52,0-6.79-0.01c-0.32,0-0.44,0.06-0.43,0.41
				c0.03,0.8,0.03,1.61,0,2.42c-0.03,1.1-0.79,1.94-1.79,2.02c-1.09,0.09-1.98-0.56-2.21-1.61c-0.29-1.37,0.95-2.63,2.37-2.35
				c0.32,0.06,0.35-0.03,0.35-0.3c-0.02-0.72,0.04-0.58-0.59-0.58c-1.03-0.01-2.06,0.01-3.1-0.01c-0.28,0-0.35,0.08-0.35,0.35
				c0.01,1.29,0.01,2.57,0,3.86c-0.01,1.12-0.85,2-1.96,2.05c-1.04,0.05-1.95-0.77-2.06-1.85c-0.13-1.3,1.07-2.4,2.35-2.14
				c0.32,0.06,0.42,0.03,0.4-0.32c-0.03-0.55-0.02-1.1,0-1.65c0.01-0.22-0.06-0.29-0.29-0.29c-1.57,0.01-3.14,0-4.71,0.01
				c-0.44,0-0.67,0.25-0.69,0.69c0,0.07,0,0.14,0,0.21c0,9.44,0,18.89,0,28.33c0,0.13,0.01,0.25,0.01,0.38
				c-0.05,0.93,0.11,1.1,1.02,1.1c1.54,0,3.07,0.01,4.61,0c0.45,0,0.73,0.17,0.82,0.62c-0.12,0.53-0.28,0.66-0.81,0.66
				c-1.65,0-3.31,0.01-4.96,0c-1.16-0.01-1.96-0.82-1.96-1.99c0-9.77,0-19.54,0-29.3c0-1.16,0.82-1.97,1.98-1.98
				c1.53-0.01,3.05-0.01,4.58,0.01c0.35,0,0.42-0.1,0.4-0.42c-0.03-0.47-0.01-0.93,0-1.4c0.01-0.55,0.32-0.94,0.85-1.07
				c1.47-0.34,2.94-0.68,4.41-1c0.72-0.16,1.3,0.34,1.32,1.1c0.02,0.81,0.02,1.61,0,2.42c-0.01,0.3,0.08,0.37,0.37,0.37
				c2.28-0.01,4.55-0.01,6.83-0.01C51.45,33.96,51.58,34.05,51.75,34.63z M40.34,33.95c0.58,0,1.16-0.01,1.73,0.01
				c0.24,0.01,0.32-0.06,0.31-0.3c-0.02-0.65-0.02-1.3,0-1.95c0.01-0.27-0.06-0.34-0.33-0.27c-0.8,0.2-1.62,0.37-2.42,0.56
				c-0.42,0.1-1,0.08-1.21,0.35c-0.21,0.28-0.06,0.84-0.07,1.27c0,0.03,0,0.06,0,0.08c-0.03,0.21,0.07,0.26,0.26,0.25
				C39.18,33.95,39.76,33.95,40.34,33.95z M37.06,39.46c0-0.41-0.36-0.76-0.76-0.74c-0.39,0.01-0.71,0.34-0.71,0.74
				c0,0.39,0.32,0.73,0.71,0.74C36.71,40.21,37.07,39.87,37.06,39.46z M41.62,38.81c0.41,0.01,0.74-0.3,0.75-0.7
				c0.01-0.42-0.32-0.76-0.74-0.76c-0.4,0-0.73,0.34-0.73,0.73C40.89,38.48,41.21,38.8,41.62,38.81z"/>
			<path class="st4" d="M37.85,66.56c-0.09-0.45-0.38-0.62-0.82-0.62c-1.54,0.01-3.07,0-4.61,0c-0.91,0-1.07-0.17-1.02-1.1
				c0.21,0.14,0.44,0.17,0.68,0.17c9.77,0,19.55,0,29.32,0c0.25,0,0.48-0.03,0.68-0.17c0,0.17,0.03,0.34,0.01,0.51
				c-0.04,0.36-0.25,0.56-0.6,0.59c-0.13,0.01-0.25,0-0.38,0c-7.04,0-14.07,0-21.11,0c-0.6,0-0.73,0.09-0.91,0.61
				C38.68,66.56,38.26,66.56,37.85,66.56z"/>
			<path class="st3" d="M50.77,59.34c-0.52,0-1.05,0.03-1.57-0.01c-0.37-0.02-0.45,0.12-0.43,0.46c0.03,0.51,0.01,1.02,0,1.53
				c-0.01,0.66-0.41,1.1-1.07,1.13c-0.64,0.02-1.27,0.02-1.91,0c-0.68-0.02-1.08-0.46-1.09-1.15c-0.01-0.52-0.02-1.05,0.01-1.57
				c0.02-0.33-0.1-0.4-0.41-0.39c-1.09,0.02-2.18,0.01-3.26,0.01c-0.98-0.01-1.45-0.76-1.02-1.65c0.53-1.09,1.06-2.18,1.59-3.27
				c0.1-0.21,0.16-0.33-0.12-0.48c-0.56-0.28-0.7-0.9-0.39-1.5c0.66-1.28,1.31-2.56,1.98-3.84c0.11-0.21,0.18-0.35-0.07-0.55
				c-0.4-0.32-0.47-0.85-0.21-1.31c0.99-1.74,1.98-3.48,3-5.21c0.43-0.74,1.41-0.73,1.84,0c1.01,1.72,1.99,3.45,2.98,5.18
				c0.29,0.52,0.22,0.98-0.23,1.37c-0.19,0.16-0.16,0.28-0.07,0.46c0.67,1.29,1.34,2.58,2,3.88c0.34,0.67,0.2,1.19-0.47,1.56
				c-0.23,0.13-0.13,0.23-0.07,0.36c0.53,1.11,1.03,2.23,1.62,3.3c0.44,0.79-0.08,1.8-1.06,1.7C51.82,59.3,51.3,59.34,50.77,59.34z
				 M47.49,60.18c0.07-0.85,0.07-0.85-0.75-0.85c-0.82,0-0.82,0-0.74,0.85c0,0.14,0,0.28,0,0.42c0,0.55,0,0.55,0.56,0.55
				C47.51,61.16,47.51,61.16,47.49,60.18z M51.05,52.78c-0.07-0.15-0.13-0.28-0.19-0.4c-0.7-1.36-1.39-2.71-2.09-4.07
				c-0.4-0.78-0.3-1.02,0.54-1.32c-0.86-1.49-1.71-2.98-2.59-4.5c-0.89,1.55-1.74,3.03-2.6,4.53c0.79,0.21,0.94,0.54,0.59,1.22
				c-0.7,1.37-1.41,2.74-2.11,4.11c-0.07,0.13-0.18,0.26-0.17,0.44c0.05,0.01,0.1,0.02,0.16,0.03c0.8,0.04,1.03,0.42,0.69,1.14
				c-0.39,0.8-0.78,1.6-1.17,2.4c-0.27,0.55-0.53,1.11-0.81,1.7c0.12,0.01,0.18,0.02,0.25,0.02c3.42,0,6.84,0,10.26,0.01
				c0.31,0,0.33-0.08,0.2-0.33c-0.62-1.27-1.24-2.54-1.85-3.81c-0.33-0.69-0.09-1.1,0.67-1.13C50.88,52.8,50.95,52.79,51.05,52.78z"
				/>
			<path class="st3" d="M56.82,42.63c0,0.83,0.01,1.67,0,2.5c-0.03,1.11-0.82,1.98-1.87,2.05c-1.03,0.08-1.93-0.62-2.14-1.66
				c-0.26-1.3,0.91-2.56,2.23-2.34c0.45,0.07,0.51-0.05,0.5-0.45c-0.02-1.26-0.01-2.52,0-3.77c0.01-0.61,0.34-0.85,0.95-0.71
				c1.85,0.44,3.1,2.07,3.07,4.01c-0.01,0.43-0.23,0.71-0.6,0.73c-0.38,0.02-0.66-0.27-0.67-0.71c-0.03-0.92-0.31-1.72-1.07-2.29
				c-0.1-0.07-0.2-0.21-0.33-0.15c-0.14,0.06-0.07,0.22-0.07,0.34C56.82,40.99,56.82,41.81,56.82,42.63z M54.82,45.91
				c0.39-0.01,0.72-0.35,0.72-0.74c0-0.4-0.36-0.75-0.76-0.74c-0.39,0.01-0.72,0.35-0.72,0.74C54.05,45.58,54.41,45.93,54.82,45.91z
				"/>
			<path class="st5" d="M63.38,62.68c0-1.21,0-2.4,0-3.58c0-0.96,0.01-1.92-0.01-2.88c0-0.27,0.08-0.44,0.29-0.61
				c1.58-1.29,2.38-2.98,2.39-4.99c0.01-1.91-0.71-3.56-2.17-4.83c-0.36-0.31-0.52-0.61-0.51-1.1c0.03-1.92,0.02-3.85,0.01-5.77
				c0-0.37,0.1-0.44,0.43-0.31c4.42,1.71,7.27,4.84,8.2,9.5c0.95,4.78-0.54,8.84-4.15,12.1c-1.21,1.09-2.62,1.87-4.16,2.4
				C63.61,62.64,63.51,62.65,63.38,62.68z M69.99,50.59c0-0.32,0.02-0.65,0-0.97c-0.03-0.55-0.14-1.09-0.28-1.62
				c-0.1-0.4-0.41-0.6-0.74-0.54c-0.36,0.08-0.55,0.38-0.5,0.81c0.01,0.07,0.03,0.14,0.04,0.21c0.64,3.06-0.02,5.79-2.05,8.18
				c-0.4,0.47-0.85,0.87-1.32,1.24c-0.39,0.31-0.47,0.66-0.22,0.98c0.25,0.32,0.58,0.33,1,0.03c0.05-0.03,0.09-0.07,0.13-0.1
				C68.64,56.68,69.96,53.95,69.99,50.59z M65.41,42.06c-0.26,0.02-0.48,0.13-0.57,0.38c-0.11,0.3-0.06,0.59,0.22,0.8
				c1.03,0.76,1.83,1.71,2.49,2.8c0.21,0.35,0.56,0.42,0.87,0.22c0.32-0.2,0.41-0.53,0.21-0.88c-0.7-1.23-1.62-2.27-2.76-3.13
				C65.73,42.14,65.58,42.07,65.41,42.06z"/>
			<path class="st6" d="M63.4,54.08c0-2.35,0-4.63,0-6.91C64.93,48.54,65.46,51.84,63.4,54.08z"/>
			<path class="st6" d="M40.34,33.95c-0.58,0-1.16-0.01-1.73,0c-0.2,0-0.3-0.04-0.26-0.25c0-0.03,0-0.06,0-0.08
				c0.01-0.44-0.14-1,0.07-1.27c0.21-0.27,0.79-0.25,1.21-0.35c0.81-0.19,1.62-0.36,2.42-0.56c0.28-0.07,0.34,0,0.33,0.27
				c-0.02,0.65-0.02,1.3,0,1.95c0.01,0.25-0.08,0.31-0.31,0.3C41.49,33.94,40.91,33.95,40.34,33.95z"/>
			<path class="st2" d="M37.06,39.46c0,0.4-0.36,0.75-0.76,0.74c-0.39-0.01-0.71-0.35-0.71-0.74c0-0.4,0.32-0.73,0.71-0.74
				C36.71,38.71,37.06,39.06,37.06,39.46z"/>
			<path class="st2" d="M41.62,38.81c-0.41-0.01-0.73-0.33-0.72-0.73c0-0.39,0.34-0.73,0.73-0.73c0.42,0,0.75,0.34,0.74,0.76
				C42.36,38.51,42.03,38.82,41.62,38.81z"/>
			<path class="st7" d="M51.05,52.78c-0.1,0.01-0.16,0.02-0.23,0.02c-0.75,0.03-1,0.44-0.67,1.13c0.61,1.27,1.23,2.54,1.85,3.81
				c0.13,0.25,0.1,0.33-0.2,0.33c-3.42-0.01-6.84-0.01-10.26-0.01c-0.07,0-0.13-0.01-0.25-0.02c0.28-0.59,0.54-1.15,0.81-1.7
				c0.39-0.8,0.78-1.6,1.17-2.4c0.35-0.72,0.11-1.09-0.69-1.14c-0.05,0-0.1-0.02-0.16-0.03c0-0.18,0.1-0.31,0.17-0.44
				c0.7-1.37,1.41-2.74,2.11-4.11c0.35-0.68,0.2-1-0.59-1.22c0.86-1.5,1.71-2.98,2.6-4.53c0.88,1.53,1.73,3.01,2.59,4.5
				c-0.84,0.3-0.94,0.55-0.54,1.32c0.7,1.36,1.4,2.71,2.09,4.07C50.92,52.5,50.98,52.62,51.05,52.78z"/>
			<path class="st8" d="M47.49,60.18c0.02,0.97,0.02,0.97-0.93,0.97c-0.56,0-0.56,0-0.56-0.55c0-0.14,0-0.28,0-0.42
				C46.5,60.18,46.99,60.18,47.49,60.18z"/>
			<path class="st2" d="M47.49,60.18c-0.5,0-0.99,0-1.49,0c-0.08-0.85-0.08-0.85,0.74-0.85C47.56,59.34,47.56,59.34,47.49,60.18z"/>
			<path class="st2" d="M54.82,45.91c-0.4,0.01-0.76-0.34-0.76-0.74c0-0.39,0.33-0.72,0.72-0.74c0.4-0.01,0.76,0.33,0.76,0.74
				C55.53,45.56,55.2,45.9,54.82,45.91z"/>
			<path class="st3" d="M69.99,50.59c-0.03,3.35-1.35,6.09-3.94,8.21c-0.04,0.04-0.09,0.07-0.13,0.1c-0.42,0.31-0.75,0.3-1-0.03
				c-0.25-0.32-0.17-0.67,0.22-0.98c0.48-0.38,0.93-0.78,1.32-1.24c2.03-2.39,2.69-5.12,2.05-8.18c-0.01-0.07-0.03-0.14-0.04-0.21
				c-0.05-0.43,0.13-0.73,0.5-0.81c0.33-0.07,0.64,0.14,0.74,0.54c0.14,0.53,0.25,1.07,0.28,1.62C70,49.94,69.99,50.27,69.99,50.59z
				"/>
			<path class="st3" d="M65.41,42.06c0.17,0.02,0.32,0.08,0.46,0.19c1.13,0.85,2.05,1.9,2.76,3.13c0.2,0.35,0.11,0.68-0.21,0.88
				c-0.31,0.2-0.66,0.13-0.87-0.22c-0.65-1.09-1.46-2.04-2.49-2.8c-0.28-0.21-0.33-0.49-0.22-0.8
				C64.93,42.18,65.16,42.08,65.41,42.06z"/>
		</g>
	</g>
</g>
</svg>
