<?xml version="1.0" encoding="utf-8"?>
<!-- Generator: Adobe Illustrator 28.0.0, SVG Export Plug-In . SVG Version: 6.00 Build 0)  -->
<svg version="1.1" id="Capa_1" xmlns="http://www.w3.org/2000/svg" xmlns:xlink="http://www.w3.org/1999/xlink" x="0px" y="0px"
	 viewBox="0 0 100 100" style="enable-background:new 0 0 100 100;" xml:space="preserve">
<style type="text/css">
	.st0{fill:#00ACFA;}
	.st1{fill:#FFC839;}
	.st2{fill:#030303;}
	.st3{fill:#FCF5E3;}
	.st4{fill:#FDEDCC;}
	.st5{fill:#FCDACC;}
	.st6{fill:#C99B81;}
	.st7{fill:#FCC8BB;}
	.st8{fill:#B4836A;}
	.st9{fill:#C89B80;}
	.st10{fill:#005CD5;}
	.st11{fill:#F7D7C9;}
	.st12{fill:#B48369;}
	.st13{fill:#FDA0AA;}
	.st14{fill:#050404;}
	.st15{fill:#FD9FAA;}
</style>
<g>
	<g>
		<path class="st0" d="M75.17,10.1H24.83c-8.14,0-14.73,6.6-14.73,14.73v50.34c0,8.14,6.6,14.73,14.73,14.73h50.34
			c8.14,0,14.73-6.6,14.73-14.73V24.83C89.9,16.7,83.3,10.1,75.17,10.1z"/>
		<circle class="st1" cx="50" cy="50" r="31.93"/>
	</g>
	<g id="mQTHwH.tif_00000121986686934381051720000016645171121984884643_">
		<g>
			<path class="st2" d="M60.62,31.7c0.41-0.28,0.74-0.18,1.08,0.16c3.2,3.27,4.54,7.18,3.99,11.72c-0.22,1.86-0.47,3.72-0.38,5.6
				c0.09,1.93,0.53,3.79,0.93,5.66c1.01,4.63,2.02,9.27,3.01,13.91c0.35,1.66-0.75,2.98-2.45,2.98c-6.25,0-12.5,0-18.75,0
				c-4.93,0-9.86,0-14.78,0c-1.91,0-2.95-1.33-2.55-3.2c1.17-5.37,2.34-10.74,3.5-16.12c0.54-2.51,0.57-5.05,0.17-7.58
				c-0.42-2.68-0.43-5.33,0.61-7.89c1.83-4.51,5.14-7.47,9.7-8.99c4.94-1.66,9.67-1.02,14.13,1.66c0.4,0.24,0.59,0.54,0.46,1
				c-0.42,0.43-0.62,0.45-1.17,0.11c-2.99-1.83-6.22-2.62-9.72-2.25c-0.81,0.05-1.61,0.2-2.39,0.43c-4.57,1.33-7.92,4.07-9.77,8.52
				c-0.98,2.36-0.93,4.81-0.55,7.28c0.43,2.77,0.35,5.53-0.25,8.27c-1.15,5.31-2.31,10.63-3.46,15.94c-0.2,0.94,0.25,1.5,1.2,1.5
				c3.18,0,6.36-0.01,9.55,0.01c0.4,0,0.48-0.15,0.51-0.48c0.12-1.21,0.05-2.41-0.19-3.6c-0.1-0.48,0.03-0.79,0.46-0.99
				c0.56,0.05,0.71,0.16,0.82,0.71c0.22,1.17,0.36,2.35,0.24,3.55c-0.02,0.19,0,0.39,0,0.59c1.88-0.55,2.97-2.61,2.38-4.58
				c-0.6-1.99-1.15-3.98-1.57-6.02c-0.05-0.23-0.15-0.35-0.36-0.44c-1.59-0.68-2.95-1.67-4.14-2.91c-0.06-0.06-0.1-0.19-0.26-0.13
				c0.02,0.11,0.03,0.22,0.05,0.33c0.27,1.16,0.68,2.28,1.27,3.32c0.52,0.92,0.97,1.88,1.38,2.86c0.18,0.44,0.14,0.79-0.27,1.06
				c-0.57,0.06-0.73-0.04-0.95-0.58c-0.38-0.93-0.8-1.83-1.3-2.7c-0.97-1.69-1.47-3.53-1.73-5.44c-0.49-3.59-0.33-7.16,0.35-10.71
				c0.41-2.13,1.18-4.09,2.66-5.73c1.66-1.85,3.73-2.96,6.16-3.43c0.06,0,0.12,0,0.17-0.01c5.4-0.79,10.53,2.63,11.86,8.08
				c0.75,3.1,0.97,6.25,0.83,9.43c-0.14,3.07-0.82,5.99-2.4,8.67c-0.83,1.41-1.35,2.98-1.71,4.59c-0.3,1.34-0.42,2.7-0.28,4.07
				c0.02,0.18-0.08,0.48,0.32,0.48c3.3-0.01,6.6,0,9.9-0.01c0.75,0,1.22-0.63,1.06-1.37c-1.04-4.82-2.04-9.65-3.16-14.45
				c-0.83-3.54-1.09-7.08-0.49-10.67c0.21-1.25,0.26-2.51,0.09-3.78c-0.39-2.87-1.6-5.34-3.67-7.38
				C60.35,32.38,60.34,32.2,60.62,31.7z M43.15,39.36c-1.28,1.3-1.93,2.93-2.34,4.67c-0.05,0.21,0.05,0.26,0.23,0.23
				c1.06-0.17,2.1-0.39,3.08-0.84c1.88-0.7,3.37-1.9,4.55-3.51c0.73-1,1.9-1.02,2.62-0.02c1.86,2.6,4.48,3.86,7.55,4.36
				c0.28,0.05,0.31-0.05,0.26-0.3c-1.2-5.59-6.12-8.17-10.38-7.54C46.51,36.73,44.63,37.68,43.15,39.36z M45.93,44.05
				c-1.62,0.82-3.32,1.36-5.14,1.54c-0.18,0.02-0.32,0.06-0.35,0.3c-0.32,2.32-0.45,4.65-0.3,7c0.01,0.23,0.09,0.42,0.21,0.6
				c1,1.59,2.29,2.89,3.91,3.85c2.11,1.25,4.39,1.79,6.84,1.53c0.04,0,0.09,0.01,0.13,0c3.63-0.44,6.39-2.28,8.39-5.3
				c0.08-0.13,0.11-0.26,0.12-0.41c0.19-2.43,0.05-4.85-0.28-7.26c-0.04-0.29-0.21-0.3-0.42-0.32c-0.74-0.07-1.46-0.23-2.17-0.42
				c-2.71-0.74-4.96-2.15-6.61-4.46c-0.17-0.24-0.33-0.33-0.53-0.04C48.73,42.08,47.44,43.19,45.93,44.05z M59.31,56.21
				c-0.08,0.03-0.12,0.03-0.13,0.05c-1.23,1.27-2.63,2.28-4.26,2.97c-0.15,0.07-0.22,0.16-0.25,0.32c-0.42,2.11-1.02,4.17-1.62,6.23
				c-0.49,1.67,0.34,3.46,1.87,4.24c0.13,0.06,0.27,0.2,0.4,0.13c0.14-0.08,0.05-0.26,0.04-0.4c-0.13-1.39,0.03-2.76,0.33-4.11
				c0.47-2.15,1.34-4.13,2.41-6.04C58.67,58.55,59.05,57.43,59.31,56.21z M53.19,70.41c-1.32-1.37-1.83-2.91-1.48-4.72
				c0.05-0.25-0.02-0.29-0.26-0.27c-0.94,0.07-1.89,0.08-2.83,0c-0.34-0.03-0.35,0.08-0.3,0.35c0.24,1.26,0.03,2.45-0.63,3.56
				c-0.23,0.38-0.51,0.72-0.87,1.08C48.98,70.41,51.05,70.41,53.19,70.41z M46.75,59.82c0.1,0.46,0.18,0.84,0.26,1.22
				c0.03,0.14,0.1,0.21,0.26,0.24c1.8,0.36,3.61,0.37,5.41,0.01c0.12-0.02,0.27-0.01,0.31-0.18c0.09-0.42,0.18-0.83,0.28-1.29
				C51.08,60.39,48.96,60.38,46.75,59.82z M47.43,62.65c0.11,0.39,0.22,0.73,0.3,1.08c0.05,0.23,0.16,0.32,0.41,0.34
				c0.93,0.1,1.85,0.1,2.78,0.07c1.27-0.04,1.27-0.04,1.6-1.24c0.02-0.07,0.04-0.14,0.07-0.26C50.87,62.93,49.17,62.93,47.43,62.65z
				"/>
			<path class="st3" d="M60.62,31.7c-0.28,0.5-0.26,0.68,0.13,1.07c2.06,2.04,3.27,4.51,3.67,7.38c0.17,1.26,0.12,2.53-0.09,3.78
				c-0.6,3.6-0.34,7.13,0.49,10.67c1.12,4.8,2.11,9.63,3.16,14.45c0.16,0.73-0.32,1.36-1.06,1.37c-3.3,0.01-6.6,0-9.9,0.01
				c-0.4,0-0.3-0.3-0.32-0.48c-0.15-1.37-0.02-2.73,0.28-4.07c0.36-1.61,0.88-3.17,1.71-4.59c1.58-2.69,2.26-5.6,2.4-8.67
				c0.14-3.18-0.08-6.32-0.83-9.43c-1.32-5.45-6.46-8.87-11.86-8.08c-0.06,0.01-0.12,0.01-0.17,0.01c0-0.21-0.09-0.39-0.15-0.59
				c-0.31-0.92-0.49-1.88-0.45-2.85c0.04-1.11,0.27-2.2,0.77-3.22c3.5-0.38,6.73,0.42,9.72,2.25c0.56,0.34,0.75,0.32,1.17-0.11
				C59.64,31.08,60.14,31.38,60.62,31.7z"/>
			<path class="st4" d="M48.39,28.48c-0.5,1.02-0.73,2.11-0.77,3.22c-0.04,0.97,0.14,1.92,0.45,2.85c0.06,0.19,0.15,0.38,0.15,0.59
				c-2.43,0.47-4.49,1.58-6.16,3.43c-1.48,1.64-2.25,3.6-2.66,5.73c-0.68,3.55-0.84,7.13-0.35,10.71c0.26,1.91,0.77,3.75,1.73,5.44
				c0.5,0.87,0.92,1.78,1.3,2.7c0.22,0.55,0.38,0.64,0.95,0.58c0.15,0.55,0.3,1.09,0.45,1.64c-0.43,0.2-0.56,0.51-0.46,0.99
				c0.24,1.19,0.31,2.39,0.19,3.6c-0.03,0.33-0.11,0.48-0.51,0.48c-3.18-0.02-6.36-0.01-9.55-0.01c-0.96,0-1.4-0.56-1.2-1.5
				c1.15-5.31,2.3-10.63,3.46-15.94c0.59-2.74,0.68-5.5,0.25-8.27c-0.38-2.48-0.43-4.92,0.55-7.28c1.84-4.45,5.19-7.2,9.77-8.52
				C46.78,28.69,47.57,28.53,48.39,28.48z"/>
			<path class="st5" d="M45.93,44.05c1.51-0.86,2.79-1.97,3.8-3.39c0.2-0.29,0.37-0.2,0.53,0.04c1.65,2.3,3.9,3.72,6.61,4.46
				c0.71,0.2,1.44,0.35,2.17,0.42c0.2,0.02,0.38,0.03,0.42,0.32c0.32,2.41,0.46,4.83,0.28,7.26c-0.01,0.15-0.03,0.28-0.12,0.41
				c-2,3.02-4.76,4.86-8.39,5.3c-0.04,0.01-0.09,0-0.13,0c-0.11-0.3-0.41-0.4-0.62-0.59c-1.47-1.39-2.68-2.97-3.51-4.81
				c-0.47-1.04-0.85-2.12-1.03-3.25c0.45-0.14,0.59-0.46,0.53-0.91c-0.07-0.6-0.42-1.02-0.88-1.38c0.03-0.42,0.01-0.84,0.04-1.25
				C45.69,45.79,45.85,44.93,45.93,44.05z M56.01,49.91c-0.76,0.1-1.27,0.52-1.56,1.22c-0.29,0.71-0.08,1.31,0.42,1.83
				c0.85,0.89,2.34,1.03,3.53,0.34c0.8-0.46,1.38-1.55,0.6-2.6c-0.45-0.6-1.07-0.85-1.78-0.95c0-0.16,0.01-0.32-0.01-0.48
				c-0.1-0.9-0.96-1.63-1.88-1.59c-0.97,0.04-1.79,0.84-1.8,1.78c0,0.41,0.22,0.7,0.58,0.73c0.36,0.04,0.64-0.19,0.72-0.6
				c0.01-0.06,0-0.12,0.02-0.17c0.08-0.27,0.27-0.42,0.54-0.41c0.25,0.01,0.44,0.14,0.5,0.4C55.94,49.57,55.97,49.74,56.01,49.91z
				 M50.04,52.19c0.66-0.04,1.24-0.26,1.69-0.76c0.28-0.3,0.28-0.67,0.03-0.93c-0.26-0.27-0.6-0.27-0.93,0
				C50.19,51,49.83,51,49.21,50.5c-0.35-0.28-0.7-0.28-0.96,0.02c-0.24,0.27-0.21,0.64,0.07,0.94
				C48.78,51.94,49.36,52.16,50.04,52.19z"/>
			<path class="st6" d="M43.15,39.36c1.49-1.68,3.36-2.63,5.56-2.95c4.27-0.63,9.18,1.94,10.38,7.54c0.05,0.25,0.03,0.35-0.26,0.3
				c-3.07-0.5-5.69-1.76-7.55-4.36c-0.72-1-1.89-0.98-2.62,0.02c-1.17,1.62-2.67,2.81-4.55,3.51c-0.28-0.44-0.53-0.88-0.71-1.37
				C43.07,41.17,43.18,40.26,43.15,39.36z"/>
			<path class="st7" d="M45.93,44.05c-0.09,0.87-0.25,1.73-0.3,2.61c-0.02,0.42-0.01,0.84-0.04,1.25c-1.59-0.61-2.81,0.19-2.8,1.83
				c-0.48,0.03-0.9,0.2-1.28,0.48c-1.19,0.87-1.15,2.28,0.07,3.05c0.93,0.59,1.92,0.61,2.9,0.15c0.69-0.33,1.18-0.86,1.19-1.68
				c0.01-0.82-0.44-1.35-1.14-1.7c-0.16-0.08-0.36-0.13-0.44-0.33c-0.01-0.37,0.1-0.69,0.52-0.72c0.39-0.02,0.54,0.25,0.59,0.61
				c0.06,0.41,0.35,0.58,0.74,0.58c0.17,1.14,0.55,2.21,1.03,3.25c0.84,1.85,2.05,3.42,3.51,4.81c0.21,0.2,0.51,0.29,0.62,0.59
				c-2.45,0.27-4.73-0.27-6.84-1.53c-1.61-0.96-2.9-2.26-3.91-3.85c-0.12-0.19-0.19-0.38-0.21-0.6c-0.15-2.34-0.02-4.67,0.3-7
				c0.03-0.24,0.16-0.28,0.35-0.3C42.61,45.42,44.31,44.87,45.93,44.05z"/>
			<path class="st8" d="M43.51,65.37c-0.15-0.55-0.3-1.09-0.45-1.64c0.41-0.28,0.45-0.63,0.27-1.06c-0.41-0.98-0.85-1.94-1.38-2.86
				c-0.59-1.04-1-2.16-1.27-3.32c-0.03-0.11-0.04-0.23-0.05-0.33c0.16-0.06,0.19,0.07,0.26,0.13c1.19,1.24,2.56,2.23,4.14,2.91
				c0.21,0.09,0.31,0.21,0.36,0.44c0.42,2.03,0.97,4.03,1.57,6.02c0.59,1.96-0.5,4.03-2.38,4.58c0-0.2-0.02-0.4,0-0.59
				c0.11-1.2-0.02-2.38-0.24-3.55C44.22,65.54,44.07,65.42,43.51,65.37z"/>
			<path class="st9" d="M59.31,56.21c-0.27,1.22-0.64,2.34-1.23,3.39c-1.07,1.91-1.94,3.9-2.41,6.04c-0.3,1.35-0.46,2.72-0.33,4.11
				c0.01,0.13,0.1,0.32-0.04,0.4c-0.13,0.07-0.27-0.06-0.4-0.13c-1.53-0.78-2.36-2.57-1.87-4.24c0.6-2.06,1.2-4.12,1.62-6.23
				c0.03-0.16,0.1-0.25,0.25-0.32c1.63-0.69,3.03-1.71,4.26-2.97C59.2,56.24,59.23,56.24,59.31,56.21z"/>
			<path class="st10" d="M53.19,70.41c-2.14,0-4.22,0-6.37,0c0.35-0.36,0.64-0.7,0.87-1.08c0.66-1.11,0.87-2.29,0.63-3.56
				c-0.05-0.27-0.03-0.38,0.3-0.35c0.94,0.08,1.89,0.07,2.83,0c0.24-0.02,0.31,0.02,0.26,0.27C51.36,67.5,51.87,69.05,53.19,70.41z"
				/>
			<path class="st11" d="M46.75,59.82c2.2,0.56,4.33,0.56,6.52,0c-0.1,0.46-0.19,0.88-0.28,1.29c-0.04,0.17-0.19,0.16-0.31,0.18
				c-1.8,0.35-3.61,0.35-5.41-0.01c-0.16-0.03-0.23-0.1-0.26-0.24C46.93,60.66,46.85,60.28,46.75,59.82z"/>
			<path class="st12" d="M43.15,39.36c0.03,0.9-0.08,1.81,0.26,2.69c0.19,0.49,0.43,0.93,0.71,1.37c-0.98,0.45-2.03,0.67-3.08,0.84
				c-0.18,0.03-0.28-0.01-0.23-0.23C41.22,42.28,41.86,40.66,43.15,39.36z"/>
			<path class="st10" d="M47.43,62.65c1.74,0.28,3.44,0.28,5.16,0c-0.03,0.12-0.05,0.19-0.07,0.26c-0.34,1.2-0.34,1.2-1.6,1.24
				c-0.93,0.03-1.86,0.03-2.78-0.07c-0.25-0.03-0.35-0.12-0.41-0.34C47.65,63.38,47.54,63.04,47.43,62.65z"/>
			<path class="st13" d="M57.22,49.75c0.71,0.1,1.33,0.35,1.78,0.95c0.78,1.04,0.2,2.14-0.6,2.6c-1.19,0.69-2.68,0.55-3.53-0.34
				c-0.5-0.52-0.71-1.12-0.42-1.83c0.29-0.7,0.8-1.12,1.56-1.22C56.53,50.34,56.84,50.3,57.22,49.75z"/>
			<path class="st14" d="M57.22,49.75c-0.38,0.55-0.69,0.59-1.2,0.16c-0.04-0.17-0.07-0.34-0.11-0.51c-0.07-0.26-0.25-0.39-0.5-0.4
				c-0.27-0.01-0.46,0.14-0.54,0.41c-0.02,0.05-0.01,0.12-0.02,0.17c-0.08,0.41-0.36,0.64-0.72,0.6c-0.36-0.03-0.59-0.32-0.58-0.73
				c0.01-0.93,0.83-1.74,1.8-1.78c0.92-0.03,1.77,0.69,1.88,1.59C57.22,49.43,57.21,49.59,57.22,49.75z"/>
			<path class="st14" d="M45.95,50.2c-0.4,0-0.69-0.17-0.74-0.58c-0.05-0.36-0.2-0.64-0.59-0.61c-0.42,0.03-0.53,0.34-0.52,0.72
				c-0.39,0.63-0.85,0.64-1.29,0.03c-0.02-1.64,1.21-2.44,2.8-1.83c0.46,0.35,0.81,0.77,0.88,1.38
				C46.54,49.74,46.4,50.06,45.95,50.2z"/>
			<path class="st14" d="M50.04,52.19c-0.67-0.03-1.25-0.25-1.71-0.74c-0.28-0.3-0.31-0.67-0.07-0.94c0.26-0.29,0.61-0.3,0.96-0.02
				c0.62,0.5,0.98,0.5,1.61-0.01c0.33-0.27,0.67-0.27,0.93,0c0.26,0.27,0.25,0.63-0.03,0.93C51.27,51.92,50.69,52.15,50.04,52.19z"
				/>
			<path class="st15" d="M42.8,49.75c0.45,0.61,0.91,0.6,1.29-0.03c0.08,0.2,0.28,0.24,0.44,0.33c0.7,0.35,1.15,0.88,1.14,1.7
				c-0.01,0.82-0.5,1.36-1.19,1.68c-0.98,0.46-1.96,0.43-2.9-0.15c-1.23-0.77-1.26-2.18-0.07-3.05
				C41.9,49.95,42.32,49.78,42.8,49.75z"/>
		</g>
	</g>
</g>
</svg>
