<?xml version="1.0" encoding="utf-8"?>
<!-- Generator: Adobe Illustrator 27.7.0, SVG Export Plug-In . SVG Version: 6.00 Build 0)  -->
<svg version="1.1" id="Landing_Page" xmlns="http://www.w3.org/2000/svg" xmlns:xlink="http://www.w3.org/1999/xlink" x="0px"
	 y="0px" viewBox="0 0 21 19" style="enable-background:new 0 0 21 19;" xml:space="preserve">
<style type="text/css">
	.st0{fill:#FFFFFF;}
</style>
<g>
	<path class="st0" d="M14.31,6.62c-0.09-0.23-0.19-0.39-0.37-0.56c-0.17-0.17-0.33-0.28-0.56-0.37c-0.17-0.07-0.43-0.15-0.91-0.17
		c-0.52-0.02-0.67-0.03-1.98-0.03S9.03,5.5,8.51,5.52C8.03,5.54,7.77,5.62,7.6,5.69C7.37,5.78,7.21,5.88,7.04,6.06
		C6.87,6.23,6.76,6.39,6.67,6.62C6.6,6.79,6.52,7.05,6.5,7.53C6.48,8.05,6.47,8.2,6.47,9.51s0,1.46,0.03,1.98
		c0.02,0.48,0.1,0.74,0.17,0.91c0.09,0.23,0.19,0.39,0.37,0.56c0.17,0.17,0.33,0.28,0.56,0.37c0.17,0.07,0.43,0.15,0.91,0.17
		c0.52,0.02,0.67,0.03,1.98,0.03c1.31,0,1.46-0.01,1.98-0.03c0.48-0.02,0.74-0.1,0.91-0.17c0.23-0.09,0.39-0.19,0.56-0.37
		c0.17-0.17,0.28-0.33,0.37-0.56c0.07-0.17,0.15-0.43,0.17-0.91c0.02-0.52,0.03-0.67,0.03-1.98s0-1.46-0.03-1.98
		C14.46,7.05,14.38,6.79,14.31,6.62z M10.5,12.02c-1.39,0-2.51-1.12-2.51-2.51S9.11,7,10.5,7s2.51,1.12,2.51,2.51
		S11.88,12.02,10.5,12.02z M13.11,7.48c-0.32,0-0.59-0.26-0.59-0.59c0-0.32,0.26-0.59,0.59-0.59s0.59,0.26,0.59,0.59
		S13.43,7.48,13.11,7.48z"/>
	<path class="st0" d="M10.5,1.73c-4.29,0-7.77,3.48-7.77,7.77s3.48,7.77,7.77,7.77s7.77-3.48,7.77-7.77S14.79,1.73,10.5,1.73z
		 M15.36,11.52c-0.02,0.52-0.11,0.88-0.23,1.19c-0.12,0.32-0.29,0.59-0.56,0.87c-0.27,0.27-0.54,0.44-0.87,0.56
		c-0.31,0.12-0.67,0.2-1.19,0.23c-0.52,0.02-0.69,0.03-2.02,0.03s-1.5-0.01-2.02-0.03c-0.52-0.02-0.88-0.11-1.19-0.23
		c-0.32-0.12-0.59-0.29-0.87-0.56c-0.27-0.27-0.44-0.54-0.56-0.87c-0.12-0.31-0.2-0.67-0.23-1.19C5.6,11,5.59,10.83,5.59,9.5
		S5.6,8,5.62,7.48S5.73,6.6,5.85,6.29C5.97,5.97,6.14,5.7,6.41,5.42c0.27-0.27,0.54-0.44,0.87-0.56c0.31-0.12,0.67-0.2,1.19-0.23
		C8.99,4.61,9.16,4.6,10.49,4.6c1.33,0,1.5,0.01,2.02,0.03s0.88,0.11,1.19,0.23c0.32,0.12,0.59,0.29,0.87,0.56
		c0.27,0.27,0.44,0.54,0.56,0.87c0.12,0.31,0.2,0.67,0.23,1.19C15.38,8,15.39,8.17,15.39,9.5S15.38,11,15.36,11.52z"/>
	<circle class="st0" cx="10.5" cy="9.51" r="1.63"/>
</g>
</svg>
