<?xml version="1.0" encoding="utf-8"?>
<!-- Generator: Adobe Illustrator 27.7.0, SVG Export Plug-In . SVG Version: 6.00 Build 0)  -->
<svg version="1.1" id="Landing_Page" xmlns="http://www.w3.org/2000/svg" xmlns:xlink="http://www.w3.org/1999/xlink" x="0px"
	 y="0px" viewBox="0 0 21 19" style="enable-background:new 0 0 21 19;" xml:space="preserve">
<style type="text/css">
	.st0{fill:#FFFFFF;}
</style>
<g>
	<path class="st0" d="M10.5,1.74c-4.29,0-7.77,3.48-7.77,7.77s3.48,7.77,7.77,7.77s7.77-3.48,7.77-7.77S14.79,1.74,10.5,1.74z
		 M7.93,13.75c-0.55-0.01-1.11,0-1.66,0c-0.09,0-0.12-0.02-0.12-0.11c0-1.97,0-3.94,0-5.91c0-0.08,0.02-0.11,0.11-0.11
		c0.56,0,1.12,0,1.68,0c0.11,0,0.12,0.04,0.12,0.13c0,0.98,0,1.96,0,2.94c0,0.97,0,1.95,0,2.92C8.07,13.72,8.04,13.75,7.93,13.75z
		 M7.12,6.78c-0.6,0-1.1-0.5-1.1-1.1c0-0.61,0.5-1.11,1.11-1.11c0.6,0,1.1,0.5,1.1,1.1C8.22,6.28,7.73,6.78,7.12,6.78z M15.22,13.62
		c0,0.1-0.03,0.13-0.13,0.13c-0.55,0-1.11,0-1.66,0c-0.1,0-0.12-0.03-0.12-0.12c0-1.02,0-2.04,0-3.06c0-0.26-0.02-0.51-0.09-0.76
		c-0.13-0.46-0.46-0.69-0.94-0.67c-0.66,0.03-1,0.36-1.08,1.03c-0.02,0.16-0.03,0.32-0.03,0.48c0,0.99,0,1.99,0,2.98
		c0,0.1-0.02,0.13-0.13,0.13c-0.56,0-1.11,0-1.67,0c-0.09,0-0.12-0.02-0.11-0.11c0-1.97,0-3.93,0-5.9c0-0.1,0.03-0.12,0.12-0.12
		c0.53,0,1.06,0,1.59,0c0.1,0,0.12,0.03,0.12,0.12c-0.01,0.23,0,0.47,0,0.71c0.13-0.14,0.23-0.29,0.36-0.41
		c0.4-0.38,0.88-0.57,1.44-0.57c0.31,0,0.61,0.02,0.9,0.11c0.67,0.2,1.07,0.66,1.25,1.32c0.14,0.49,0.17,1,0.17,1.51
		C15.22,11.48,15.22,12.55,15.22,13.62z"/>
</g>
</svg>
