<?xml version="1.0" encoding="utf-8"?>
<!-- Generator: Adobe Illustrator 26.3.1, SVG Export Plug-In . SVG Version: 6.00 Build 0)  -->
<svg version="1.1" id="Capa_1" xmlns="http://www.w3.org/2000/svg" xmlns:xlink="http://www.w3.org/1999/xlink" x="0px" y="0px"
	 viewBox="0 0 1082.2 169.1" style="enable-background:new 0 0 1082.2 169.1;" xml:space="preserve">
<style type="text/css">
	.st0{fill:#00B5FF;}
	.st1{fill:#FFFFFF;}
	.st2{fill-rule:evenodd;clip-rule:evenodd;fill:#FFFFFF;}
	.st3{enable-background:new    ;}
	.st4{fill:#005390;}
</style>
<path class="st0" d="M20.4,0h1041.4c11.3,0,20.4,9.1,20.4,20.4v128.3c0,11.3-9.1,20.4-20.4,20.4H20.4C9.1,169.1,0,160,0,148.7V20.4
	C0,9.1,9.1,0,20.4,0z"/>
<path class="st1" d="M461.9,112.4c-16.5,0-33,0-49.5,0c-2.4,0-4.7,0.1-7.1,0.2c-1.5,0.1-2.7-0.2-3.5-1.6c-1-1.6-1.4-3.3-0.1-4.8
	c1.4-1.8,3-3.4,4.8-4.8c3.8-3.1,7.9-5.9,11.7-8.9c4-3.2,3.7-2.5,0.8-6c-5.3-6.3-10.8-12.4-16.3-18.5c-1.1-1.2-2.2-2.5-1.4-4.3
	s2.5-2.1,4.2-2.1c8.5-0.1,16.9-0.2,25.4-0.3c5.7,0,11.4,0,17.1,0c14-0.1,28-0.1,42-0.2c7-0.1,14.1-0.3,21.1-0.4
	c1.9-0.1,3.8,0,5.7,0.2c1.4,0.2,2.7,0.8,3.8,1.6c1.4,1,1.2,3-0.2,4.2c-6.3,5.5-12.2,11.4-17.8,17.6c-0.7,0.7-0.5,1.2,0.1,1.8
	c3.7,3.9,7.5,7.9,11.2,11.8c2.2,2.3,4.5,4.4,6.7,6.7c0.6,0.6,1.1,1.3,1.4,2.1c0.9,1.9,0,3.7-1.9,4.5c-1.5,0.6-3.1,0.9-4.7,0.8
	c-14.7,0.1-29.5,0.2-44.2,0.3c-3,0-6.1,0-9.1,0L461.9,112.4z"/>
<path class="st2" d="M40.3,55.5c-0.1-0.8-0.6-2.1-3.5-5.2c-0.4-0.4-0.8-0.9-1.3-1.4c1.4,0,2.7-0.1,3.7-0.2c3.9-0.3,4.6-0.9,4.8-1.4
	c0.3-0.4,0.2-1-0.3-1.3c-0.1,0-0.1-0.1-0.2-0.1c-0.7-0.3-1.9-0.6-5.8-0.7c-0.8,0-1.8-0.1-2.8-0.1c0.8-0.8,1.5-1.5,2.1-2.1
	c2.7-2.9,3.3-4,3.3-4.8s-0.4-1.1-1.3-1s-2.1,0.6-5.2,3.5c-0.4,0.3-0.8,0.7-1.2,1.2c0-1.2-0.1-2.4-0.2-3.3c-0.3-3.9-0.9-4.6-1.4-4.8
	c-0.4-0.3-1-0.2-1.3,0.3c0,0.1-0.1,0.1-0.1,0.2c-0.4,0.7-0.6,1.9-0.7,5.8c0,0.7-0.1,1.5-0.1,2.3c-1.1-1-2.1-1.9-2.9-2.7
	c-3-2.5-3.8-2.6-4.4-2.4c-0.5,0.1-0.8,0.6-0.7,1.1c0,0.1,0,0.1,0.1,0.2c0.2,0.7,1,1.8,3.6,4.7l1.7,1.8c-1,0-2,0-2.8,0
	c-3.9,0.1-5.2,0.6-5.8,1s-0.5,1.1,0.2,1.6s1.9,1,6.1,1.2l1.6,0.1c-0.9,1-1.7,1.9-2.4,2.6c-2.5,3-2.6,3.8-2.4,4.4
	c0.1,0.5,0.6,0.8,1.1,0.7c0.1,0,0.2,0,0.2-0.1c0.7-0.2,1.8-1,4.6-3.6c0.6-0.5,1.3-1.2,2-1.8c0,1.2,0,2.2,0.1,3.2
	c0.1,3.9,0.5,5.2,1,5.8s1,0.5,1.6-0.2s1-1.9,1.3-6.1c0-0.6,0.1-1.3,0.1-2.1c0.7,0.6,1.3,1.2,1.8,1.8c2.9,2.7,4,3.3,4.8,3.3
	S40.4,56.3,40.3,55.5z"/>
<path class="st1" d="M1042.7,26.3l0.2,2.1c0.5,4.9,4.4,8.7,9.2,9.2l2.1,0.2l-2.1,0.2c-4.9,0.5-8.7,4.4-9.2,9.2l-0.2,2.1l-0.2-2.1
	c-0.5-4.9-4.4-8.7-9.2-9.2l-2.1-0.2l2.1-0.2c4.9-0.5,8.7-4.4,9.2-9.2L1042.7,26.3z"/>
<g>
	<path class="st1" d="M378.3,120.8l-17.8-58.9c-0.5-1.8-2.2-3.1-4.1-3.1h-15.7c-1.9,0-3.5,1.2-4.1,3l-15.4,48V63.1
		c0-2.4-1.9-4.3-4.3-4.3h-14.4c-2.4,0-4.3,1.9-4.3,4.3v11.2l-7-13.2c-0.7-1.4-2.2-2.3-3.8-2.3h-14.5c-2.4,0-4.3,1.9-4.3,4.3v43.6
		c-0.8-1-2-1.6-3.3-1.6h-15.9v-3.4h10.4c2.4,0,4.3-1.9,4.3-4.3v-12c0-2.4-1.9-4.3-4.3-4.3h-10.4v-1.3h13.7c2.2,0,4.1-1.7,4.3-3.9
		l1.1-12.4c0.1-1.2-0.3-2.4-1.1-3.3c-0.8-0.9-2-1.4-3.2-1.4H230c-0.8,0-1.5,0.2-2.1,0.6c-0.6-0.4-1.4-0.6-2.1-0.6h-16
		c-1.8,0-3.5,1.2-4.1,2.9l-7.3,20.8l-6.3-20.7c-0.6-1.8-2.2-3-4.1-3h-16.7c-1.4,0-2.7,0.7-3.5,1.8s-1,2.6-0.6,3.9l1,2.8
		c-2.2-2.6-5-4.8-8.3-6.5c-3.9-2-8.8-3.1-14.5-3.1c-4.4,0-8.6,0.8-12.4,2.4c-3.9,1.6-7.3,4-10.2,7.2c-2.8,3.1-5,7-6.5,11.5
		c-1.1,3.3-1.8,6.9-2.1,10.9V63.1c0-2.4-1.9-4.3-4.3-4.3H95.4c-2.4,0-4.3,1.9-4.3,4.3v11.2l-7-13.2c-0.7-1.4-2.2-2.3-3.8-2.3H65.7
		c-2.4,0-4.3,1.9-4.3,4.3V122c0,2.4,1.9,4.3,4.3,4.3h14.4c2.4,0,4.3-1.9,4.3-4.3v-9.8l6,11.8c0.7,1.4,2.2,2.4,3.8,2.4h15.6
		c2.4,0,4.3-1.9,4.3-4.3V97.9c0.3,3.4,0.9,6.5,1.8,9.4c1.3,4.1,3.3,7.7,6,10.7s6,5.4,9.9,7c3.8,1.6,8.2,2.4,13,2.4
		c5.9,0,11-1.1,15-3.3c4-2.2,7.3-5.1,9.7-8.7c2.3-3.5,3.9-7.5,4.8-12c0.8-4.2,1.2-8.6,1.2-13.1c0-0.4,0-0.9,0-1.3l11.7,34.4
		c0.6,1.7,2.2,2.9,4.1,2.9h13.6c1.8,0,3.5-1.2,4.1-2.9l16.7-47.2V122c0,2.4,1.9,4.3,4.3,4.3h35.3c1.7,0,3.1-1,3.8-2.3
		c0.7,1.4,2.1,2.3,3.8,2.3h14.4c2.4,0,4.3-1.9,4.3-4.3v-9.8l6,11.8c0.7,1.4,2.2,2.4,3.8,2.4H317c0.9,0,1.8-0.3,2.5-0.8
		c0.7,0.5,1.6,0.8,2.5,0.8h15.9c1.9,0,3.6-1.3,4.1-3.1l2.3-8.2h7.4l2.2,8.1c0.5,1.9,2.2,3.2,4.2,3.2h16.4c1.4,0,2.6-0.6,3.5-1.7
		C378.5,123.5,378.7,122.1,378.3,120.8z M145,106.8c-1,0-1.8-0.1-2.4-0.4c-0.5-0.2-0.9-0.8-1.1-1.2c-0.4-0.7-1-1.9-1.4-4.3
		c-0.4-2.1-0.6-5-0.6-8.5c0-5,0.6-8.9,1.9-11.7c0.9-2.1,2-2.5,3.5-2.5c1,0,1.8,0.1,2.5,0.4c0.3,0.1,0.6,0.5,0.9,1
		c0.3,0.6,0.8,1.8,1.2,4.1c0.3,2.1,0.5,5,0.5,8.4c0,3.5-0.2,6.5-0.5,8.7c-0.4,2.5-0.9,3.8-1.2,4.4s-0.6,0.9-0.9,1.1
		C146.7,106.7,145.9,106.8,145,106.8z"/>
	<g class="st3">
		<path class="st4" d="M94.2,122l-10.4-20.5c-1.5-3-3.3-7.3-4.6-11.1c0.3,2.3,0.8,7.7,0.8,15V122H65.7V63.1h14.5L91,83.3
			c1.7,3.1,3.5,7.3,4.9,11.2c-0.4-3.5-0.5-9.3-0.5-13.2V63.1h14.4V122H94.2z"/>
		<path class="st4" d="M144.7,123c-17.1,0-26.5-11.3-26.5-29c0-21,11.5-32,27.1-32c20,0,25.9,15.3,25.9,28.2
			C171.1,107.2,165.8,123,144.7,123z M144.8,73.9c-6.8,0-9.7,7.2-9.7,18.4c0,15,3.6,18.8,9.9,18.8c6.4,0,9.2-3.8,9.2-18.9
			C154.2,77.5,151.3,73.9,144.8,73.9z"/>
		<path class="st4" d="M204.8,122h-13.6l-20-58.9h16.7l7.4,24.3c1.1,3.6,1.9,5.8,2.8,11.1h0.1c0.9-4.7,2-8.5,3.1-11.5l8.4-23.8h16
			L204.8,122z"/>
		<path class="st4" d="M229.8,122V63.1H264l-1.1,12.4h-18v9.9h14.7v12h-14.7v12h20.2V122H229.8z"/>
		<path class="st4" d="M301.2,122l-10.4-20.5c-1.5-3-3.3-7.3-4.6-11.1c0.3,2.3,0.8,7.7,0.8,15V122h-14.4V63.1h14.5L298,83.3
			c1.7,3.1,3.5,7.3,4.9,11.2c-0.4-3.5-0.5-9.3-0.5-13.2V63.1h14.4V122H301.2z"/>
		<path class="st4" d="M357.8,122l-3-11.3h-14l-3.2,11.3h-15.9l18.9-58.9h15.7l17.8,58.9H357.8z M349.2,88.3c-0.6-2.5-1-5.7-1.1-7.9
			c-0.2,2.2-0.8,5.2-1.6,9l-2.4,9.6h7.6L349.2,88.3z"/>
	</g>
</g>
<g>
	<g class="st3">
		<path class="st0" d="M458.8,99.2c-2,2.5-4.5,3.9-8.7,3.9h-11.3V70.5h11c2.1,0,4.9,0.2,7.4,2c3.5,2.6,5.1,7.1,5.1,13.7
			C462.3,91.3,461.6,95.7,458.8,99.2z M449.3,77.3h-2.5v18.8h2.7c2.2,0,4-1.2,4-10.2C453.5,78.3,451.7,77.3,449.3,77.3z"/>
		<path class="st0" d="M466.7,103.1V70.5h18.1l-0.6,6.9h-9.5v5.5h7.8v6.7h-7.8v6.7h10.7v7H466.7z"/>
	</g>
</g>
<g>
	<g class="st3">
		<path class="st1" d="M562.7,114.3c-1.2,0.2-2.2,0.4-3.2,0.5c-1,0.1-1.9,0.2-2.8,0.2s-2-0.1-3.2-0.2c-1.2-0.1-2.5-0.3-4-0.6
			l17.1-54.5c1.3-0.2,2.6-0.3,3.7-0.4c1.1-0.1,2.3-0.2,3.5-0.2c1,0,2,0.1,3.2,0.2c1.1,0.1,2.5,0.2,3.9,0.4l16.9,54.6
			c-2.9,0.5-5.4,0.7-7.6,0.7c-1,0-2-0.1-3.1-0.2c-1-0.1-2.1-0.3-3.3-0.5l-2.9-10.6c-1.4,0.4-2.8,0.7-4.1,0.9
			c-1.3,0.2-2.6,0.3-3.9,0.3c-1.2,0-2.4-0.1-3.6-0.3c-1.2-0.2-2.5-0.4-3.8-0.8L562.7,114.3z M573.4,74l-5.1,19.6
			c0.9,0.3,1.7,0.5,2.4,0.6c0.8,0.2,1.6,0.2,2.4,0.2c0.9,0,1.7-0.1,2.6-0.2c0.8-0.1,1.7-0.3,2.6-0.6L573.4,74z"/>
		<path class="st1" d="M631.3,84.8c1.4-0.2,2.6-0.4,3.7-0.5c1.1-0.1,2.1-0.2,3-0.2c0.9,0,1.9,0.1,3.1,0.2c1.2,0.1,2.4,0.3,3.6,0.5
			v27.8c-3,1.1-6,1.9-8.9,2.2c-2.9,0.4-5.4,0.5-7.5,0.5c-4.5,0-8.4-0.7-11.8-2.1c-3.4-1.4-6.2-3.3-8.4-5.8c-2.3-2.5-4-5.5-5.1-8.9
			c-1.1-3.5-1.7-7.2-1.7-11.3s0.6-7.8,1.8-11.3c1.2-3.5,2.9-6.5,5.1-9c2.2-2.5,4.9-4.5,8.2-6c3.3-1.4,6.9-2.1,11.1-2.1
			c2.4,0,4.8,0.2,7,0.5c2.2,0.4,4.6,1.1,7.3,2.2c-0.1,2.1-0.5,4.1-1.1,6.1c-0.7,2-1.3,3.7-2.1,5c-1-0.4-1.9-0.7-2.8-0.9
			c-0.8-0.3-1.6-0.5-2.4-0.6c-0.8-0.2-1.5-0.3-2.3-0.3s-1.6-0.1-2.4-0.1c-4.1,0-7.3,1.4-9.5,4.2c-2.2,2.8-3.4,6.9-3.4,12.4
			c0,5.4,1.1,9.5,3.3,12.2c2.2,2.7,5.4,4,9.8,4c1,0,1.8-0.1,2.6-0.2V84.8z"/>
		<path class="st1" d="M675.6,115.3c-4.1,0-7.5-0.6-10.3-1.7c-2.7-1.1-4.9-2.7-6.5-4.8c-1.6-2.1-2.7-4.7-3.3-7.7
			c-0.6-3-1-6.4-1-10.2V59.7c1.5-0.2,2.7-0.3,3.8-0.4s2.1-0.1,3.1-0.1c0.9,0,1.8,0,2.9,0.1c1,0.1,2.3,0.2,3.8,0.4v29.6
			c0,2.5,0.1,4.7,0.3,6.5c0.2,1.8,0.6,3.2,1.1,4.4c0.5,1.1,1.3,1.9,2.3,2.4c1,0.5,2.2,0.7,3.8,0.7c1.6,0,2.9-0.2,3.9-0.7
			c1-0.5,1.8-1.3,2.3-2.4c0.5-1.1,0.9-2.6,1.1-4.4c0.2-1.8,0.3-3.9,0.3-6.5V59.7c1.5-0.2,2.8-0.3,3.9-0.4c1-0.1,2-0.1,2.9-0.1
			c0.9,0,1.9,0,3,0.1c1.1,0.1,2.3,0.2,3.8,0.4V91c0,3.8-0.3,7.2-1,10.2c-0.6,3-1.7,5.6-3.3,7.7c-1.6,2.1-3.7,3.7-6.5,4.8
			C683.2,114.8,679.8,115.3,675.6,115.3z"/>
		<path class="st1" d="M714.2,114.9c-1.9,0-4.1-0.2-6.8-0.7V59.7c1.4-0.2,2.6-0.4,3.7-0.5c1.1-0.1,2.1-0.2,3-0.2
			c0.9,0,1.9,0.1,3.1,0.2c1.1,0.1,2.4,0.3,3.7,0.5v54.5C718.2,114.7,716,114.9,714.2,114.9z"/>
		<path class="st1" d="M732,59.7c1.1-0.2,2.1-0.4,3.1-0.5c0.9-0.1,1.8-0.2,2.7-0.2c0.9,0,1.9,0.1,2.9,0.2c1,0.1,1.8,0.3,2.6,0.4
			l17.7,29.9V59.7c1.3-0.2,2.5-0.4,3.6-0.5c1.1-0.1,2-0.2,2.9-0.2c0.9,0,1.8,0.1,2.7,0.2c1,0.1,2,0.3,3.1,0.5l-0.1,54.5
			c-0.5,0.2-1.2,0.3-2.2,0.5c-1,0.2-2,0.2-3.1,0.2c-1.3,0-2.4-0.1-3.4-0.3c-1-0.2-1.8-0.3-2.2-0.4l-17.8-29.8v29.8
			c-2.2,0.5-4.3,0.7-6.1,0.7s-3.9-0.2-6.2-0.7V59.7z"/>
		<path class="st1" d="M793.2,114.3c-1.2,0.2-2.2,0.4-3.2,0.5c-1,0.1-1.9,0.2-2.8,0.2s-2-0.1-3.2-0.2c-1.2-0.1-2.5-0.3-4-0.6
			l17.1-54.5c1.3-0.2,2.6-0.3,3.7-0.4c1.1-0.1,2.3-0.2,3.5-0.2c1,0,2,0.1,3.2,0.2c1.1,0.1,2.5,0.2,3.9,0.4l16.9,54.6
			c-2.9,0.5-5.4,0.7-7.6,0.7c-1,0-2-0.1-3.1-0.2c-1-0.1-2.1-0.3-3.3-0.5l-2.9-10.6c-1.4,0.4-2.8,0.7-4.1,0.9
			c-1.3,0.2-2.6,0.3-3.9,0.3c-1.2,0-2.4-0.1-3.6-0.3c-1.2-0.2-2.5-0.4-3.8-0.8L793.2,114.3z M803.9,74l-5.1,19.6
			c0.9,0.3,1.7,0.5,2.4,0.6s1.6,0.2,2.4,0.2c0.9,0,1.7-0.1,2.6-0.2c0.8-0.1,1.7-0.3,2.6-0.6L803.9,74z"/>
		<path class="st1" d="M835.1,59.7c1.4-0.2,2.6-0.4,3.7-0.5c1.1-0.1,2.1-0.2,3-0.2c0.9,0,1.9,0.1,3.1,0.2c1.1,0.1,2.4,0.3,3.7,0.5
			v42.7h17.6c0.3,1.3,0.4,2.4,0.5,3.3c0.1,0.9,0.1,1.8,0.1,2.6c0,0.9,0,1.8-0.1,2.7c-0.1,0.9-0.2,2.1-0.5,3.4h-31.1V59.7z"/>
		<path class="st1" d="M889.7,58.7c9.6,0,16.9,2.4,21.9,7.2c5,4.8,7.5,12,7.5,21.5c0,9.7-2.5,16.8-7.6,21.3
			c-5.1,4.5-12.6,6.8-22.6,6.8c-2.5,0-5-0.1-7.4-0.3c-2.4-0.2-4.7-0.5-7-0.8V59.7c0.8-0.1,1.7-0.2,2.9-0.3c1.2-0.1,2.4-0.2,3.8-0.3
			c1.4-0.1,2.8-0.2,4.2-0.3C886.9,58.7,888.3,58.7,889.7,58.7z M888,103.4c0.4,0.1,0.8,0.1,1.2,0.1c0.5,0,0.9,0,1.4,0
			c2,0,3.9-0.2,5.6-0.7s3.3-1.3,4.5-2.6s2.3-2.9,3-5c0.7-2.1,1.1-4.8,1.1-8c0-3.2-0.4-5.9-1.1-8c-0.8-2.1-1.8-3.8-3-5.1
			c-1.2-1.2-2.7-2.1-4.4-2.7c-1.7-0.5-3.4-0.8-5.3-0.8c-1,0-1.8,0-2.2,0c-0.5,0-0.8,0-0.9,0V103.4z"/>
		<path class="st1" d="M927.2,87.2c0-4.1,0.5-7.8,1.4-11.3c0.9-3.5,2.4-6.5,4.3-9s4.5-4.5,7.5-6c3-1.5,6.6-2.2,10.8-2.2
			c4.2,0,7.8,0.7,10.8,2.2c3,1.5,5.5,3.4,7.4,6s3.4,5.6,4.4,9c0.9,3.5,1.4,7.3,1.4,11.3s-0.5,7.8-1.4,11.3c-0.9,3.4-2.4,6.4-4.4,8.9
			c-2,2.5-4.4,4.5-7.4,5.9c-3,1.4-6.6,2.1-10.8,2.1c-4.2,0-7.8-0.7-10.8-2.1c-3-1.4-5.5-3.4-7.5-5.9c-2-2.5-3.4-5.5-4.3-8.9
			C927.7,95,927.2,91.3,927.2,87.2z M961,87.2c0-11.1-3.2-16.6-9.7-16.6c-6.6,0-9.9,5.5-9.9,16.6c0,5.5,0.8,9.7,2.4,12.4
			c1.6,2.7,4.1,4.1,7.4,4.1C957.8,103.7,961,98.2,961,87.2z"/>
		<path class="st1" d="M1006.2,81c2.1,0.9,4.1,1.7,5.8,2.6c1.7,0.9,3.2,2,4.4,3.2c1.2,1.2,2.2,2.7,2.8,4.5c0.7,1.8,1,3.9,1,6.4
			c0,2.7-0.5,5.1-1.4,7.3c-0.9,2.2-2.3,4-4.2,5.6c-1.8,1.6-4.1,2.7-6.8,3.6s-5.7,1.3-9.2,1.3c-3.2,0-5.9-0.3-8.4-0.8
			c-2.4-0.5-5-1.3-7.8-2.4c0.2-1.8,0.6-3.7,1.1-5.7c0.5-2,1.1-4.1,1.8-6.1c4.7,2,8.8,3.1,12.2,3.1c2.6,0,4.6-0.4,6.1-1.2
			c1.5-0.8,2.2-2.1,2.2-4.1c0-0.8-0.2-1.5-0.5-2.1c-0.3-0.6-0.7-1.1-1.2-1.5c-0.5-0.4-1.1-0.8-1.7-1c-0.6-0.3-1.3-0.5-1.9-0.8
			l-4.3-1.6c-1.8-0.7-3.5-1.5-5-2.4c-1.5-0.9-2.8-2-3.9-3.2c-1.1-1.2-1.9-2.7-2.5-4.3c-0.6-1.6-0.9-3.5-0.9-5.7
			c0-2.7,0.5-5.1,1.4-7.2c0.9-2.1,2.2-3.9,3.9-5.3c1.7-1.5,3.7-2.5,6-3.3c2.3-0.7,5-1.1,7.9-1.1c2.6,0,5.1,0.3,7.5,0.8
			c2.4,0.5,5,1.2,7.7,2.2c-0.2,1.6-0.6,3.4-1.1,5.4c-0.5,2-1.2,3.8-2,5.5c-1.3-0.6-2.9-1.1-4.7-1.8c-1.8-0.6-4-0.9-6.6-0.9
			c-0.8,0-1.6,0.1-2.3,0.2c-0.7,0.2-1.4,0.4-2,0.7c-0.6,0.3-1.1,0.8-1.4,1.4c-0.4,0.6-0.5,1.3-0.5,2.2c0,1.5,0.5,2.6,1.5,3.3
			c1,0.7,2.1,1.3,3.4,1.8L1006.2,81z"/>
	</g>
	<g>
		<path class="st4" d="M573.6,55.5c1.1,0,2.3,0.1,3.7,0.2c1.2,0.1,2.5,0.2,4,0.4c1.4,0.1,2.7,1.1,3.1,2.5l16.9,54.6
			c0.3,1,0.2,2.1-0.4,3c-0.6,0.9-1.5,1.5-2.5,1.7c-3.1,0.5-5.8,0.7-8.2,0.7c-1.1,0-2.3-0.1-3.4-0.2c-1.1-0.1-2.3-0.3-3.5-0.5
			c-1.4-0.2-2.5-1.3-2.9-2.6l-2-7.2c-0.3,0.1-0.6,0.1-0.9,0.2c-1.5,0.2-2.9,0.3-4.4,0.3c-1.4,0-2.7-0.1-4.1-0.3
			c-0.2,0-0.5-0.1-0.7-0.1l-1.9,7.1c-0.4,1.4-1.5,2.4-2.9,2.6c-1.2,0.2-2.4,0.4-3.4,0.5c-1.1,0.1-2.2,0.2-3.2,0.2s-2.2-0.1-3.6-0.2
			c-1.3-0.1-2.7-0.3-4.2-0.6c-1-0.2-1.9-0.8-2.5-1.7c-0.5-0.9-0.7-2-0.4-3l17.1-54.5c0.4-1.4,1.6-2.4,3-2.5c1.4-0.2,2.6-0.3,3.8-0.4
			C571.2,55.6,572.4,55.5,573.6,55.5 M573.1,90.8c0.2,0,0.5,0,0.7,0l-0.5-2.1l-0.5,2.1C572.9,90.8,573,90.8,573.1,90.8 M573.6,52.8
			c-1.3,0-2.5,0.1-3.9,0.2c-1.2,0.1-2.5,0.2-3.9,0.4c-2.5,0.3-4.6,2-5.3,4.4l-17.1,54.5c-0.5,1.7-0.3,3.6,0.6,5.2
			c1,1.6,2.5,2.6,4.3,2.9c1.6,0.3,3.1,0.5,4.4,0.6c1.4,0.2,2.7,0.2,3.8,0.2s2.3-0.1,3.5-0.2c1.1-0.1,2.3-0.3,3.6-0.5
			c2.4-0.4,4.4-2.2,5-4.6l1.3-4.8c0.9,0.1,1.9,0.1,2.8,0.1c1.1,0,2.2-0.1,3.4-0.2l1.3,4.9c0.6,2.4,2.6,4.2,5,4.6
			c1.3,0.2,2.6,0.4,3.7,0.5c1.2,0.1,2.5,0.2,3.7,0.2c2.5,0,5.4-0.3,8.6-0.8c1.8-0.3,3.4-1.3,4.4-2.9s1.2-3.5,0.7-5.2L587,57.8
			c-0.8-2.4-2.9-4.2-5.4-4.4c-1.5-0.2-2.8-0.3-4-0.4C576.2,52.8,574.9,52.8,573.6,52.8L573.6,52.8z"/>
		<path class="st4" d="M627.4,55c2.6,0,5.2,0.2,7.6,0.6c2.5,0.4,5.2,1.2,8.1,2.5c1.4,0.6,2.3,2,2.2,3.5c-0.1,2.4-0.6,4.8-1.3,7.1
			c-0.7,2.2-1.5,4-2.3,5.6c-0.6,1.2-1.9,2-3.2,2c-0.4,0-0.8-0.1-1.2-0.2c-1-0.3-1.8-0.6-2.6-0.9c-0.7-0.2-1.4-0.4-2.1-0.5
			c-0.6-0.1-1.3-0.2-1.9-0.3c-0.6-0.1-1.3-0.1-2.1-0.1c-3,0-5.2,0.9-6.7,2.8c-1.7,2.1-2.6,5.5-2.6,10.1s0.8,7.9,2.5,9.9
			c1.3,1.6,3.3,2.5,5.9,2.6V84.8c0-1.8,1.3-3.3,3.1-3.6c1.4-0.2,2.7-0.4,3.8-0.5c1.2-0.1,2.3-0.2,3.3-0.2s2.1,0.1,3.4,0.2
			c1.3,0.1,2.6,0.3,3.9,0.5c1.7,0.3,3,1.8,3,3.6v27.8c0,1.5-0.9,2.9-2.4,3.4c-3.3,1.2-6.5,2-9.7,2.4c-3.1,0.4-5.7,0.6-8,0.6
			c-4.9,0-9.4-0.8-13.2-2.4s-7.1-3.9-9.7-6.8c-2.6-2.9-4.6-6.3-5.8-10.3c-1.2-3.8-1.9-8-1.9-12.4s0.7-8.6,1.9-12.5
			c1.3-3.9,3.3-7.4,5.8-10.3c2.6-2.9,5.8-5.3,9.5-6.9C618.6,55.9,622.8,55,627.4,55 M627.4,52.3c-5,0-9.6,0.9-13.6,2.7
			c-4.1,1.8-7.6,4.4-10.5,7.6c-2.8,3.2-4.9,6.9-6.3,11.2c-1.4,4.1-2.1,8.6-2.1,13.4c0,4.7,0.7,9.2,2,13.3c1.4,4.3,3.6,8.1,6.4,11.2
			c2.9,3.2,6.5,5.7,10.7,7.4c4.1,1.7,8.9,2.6,14.2,2.6c2.3,0,5.1-0.2,8.3-0.6c3.4-0.4,6.9-1.3,10.3-2.6c2.5-0.9,4.1-3.3,4.1-5.9
			V84.8c0-3.1-2.2-5.7-5.3-6.3c-1.3-0.2-2.6-0.4-4-0.5c1-0.6,1.8-1.5,2.4-2.5c0.9-1.7,1.7-3.7,2.4-6c0.8-2.5,1.3-5.1,1.5-7.8
			c0.1-2.7-1.4-5.1-3.9-6.2c-3.1-1.3-6.1-2.2-8.8-2.6C632.8,52.5,630.2,52.3,627.4,52.3L627.4,52.3z M624.9,96.2
			c-0.5-0.3-0.9-0.6-1.1-0.9c-0.8-1-1.8-3.3-1.8-8.2c0-5,1.1-7.3,1.9-8.4c0.7-0.9,1.8-1.8,4.6-1.8c0.7,0,1.3,0,1.8,0.1
			c0.6,0.1,1.1,0.1,1.7,0.3c0.6,0.1,1.2,0.3,1.8,0.5c0.3,0.1,0.5,0.2,0.8,0.2c-0.1,0-0.2,0-0.3,0c-1.2,0.1-2.5,0.3-4,0.5
			c-3.1,0.5-5.4,3.2-5.4,6.3V96.2L624.9,96.2z"/>
		<path class="st4" d="M689.8,55.6c1,0,2.1,0,3.2,0.1c1.2,0.1,2.5,0.2,4.1,0.4c1.8,0.2,3.1,1.8,3.1,3.6V91c0,4-0.3,7.7-1,10.9
			c-0.7,3.5-2.1,6.6-4,9.1c-2,2.6-4.7,4.7-8,6c-3.2,1.3-7.1,2-11.6,2c-4.6,0-8.5-0.7-11.6-2c-3.3-1.4-6-3.4-8-6
			c-1.9-2.5-3.2-5.6-4-9.1c-0.7-3.2-1-6.9-1-10.9V59.7c0-1.8,1.3-3.3,3.1-3.6c1.6-0.2,2.9-0.4,4.1-0.4c1.2-0.1,2.3-0.1,3.3-0.1
			c0.9,0,2,0,3.1,0.1s2.4,0.2,4,0.4c1.8,0.2,3.1,1.8,3.1,3.6v29.6c0,2.4,0.1,4.4,0.3,6.1s0.5,2.7,0.8,3.2c0.3,0.6,0.5,0.7,0.6,0.7
			c0.2,0.1,0.8,0.3,2.2,0.3c1.3,0,2-0.2,2.3-0.4c0.1-0.1,0.4-0.2,0.6-0.7c0.2-0.5,0.6-1.5,0.7-3.2c0.2-1.7,0.2-3.7,0.2-6.1V59.7
			c0-1.8,1.3-3.4,3.2-3.6c1.6-0.2,3-0.4,4.1-0.4C687.8,55.6,688.9,55.6,689.8,55.6 M689.8,52.9c-1,0-2.1,0-3.3,0.1s-2.6,0.2-4.2,0.5
			c-3.1,0.4-5.5,3.1-5.5,6.3v29.6c0,2.3-0.1,4.3-0.2,5.9c-0.1,0.8-0.2,1.4-0.3,1.7c-0.2,0-0.4,0-0.6,0c-0.2,0-0.4,0-0.5,0
			c-0.1-0.4-0.2-1-0.3-1.8c-0.2-1.5-0.3-3.5-0.3-5.8V59.7c0-3.2-2.4-5.9-5.5-6.3c-1.6-0.2-3-0.4-4.2-0.5s-2.3-0.1-3.3-0.1
			c-1.1,0-2.3,0-3.5,0.1s-2.6,0.2-4.2,0.5c-3.1,0.4-5.5,3.1-5.5,6.3V91c0,4.2,0.4,8.1,1.1,11.5c0.8,3.9,2.3,7.3,4.4,10.2
			c2.3,3,5.3,5.4,9.1,6.9c3.5,1.4,7.7,2.2,12.7,2.2c4.9,0,9.2-0.7,12.7-2.2c3.8-1.6,6.9-3.9,9.1-6.9c2.1-2.8,3.6-6.3,4.4-10.2
			c0.7-3.4,1.1-7.3,1.1-11.5V59.7c0-3.2-2.4-5.9-5.5-6.3c-1.6-0.2-3-0.4-4.2-0.5C692,52.9,690.9,52.9,689.8,52.9L689.8,52.9z"/>
		<path class="st4" d="M714.1,55.5c1,0,2.2,0.1,3.4,0.2c1.2,0.1,2.5,0.3,3.9,0.5c1.8,0.3,3.1,1.8,3.1,3.6v54.5c0,1.8-1.3,3.3-3,3.6
			c-2.9,0.5-5.3,0.7-7.3,0.7c-2.1,0-4.6-0.2-7.4-0.7c-1.7-0.3-3-1.8-3-3.6V59.7c0-1.8,1.3-3.3,3.1-3.6c1.4-0.2,2.8-0.4,3.9-0.5
			C712,55.6,713.1,55.5,714.1,55.5 M714.1,52.8c-1.1,0-2.2,0.1-3.6,0.2c-1.2,0.1-2.6,0.3-4.1,0.5c-3.1,0.5-5.4,3.2-5.4,6.3v54.5
			c0,3.1,2.2,5.7,5.3,6.3c3,0.5,5.6,0.8,7.9,0.8c2.2,0,4.7-0.3,7.8-0.8s5.3-3.2,5.3-6.3V59.7c0-3.2-2.3-5.8-5.4-6.3
			c-1.4-0.2-2.8-0.4-4.1-0.5C716.4,52.8,715.2,52.8,714.1,52.8L714.1,52.8z"/>
		<path class="st4" d="M804.1,55.5c1.1,0,2.3,0.1,3.7,0.2c1.2,0.1,2.5,0.2,4,0.4c1.4,0.1,2.7,1.1,3.1,2.5l16.6,53.9V59.7
			c0-1.8,1.3-3.3,3.1-3.6c1.4-0.2,2.8-0.4,3.9-0.5c1.2-0.1,2.3-0.2,3.3-0.2s2.2,0.1,3.4,0.2c1.2,0.1,2.5,0.3,3.9,0.5
			c1.8,0.3,3.1,1.8,3.1,3.6v39.1h14c1.7,0,3.2,1.2,3.6,2.9c0.3,1.4,0.5,2.6,0.6,3.7s0.1,2,0.1,2.8c0,1,0,2-0.1,3
			c-0.1,1.1-0.3,2.3-0.6,3.8c-0.3,1.7-1.8,2.9-3.6,2.9h-31.1c-1.6,0-3-1.1-3.5-2.6c-0.1,0.2-0.2,0.5-0.3,0.7
			c-0.6,0.9-1.5,1.5-2.5,1.7c-3.1,0.5-5.8,0.7-8.2,0.7c-1.1,0-2.3-0.1-3.4-0.2c-1.1-0.1-2.3-0.3-3.5-0.5c-1.4-0.2-2.5-1.3-2.9-2.6
			l-2-7.2c-0.3,0.1-0.6,0.1-0.9,0.2c-1.5,0.2-2.9,0.3-4.4,0.3c-1.4,0-2.7-0.1-4.1-0.3c-0.2,0-0.5-0.1-0.7-0.1l-1.9,7.1
			c-0.4,1.4-1.5,2.4-2.9,2.6c-1.2,0.2-2.4,0.4-3.4,0.5c-1.1,0.1-2.2,0.2-3.2,0.2s-2.2-0.1-3.6-0.2c-1.3-0.1-2.7-0.3-4.2-0.6
			c-1-0.2-1.9-0.8-2.5-1.7c-0.2-0.3-0.3-0.6-0.4-0.8c-0.3,1.2-1.2,2.1-2.4,2.5c-0.7,0.2-1.5,0.4-2.7,0.6c-1.1,0.2-2.4,0.3-3.7,0.3
			c-1.5,0-2.8-0.1-4.1-0.3c-1.1-0.2-1.9-0.3-2.4-0.5c-1-0.2-1.8-0.8-2.3-1.7l-11-18.5v16.6c0,1.7-1.2,3.2-2.9,3.6
			c-2.5,0.5-4.8,0.8-6.8,0.8c-2.1,0-4.4-0.3-6.9-0.8c-1.7-0.3-2.9-1.8-2.9-3.6V59.7c0-1.8,1.3-3.3,3-3.6c1.2-0.2,2.3-0.4,3.3-0.5
			s2-0.2,3-0.2c1.1,0,2.2,0.1,3.4,0.2c1.1,0.1,2,0.3,2.9,0.5c1,0.2,1.8,0.8,2.4,1.7l11,18.5V59.7c0-1.8,1.3-3.3,3.1-3.6
			c1.4-0.2,2.7-0.4,3.8-0.5c1.2-0.1,2.3-0.2,3.2-0.2c1,0,2,0.1,3.1,0.2c1.1,0.1,2.2,0.3,3.4,0.5c1.7,0.3,3,1.8,3,3.6l-0.1,52.9
			l17-54c0.4-1.4,1.6-2.4,3-2.5c1.4-0.2,2.6-0.3,3.8-0.4C801.7,55.6,802.8,55.5,804.1,55.5 M803.6,90.8c0.2,0,0.5,0,0.7,0l-0.5-2.1
			l-0.5,2.1C803.4,90.8,803.5,90.8,803.6,90.8 M804.1,52.8L804.1,52.8c-1.3,0-2.5,0.1-3.9,0.2c-1.2,0.1-2.5,0.2-3.9,0.4
			c-2.5,0.3-4.6,2-5.3,4.4l-11.6,37v-35c0-3.1-2.2-5.7-5.2-6.2c-1.2-0.2-2.4-0.4-3.6-0.5c-1.2-0.1-2.3-0.2-3.4-0.2
			c-1.1,0-2.2,0.1-3.5,0.2c-1.2,0.1-2.5,0.3-3.9,0.5c-3.1,0.5-5.4,3.1-5.4,6.3v6.7l-5.9-10c-0.9-1.5-2.4-2.6-4.1-3
			c-0.9-0.2-1.9-0.4-3.1-0.5c-1.3-0.2-2.5-0.2-3.7-0.2c-1.1,0-2.2,0.1-3.3,0.2c-1.1,0.1-2.2,0.3-3.5,0.5c-3,0.5-5.2,3.2-5.2,6.2
			v54.5c0,3,2.1,5.6,5.1,6.2c2.7,0.5,5.2,0.8,7.4,0.8s4.7-0.3,7.4-0.8c2.9-0.6,5.1-3.2,5.1-6.2v-6.8l6,10c0.9,1.5,2.4,2.6,4.1,2.9
			c0.5,0.1,1.3,0.3,2.5,0.5c1.4,0.2,2.9,0.4,4.5,0.4c1.4,0,2.8-0.1,4.1-0.3c1.3-0.2,2.3-0.4,3-0.6c0.6-0.2,1.2-0.5,1.7-0.8
			c0.7,0.4,1.5,0.8,2.3,0.9c1.6,0.3,3.1,0.5,4.4,0.6c1.4,0.2,2.7,0.2,3.8,0.2s2.3-0.1,3.5-0.2c1.1-0.1,2.3-0.3,3.6-0.5
			c2.4-0.4,4.4-2.2,5-4.6l1.3-4.8c0.9,0.1,1.9,0.1,2.8,0.1c1.1,0,2.2-0.1,3.4-0.2l1.3,4.9c0.6,2.4,2.6,4.2,5,4.6
			c1.3,0.2,2.6,0.4,3.7,0.5c1.2,0.1,2.5,0.2,3.7,0.2c2.5,0,5.4-0.3,8.6-0.8c0.8-0.1,1.6-0.4,2.3-0.8c1,0.7,2.3,1.1,3.6,1.1h31.1
			c3,0,5.7-2.2,6.2-5.2c0.3-1.6,0.5-2.9,0.6-4.1c0.1-1.1,0.1-2.2,0.1-3.2c0-0.9,0-1.9-0.1-3.1s-0.3-2.5-0.6-4.1
			c-0.6-3-3.2-5.1-6.2-5.1h-11.3V59.7c0-3.2-2.3-5.8-5.4-6.3c-1.4-0.2-2.8-0.4-4.1-0.5s-2.6-0.2-3.7-0.2c-1.1,0-2.2,0.1-3.6,0.2
			c-1.2,0.1-2.6,0.3-4.1,0.5c-3.1,0.5-5.4,3.2-5.4,6.3v34.7L817,57.8c-0.8-2.4-2.9-4.2-5.4-4.4c-1.5-0.2-2.8-0.3-4-0.4
			C806.6,52.8,805.3,52.8,804.1,52.8L804.1,52.8z"/>
		<path class="st4" d="M889.7,55c10.5,0,18.8,2.8,24.4,8.2c5.7,5.5,8.6,13.6,8.6,24.1c0,10.7-3,18.8-8.9,24
			c-5.7,5.1-14.2,7.7-25,7.7c-2.7,0-5.2-0.1-7.7-0.4c-2.4-0.2-4.8-0.5-7.1-0.8c-1.8-0.2-3.1-1.8-3.1-3.6V59.7c0-1.8,1.3-3.4,3.2-3.6
			c0.8-0.1,1.8-0.2,3-0.4c1.2-0.1,2.5-0.2,3.9-0.4c1.4-0.1,2.8-0.2,4.3-0.3C886.7,55.1,888.2,55,889.7,55 M891.6,99.8
			c1.3-0.1,2.5-0.3,3.7-0.6c1.2-0.3,2.2-0.9,3-1.7c0.9-0.8,1.6-2,2.1-3.6c0.6-1.7,0.9-4,0.9-6.8s-0.3-5.1-0.9-6.8
			c-0.6-1.6-1.3-2.9-2.2-3.7c-0.8-0.8-1.8-1.4-2.9-1.8c-1.2-0.4-2.4-0.6-3.7-0.6L891.6,99.8 M889.7,52.3c-1.5,0-3,0-4.6,0.1
			c-1.5,0.1-2.9,0.2-4.4,0.3c-1.4,0.1-2.8,0.2-4,0.4c-1.2,0.1-2.2,0.3-3.1,0.4c-3.1,0.4-5.5,3.1-5.5,6.3v54.5c0,3.2,2.4,5.9,5.5,6.3
			c2.4,0.3,4.8,0.6,7.2,0.8c2.6,0.2,5.2,0.4,8,0.4c11.5,0,20.5-2.8,26.8-8.4c6.5-5.7,9.8-14.5,9.8-26c0-11.3-3.2-20-9.4-26.1
			C909.8,55.3,900.9,52.3,889.7,52.3L889.7,52.3z M894.3,96.7V77.5h0.1c0.7,0.2,1.3,0.6,1.8,1.1c0.4,0.4,1,1.2,1.5,2.7
			c0.5,1.4,0.8,3.5,0.8,5.9c0,3.1-0.4,4.9-0.7,5.9c-0.4,1.1-0.9,2-1.4,2.5s-1.1,0.8-1.8,1C894.5,96.7,894.4,96.7,894.3,96.7
			L894.3,96.7z"/>
		<path class="st4" d="M951.3,55c4.7,0,8.9,0.9,12.3,2.5c3.5,1.7,6.4,4.1,8.7,7c2.2,2.9,3.9,6.4,5,10.3c1,3.8,1.5,7.9,1.5,12.3
			s-0.5,8.5-1.5,12.2c-1.1,3.9-2.7,7.3-5,10.2c-2.3,3-5.3,5.3-8.8,6.9s-7.6,2.4-12.3,2.4s-8.8-0.8-12.3-2.4s-6.5-4-8.8-6.9
			c-2.2-2.9-3.9-6.3-5-10.2c-1-3.7-1.5-7.8-1.5-12.2c0-4.4,0.5-8.5,1.5-12.3c1.1-3.9,2.7-7.4,5-10.3c2.3-3,5.3-5.4,8.8-7.1
			C942.4,55.9,946.6,55,951.3,55 M951.3,100.1c1.7,0,6.1,0,6.1-12.9c0-13-4.6-13-6.1-13c-1.7,0-6.3,0-6.3,13c0,6.1,1,9.1,1.9,10.6
			C947.9,99.4,949.2,100.1,951.3,100.1 M951.3,52.3c-5.1,0-9.7,0.9-13.5,2.8c-3.9,1.9-7.2,4.5-9.8,7.8c-2.5,3.2-4.3,7-5.4,11.3
			c-1.1,4-1.6,8.4-1.6,13s0.6,9,1.6,12.9c1.2,4.2,3,8,5.5,11.2c2.6,3.3,5.9,5.9,9.8,7.7c3.9,1.8,8.4,2.7,13.5,2.7s9.6-0.9,13.4-2.7
			c3.9-1.8,7.2-4.4,9.8-7.7c2.5-3.2,4.3-6.9,5.5-11.2c1.1-4,1.6-8.3,1.6-12.9s-0.5-9-1.6-13c-1.2-4.3-3-8.1-5.4-11.3
			c-2.6-3.3-5.8-6-9.7-7.8C960.9,53.3,956.4,52.3,951.3,52.3L951.3,52.3z M951.3,97.4c-1.3,0-1.6-0.3-2-1c-0.5-0.8-1.5-3.2-1.5-9.2
			c0-6.4,1.2-8.8,1.9-9.6c0.5-0.6,1-0.6,1.7-0.6c0.6,0,1,0,1.5,0.6c0.7,0.8,1.9,3.2,1.9,9.7c0,6.4-1.1,8.7-1.8,9.5
			C952.4,97.3,952,97.4,951.3,97.4L951.3,97.4z"/>
		<path class="st4" d="M1003.1,55c2.8,0,5.6,0.3,8.3,0.8c2.6,0.5,5.3,1.3,8.2,2.3c1.6,0.6,2.6,2.2,2.4,3.9c-0.2,1.8-0.6,3.8-1.2,5.9
			c-0.6,2.2-1.3,4.2-2.2,6.1c-0.6,1.3-1.9,2.1-3.3,2.1c-0.5,0-0.9-0.1-1.4-0.3c-1.2-0.5-2.7-1.1-4.4-1.7c-1.4-0.5-3.2-0.7-5.5-0.7
			c-0.6,0-1.1,0.1-1.6,0.2c-0.4,0.1-0.7,0.2-0.9,0.3c0,0-0.1,0-0.1,0.1c0,0,0,0.1,0,0.3c0,0.2,0,0.3,0,0.4c0.7,0.5,1.5,0.9,2.5,1.3
			l3.7,1.5l0,0c2.2,0.9,4.3,1.8,6.1,2.8c2,1.1,3.8,2.4,5.3,3.9c1.6,1.6,2.8,3.5,3.6,5.8c0.8,2.2,1.2,4.7,1.2,7.7
			c0,3.2-0.6,6.1-1.7,8.7c-1.2,2.7-2.9,5-5.1,6.9c-2.2,1.9-4.9,3.3-8,4.3c-3,0.9-6.5,1.4-10.3,1.4c-3.4,0-6.5-0.3-9.1-0.8
			s-5.4-1.4-8.4-2.5c-1.5-0.6-2.5-2.2-2.3-3.8c0.2-1.9,0.6-4,1.2-6.2c0.5-2.1,1.2-4.2,1.9-6.4c0.3-1,1-1.7,2-2.1
			c0.5-0.2,1-0.3,1.5-0.3s1,0.1,1.4,0.3c4.2,1.8,7.8,2.8,10.8,2.8c2.5,0,3.7-0.4,4.3-0.7c0.1-0.1,0.3-0.2,0.3-0.9c0-0.3,0-0.4,0-0.4
			c-0.1-0.1-0.2-0.2-0.3-0.3c-0.3-0.2-0.6-0.4-0.9-0.5c-0.6-0.3-1.2-0.5-1.8-0.7l-4.2-1.6c-2-0.7-3.9-1.6-5.6-2.7
			c-1.8-1.1-3.4-2.5-4.7-4c-1.4-1.6-2.4-3.4-3.1-5.4c-0.7-2-1.1-4.4-1.1-7c0-3.2,0.6-6.1,1.7-8.6c1.1-2.6,2.7-4.8,4.8-6.6
			c2-1.8,4.5-3.1,7.3-4C996.8,55.5,999.8,55,1003.1,55 M1003.1,52.3c-3.5,0-6.8,0.5-9.8,1.4c-3.2,1-6,2.5-8.3,4.6s-4.2,4.6-5.5,7.5
			c-1.3,2.9-1.9,6.2-1.9,9.7c0,2.9,0.4,5.6,1.3,7.9c0.8,2.3,2.1,4.5,3.6,6.3c1.5,1.7,3.3,3.3,5.4,4.5c0.8,0.5,1.6,0.9,2.4,1.3
			c-0.8-0.3-1.6-0.6-2.4-1c-0.8-0.3-1.7-0.5-2.5-0.5c-0.9,0-1.8,0.2-2.6,0.5c-1.6,0.7-2.9,2.1-3.4,3.8c-0.8,2.2-1.4,4.5-2,6.6
			c-0.6,2.3-1,4.5-1.2,6.5c-0.3,2.9,1.3,5.6,4,6.6c3.1,1.2,6,2.1,8.8,2.6c2.8,0.6,6.1,0.9,9.7,0.9c4.1,0,7.8-0.5,11.1-1.6
			c3.5-1.1,6.5-2.7,9-4.8c2.6-2.2,4.5-4.8,5.9-7.9c1.3-3,1.9-6.3,1.9-9.8c0-3.2-0.5-6.1-1.4-8.6c-1-2.6-2.4-4.8-4.2-6.7
			c-1.3-1.3-2.8-2.5-4.5-3.6c2-0.4,3.7-1.7,4.6-3.5c1-2.1,1.8-4.3,2.4-6.6c0.6-2.2,1-4.3,1.3-6.3c0.4-2.9-1.4-5.8-4.2-6.8
			c-3-1.1-5.9-1.9-8.5-2.4C1009.1,52.6,1006.1,52.3,1003.1,52.3L1003.1,52.3z"/>
	</g>
</g>
</svg>
