<?xml version="1.0" encoding="utf-8"?>
<!-- Generator: Adobe Illustrator 27.7.0, SVG Export Plug-In . SVG Version: 6.00 Build 0)  -->
<svg version="1.1" id="Landing_Page" xmlns="http://www.w3.org/2000/svg" xmlns:xlink="http://www.w3.org/1999/xlink" x="0px"
	 y="0px" viewBox="0 0 1626 483" style="enable-background:new 0 0 1626 483;" xml:space="preserve">
<style type="text/css">
	.st0{fill:#FFFFFF;}
	.st1{fill:#6196CA;}
	.st2{fill:#36A2DA;}
	.st3{fill:#005CB9;}
	.st4{fill:#004879;}
	.st5{fill:none;stroke:#FFFFFF;stroke-width:7.2881;stroke-miterlimit:10;}
	.st6{fill:#FF0000;}
</style>
<g>
	<g>
		<path class="st0" d="M438.83,231.53c-1.72-1.65-3.68-2.94-5.82-3.85c-0.74-0.31-1.48-0.58-2.21-0.82
			c0.33-0.18,0.65-0.38,0.98-0.58c1.61-1.03,3.03-2.35,4.23-3.89c1.19-1.53,2.17-3.32,2.89-5.33c0.72-2,1.08-4.19,1.08-6.5
			c0-3.79-0.7-7.06-2.1-9.73c-1.39-2.68-3.38-4.9-5.92-6.6c-2.49-1.67-5.5-2.89-8.97-3.63c-3.38-0.72-7.15-1.08-11.25-1.08
			c-3.28,0-6.55,0.1-9.7,0.32c-3.29,0.22-5.77,0.5-7.58,0.86l-1.01,0.21v78.19l1.12,0.14c2.77,0.34,5.81,0.65,9.03,0.9
			c3.21,0.25,6.2,0.37,8.88,0.37c4.37,0,8.53-0.4,12.37-1.19c3.91-0.81,7.36-2.15,10.25-3.99c2.96-1.87,5.32-4.34,7.03-7.36
			c1.73-3.04,2.6-6.75,2.6-11.05c0-3.54-0.55-6.61-1.64-9.12C442,235.3,440.57,233.18,438.83,231.53 M406.66,233.83h7.6
			c2.45,0,4.75,0.22,6.82,0.65c2.02,0.42,3.76,1.14,5.19,2.13c1.41,0.97,2.53,2.27,3.34,3.87c0.83,1.62,1.25,3.63,1.25,6.03
			c0,2.43-0.44,4.44-1.31,5.98c-0.88,1.54-2.09,2.77-3.57,3.66c-1.55,0.95-3.38,1.62-5.45,2.01c-3.43,0.66-7.37,0.7-11.33,0.51
			c-0.96-0.05-1.81-0.1-2.53-0.17V233.83z M423.3,219.57c-2.3,1.88-5.73,2.83-10.2,2.83h-6.44v-21.6c0.63-0.07,1.33-0.13,2.12-0.17
			c1.33-0.07,2.67-0.1,4.01-0.1c4.35,0,7.81,0.91,10.29,2.71c2.39,1.74,3.54,4.35,3.54,7.95
			C426.63,214.99,425.54,217.72,423.3,219.57"/>
		<path class="st0" d="M471.87,211.2c-2.71,0-5.58,0.22-8.52,0.64c-2.97,0.44-5.71,1.06-8.14,1.85l-0.88,0.28v0.93
			c0,3.45,0.73,6.47,2.17,8.98l0.52,0.89l0.97-0.3c1.98-0.61,4.04-1.12,6.14-1.5c2.08-0.37,4.34-0.57,6.7-0.57
			c3.7,0,6.54,0.73,8.42,2.17c1.78,1.37,2.67,3.95,2.67,7.67v0.57c-0.69-0.07-1.45-0.15-2.27-0.2c-1.51-0.1-3.41-0.17-5.65-0.17
			c-3.13,0-6.15,0.39-8.99,1.16c-2.89,0.77-5.47,1.97-7.71,3.58c-2.27,1.62-4.08,3.69-5.4,6.15c-1.34,2.46-2.01,5.35-2.01,8.58
			c0,3.28,0.58,6.14,1.72,8.48c1.15,2.37,2.8,4.35,4.89,5.87c2.07,1.5,4.6,2.6,7.55,3.27c2.85,0.66,6.09,0.99,9.64,0.99
			c3.71,0,7.4-0.3,11-0.92c3.51-0.59,6.56-1.18,9.06-1.76l0.99-0.22v-34.96c0-7.39-1.99-12.89-5.93-16.33
			C484.91,212.92,479.22,211.2,471.87,211.2 M481.92,243.62v15.1c-1.04,0.23-2.2,0.4-3.45,0.53c-2.93,0.3-5.73,0.36-8.78,0.05
			c-1.25-0.12-2.34-0.45-3.38-1.01c-0.98-0.53-1.78-1.29-2.45-2.32c-0.63-0.97-0.95-2.41-0.95-4.28c0-2.9,0.95-4.98,2.89-6.36
			c2.07-1.46,5.17-2.2,9.25-2.2c1.08,0,2.43,0.06,4.02,0.21C480.21,243.44,481.14,243.53,481.92,243.62"/>
		<path class="st0" d="M532.15,211.19c-2.3,0-4.46,0.33-6.43,0.96c-1.93,0.64-3.69,1.48-5.18,2.49c-1.46,0.99-2.8,2.14-3.98,3.42
			c-0.23,0.26-0.47,0.52-0.69,0.79c-0.03-0.32-0.07-0.65-0.1-0.98c-0.22-1.82-0.44-3.28-0.65-4.38l-0.17-0.85l-0.86-0.16
			c-0.75-0.14-1.51-0.24-2.27-0.33c-1.44-0.15-3.12-0.15-4.69,0c-0.81,0.09-1.62,0.19-2.38,0.33l-1.04,0.18v56.38l1.05,0.19
			c0.83,0.14,1.76,0.26,2.78,0.33c2.15,0.15,3.35,0.14,5.41,0c0.97-0.07,1.88-0.18,2.72-0.33l1.06-0.19v-28.56
			c0-3.16,0.38-5.88,1.14-8.1c0.75-2.19,1.73-3.97,2.96-5.31c1.2-1.32,2.62-2.32,4.19-2.95c1.61-0.64,3.33-0.97,5.12-0.97
			c2.95,0,5.03,0.98,6.33,2.96c1.41,2.13,2.12,5.62,2.12,10.35v32.57l1.04,0.19c0.83,0.14,1.74,0.26,2.74,0.33
			c1.02,0.08,1.9,0.11,2.66,0.11c0.77,0,1.66-0.03,2.75-0.11c1.01-0.07,1.94-0.19,2.78-0.33l1.05-0.19v-35.43
			c0-7.25-1.6-12.84-4.73-16.62C543.68,213.14,538.72,211.19,532.15,211.19"/>
		<path class="st0" d="M602.83,261.91c-0.45-1.59-0.97-2.9-1.59-3.99l-0.54-0.95l-1.03,0.4c-1.77,0.68-3.5,1.15-5.19,1.41
			c-1.72,0.28-3.63,0.41-5.67,0.41c-4.91,0-8.79-1.46-11.55-4.32c-2.78-2.88-4.19-7.57-4.19-13.97c0-5.62,1.26-10.16,3.75-13.51
			c2.46-3.28,6.1-4.88,11.14-4.88c4.26,0,8.13,0.58,11.42,1.73l1.09,0.37l0.49-1.03c0.58-1.27,1.07-2.77,1.41-4.47
			c0.32-1.66,0.49-3.15,0.49-4.43v-0.88l-0.83-0.31c-2.12-0.8-4.37-1.39-6.69-1.77c-2.34-0.35-5.05-0.54-8.03-0.54
			c-4.54,0-8.6,0.79-12.04,2.33c-3.46,1.54-6.41,3.68-8.75,6.35c-2.32,2.66-4.09,5.83-5.28,9.43c-1.15,3.56-1.74,7.46-1.74,11.6
			c0,8.96,2.42,16.2,7.21,21.52c4.8,5.37,11.98,8.09,21.33,8.09c5.5,0,10.47-0.85,14.74-2.52l0.86-0.33l-0.04-0.91
			C603.55,265.12,603.29,263.48,602.83,261.91"/>
		<path class="st0" d="M654.39,219.89c-2.24-2.68-5.05-4.82-8.37-6.36c-3.32-1.55-7.24-2.33-11.63-2.33
			c-4.39,0-8.31,0.78-11.63,2.33c-3.33,1.55-6.13,3.69-8.38,6.36c-2.21,2.66-3.88,5.84-4.94,9.44c-1.06,3.54-1.59,7.43-1.59,11.57
			c0,4.13,0.53,8.03,1.59,11.57c1.06,3.6,2.73,6.77,4.94,9.44c2.24,2.68,5.05,4.8,8.39,6.32c3.32,1.51,7.24,2.28,11.62,2.28
			c4.39,0,8.3-0.76,11.62-2.28c3.33-1.51,6.15-3.64,8.39-6.32c2.2-2.66,3.87-5.83,4.94-9.44c1.06-3.54,1.59-7.44,1.59-11.57
			c0-4.14-0.53-8.03-1.59-11.57C658.26,225.73,656.59,222.55,654.39,219.89 M634.38,259.62c-4.45,0-7.6-1.55-9.66-4.71
			c-2.15-3.29-3.22-8-3.22-14c0-5.99,1.07-10.69,3.21-13.95c2.06-3.14,5.22-4.66,9.67-4.66c4.45,0,7.64,1.52,9.72,4.67
			c2.18,3.27,3.29,7.96,3.29,13.94c0,5.98-1.11,10.69-3.29,13.99C642.02,258.07,638.83,259.62,634.38,259.62"/>
		<path class="st0" d="M744.73,256.29l-0.54-1.07l-1.08,0.47c-2.04,0.88-4.24,1.56-6.54,2.04c-2.28,0.47-4.92,0.71-7.77,0.71
			c-3.63,0-6.94-0.57-9.86-1.7c-2.87-1.12-5.37-2.83-7.39-5.06c-2.05-2.24-3.66-5.15-4.81-8.63c-1.14-3.51-1.73-7.75-1.73-12.61
			c0-9.45,2.06-16.75,6.1-21.72c4.05-4.94,9.59-7.35,16.94-7.35c1.67,0,3.22,0.05,4.59,0.16c1.38,0.11,2.58,0.26,3.64,0.46
			c1.07,0.2,2.1,0.44,3.06,0.7c0.96,0.28,1.97,0.59,3.02,0.94l1.12,0.38l0.45-1.11c0.64-1.54,1.19-3.04,1.66-4.46
			c0.49-1.49,0.82-3.11,0.98-4.79l0.07-0.99l-0.94-0.32c-2.3-0.78-4.96-1.48-7.89-2.05c-2.97-0.57-6.54-0.87-10.6-0.87
			c-5.58,0-10.69,0.98-15.21,2.91c-4.52,1.92-8.4,4.73-11.55,8.31c-3.12,3.56-5.55,7.92-7.23,12.97
			c-1.66,5.01-2.49,10.67-2.49,16.84c0,6.11,0.83,11.68,2.5,16.59c1.66,4.94,4.12,9.2,7.23,12.65c3.16,3.47,7.05,6.18,11.61,8.05
			c4.54,1.85,9.7,2.78,15.35,2.78c3.64,0,7.1-0.29,10.27-0.86c3.19-0.58,6.33-1.53,9.35-2.83l0.9-0.38l-0.14-0.98
			C747.37,262.51,746.33,259.43,744.73,256.29"/>
		<path class="st0" d="M774.78,211.2c-2.72,0-5.59,0.22-8.53,0.64c-2.97,0.44-5.7,1.06-8.14,1.85l-0.88,0.28v0.93
			c0,3.45,0.73,6.47,2.18,8.98l0.51,0.89l0.97-0.3c1.99-0.61,4.03-1.12,6.15-1.5c2.07-0.37,4.33-0.57,6.69-0.57
			c3.71,0,6.56,0.73,8.42,2.17c1.78,1.37,2.68,3.95,2.68,7.67v0.57c-0.69-0.07-1.45-0.15-2.29-0.2c-1.51-0.1-3.42-0.17-5.64-0.17
			c-3.13,0-6.15,0.39-9,1.16c-2.89,0.77-5.47,1.98-7.7,3.58c-2.28,1.62-4.09,3.69-5.4,6.14c-1.35,2.47-2.01,5.36-2.01,8.58
			c0,3.28,0.58,6.14,1.71,8.48c1.14,2.36,2.79,4.34,4.9,5.87c2.07,1.5,4.61,2.61,7.55,3.27c2.86,0.66,6.11,0.99,9.65,0.99
			c3.7,0,7.39-0.3,10.99-0.92c3.51-0.59,6.56-1.18,9.06-1.76l0.99-0.22v-34.96c0-7.4-2-12.89-5.94-16.33
			C787.81,212.92,782.12,211.2,774.78,211.2 M784.82,243.62v15.1c-1.06,0.23-2.21,0.4-3.46,0.53c-2.93,0.3-5.74,0.36-8.78,0.05
			c-1.25-0.12-2.34-0.45-3.37-1.01c-0.99-0.54-1.79-1.3-2.45-2.32c-0.64-0.97-0.95-2.41-0.95-4.28c0-2.9,0.95-4.98,2.9-6.36
			c2.06-1.46,5.17-2.2,9.25-2.2c1.07,0,2.42,0.06,4.01,0.21C783.1,243.44,784.05,243.53,784.82,243.62"/>
		<path class="st0" d="M807.48,213.42c-0.14,0.64-0.27,1.33-0.35,2.14c-0.09,0.78-0.11,1.55-0.11,2.29c0,0.75,0.02,1.51,0.11,2.29
			c0.08,0.83,0.21,1.53,0.35,2.14l0.25,0.96h6.58v47.04c0,1.91-0.25,3.4-0.72,4.43c-0.47,0.99-1.05,1.73-1.71,2.2
			c-0.66,0.48-1.39,0.77-2.18,0.88c-3.31,0.46-6.03,0.14-8.2-0.58l-1.1-0.37l-0.46,1.07c-0.54,1.24-0.95,2.6-1.24,4.07
			c-0.3,1.49-0.48,2.94-0.55,4.3l-0.06,0.95l0.92,0.31c2.73,0.96,6.11,1.45,10.04,1.45c2.48,0,4.85-0.29,6.99-0.88
			c2.23-0.62,4.19-1.65,5.84-3.06c1.65-1.44,2.97-3.34,3.88-5.63c0.91-2.27,1.36-5.09,1.36-8.4v-58.58h-19.39L807.48,213.42z"/>
		<path class="st0" d="M811.79,201.86l0.13,0.93l0.94,0.14c0.88,0.14,1.86,0.26,3.02,0.38c1.09,0.12,2.04,0.17,2.89,0.17
			c0.82,0,1.76-0.06,2.82-0.17c1.13-0.12,2.07-0.24,2.89-0.38l0.91-0.16l0.13-0.92c0.14-1,0.25-1.98,0.34-2.88
			c0.06-0.95,0.1-1.79,0.1-2.59c0-0.78-0.04-1.66-0.1-2.58c-0.08-0.9-0.19-1.85-0.34-2.8l-0.14-0.9l-0.92-0.16
			c-0.82-0.14-1.78-0.26-2.87-0.38c-1.08-0.11-2.04-0.17-2.82-0.17c-0.8,0-1.74,0.06-2.89,0.17c-1.07,0.12-2.08,0.24-3.02,0.38
			l-0.93,0.14l-0.14,0.92c-0.13,0.89-0.24,1.8-0.33,2.79c-0.07,0.91-0.11,1.78-0.11,2.58s0.04,1.68,0.11,2.59
			C811.55,199.97,811.66,200.91,811.79,201.86"/>
		<path class="st0" d="M857.99,211.2c-2.73,0-5.6,0.22-8.54,0.64c-2.95,0.44-5.69,1.05-8.14,1.85l-0.88,0.28v0.94
			c0,3.45,0.73,6.48,2.18,8.98l0.5,0.89l0.98-0.3c1.99-0.62,4.04-1.12,6.15-1.5c2.07-0.37,4.32-0.57,6.69-0.57
			c3.71,0,6.56,0.73,8.42,2.17c1.79,1.37,2.68,3.95,2.68,7.67v0.57c-0.69-0.07-1.46-0.15-2.29-0.2c-1.51-0.1-3.4-0.17-5.64-0.17
			c-3.13,0-6.14,0.39-9,1.16c-2.88,0.77-5.46,1.97-7.71,3.58c-2.25,1.62-4.08,3.69-5.39,6.14c-1.34,2.46-2.01,5.35-2.01,8.58
			c0,3.28,0.58,6.15,1.71,8.48c1.14,2.37,2.8,4.34,4.88,5.87c2.08,1.5,4.61,2.61,7.56,3.27c2.86,0.66,6.1,0.99,9.65,0.99
			c3.7,0,7.4-0.3,11-0.92c3.51-0.59,6.57-1.18,9.06-1.76l0.99-0.22v-34.96c0-7.4-2-12.89-5.94-16.33
			C871.01,212.92,865.32,211.2,857.99,211.2 M868.02,243.62v15.1c-1.04,0.23-2.2,0.4-3.45,0.53c-2.95,0.3-5.75,0.36-8.79,0.05
			c-1.23-0.12-2.36-0.46-3.38-1.01c-0.98-0.53-1.78-1.3-2.44-2.32c-0.63-0.98-0.95-2.42-0.95-4.28c0-2.9,0.93-4.98,2.9-6.36
			c2.06-1.46,5.18-2.2,9.25-2.2c1.08,0,2.39,0.06,4.01,0.21C866.3,243.44,867.25,243.53,868.02,243.62"/>
		<path class="st0" d="M956.81,231.1c-1.64-1.75-3.63-3.29-5.91-4.57c-2.21-1.25-4.78-2.46-7.68-3.62l-5.92-2.33
			c-1.43-0.55-2.83-1.16-4.1-1.85c-1.23-0.64-2.31-1.39-3.22-2.2c-0.87-0.77-1.58-1.68-2.09-2.69c-0.52-0.99-0.76-2.09-0.76-3.38
			c0-3.2,1.01-5.51,3.1-7.06c2.15-1.62,5.34-2.45,9.48-2.45c3.07,0,5.85,0.28,8.23,0.82c2.46,0.55,4.62,1.18,6.45,1.84l1.14,0.44
			l0.47-1.14c1.24-2.98,2.06-6.05,2.42-9.12l0.13-1.01l-0.97-0.33c-2.38-0.87-5.15-1.6-8.23-2.17c-3.11-0.57-6.43-0.87-9.85-0.87
			c-8.16,0-14.63,1.94-19.21,5.75c-4.66,3.87-7.01,9.27-7.01,16.04c0,2.83,0.37,5.31,1.13,7.36c0.74,2.05,1.79,3.9,3.13,5.52
			c1.32,1.58,2.91,2.93,4.7,4.02c1.73,1.06,3.68,2.03,5.79,2.9l6.01,2.43c2.43,1,4.47,1.89,6.24,2.72c1.69,0.8,3.1,1.68,4.2,2.61
			c1.05,0.91,1.83,1.94,2.36,3.18c0.52,1.25,0.8,2.79,0.8,4.58c0,3.65-1.24,6.46-3.82,8.59c-2.6,2.15-6.69,3.25-12.13,3.25
			c-3.55,0-6.57-0.31-9-0.92c-2.49-0.62-4.9-1.35-7.17-2.18l-1.2-0.44l-0.43,1.2c-0.56,1.53-1.1,3.15-1.6,4.82
			c-0.53,1.72-0.87,3.41-1.01,5.02l-0.07,1l0.95,0.32c1.48,0.51,2.94,0.96,4.36,1.39c1.44,0.42,2.98,0.8,4.53,1.08
			c1.56,0.3,3.25,0.51,5.06,0.67c1.84,0.13,3.87,0.21,6,0.21c9.29,0,16.65-2.21,21.87-6.58c5.28-4.43,7.95-10.54,7.95-18.16
			c0-3.16-0.42-5.98-1.29-8.37C959.76,234.99,958.47,232.87,956.81,231.1"/>
		<path class="st0" d="M1013.62,219.89c-2.24-2.68-5.04-4.82-8.36-6.36c-3.33-1.55-7.24-2.33-11.64-2.33
			c-4.39,0-8.31,0.78-11.63,2.33c-3.32,1.55-6.13,3.69-8.36,6.36c-2.21,2.65-3.87,5.83-4.96,9.44c-1.05,3.54-1.59,7.43-1.59,11.57
			c0,4.14,0.54,8.03,1.59,11.57c1.09,3.61,2.74,6.78,4.96,9.44c2.23,2.68,5.04,4.8,8.38,6.32c3.33,1.51,7.24,2.28,11.62,2.28
			c4.39,0,8.3-0.76,11.63-2.28c3.33-1.52,6.15-3.64,8.39-6.32c2.21-2.66,3.87-5.84,4.94-9.44c1.06-3.54,1.58-7.44,1.58-11.57
			c0-4.14-0.52-8.03-1.58-11.57C1017.51,225.73,1015.85,222.56,1013.62,219.89 M993.62,259.62c-4.42,0-7.59-1.55-9.66-4.71
			c-2.16-3.31-3.22-8.02-3.22-14c0-5.98,1.07-10.68,3.22-13.95c2.07-3.14,5.24-4.66,9.66-4.66c4.46,0,7.64,1.52,9.72,4.67
			c2.18,3.27,3.28,7.96,3.28,13.94c0,5.98-1.11,10.69-3.28,13.99C1001.24,258.07,998.08,259.62,993.62,259.62"/>
		<path class="st0" d="M1069.38,261.91c-0.44-1.56-0.97-2.9-1.59-3.99l-0.54-0.95l-1.02,0.4c-1.75,0.68-3.5,1.15-5.18,1.41
			c-1.72,0.28-3.64,0.41-5.68,0.41c-4.95,0-8.76-1.42-11.55-4.32c-2.79-2.88-4.19-7.58-4.19-13.97c0-5.61,1.25-10.16,3.75-13.51
			c2.45-3.28,6.09-4.88,11.14-4.88c4.27,0,8.13,0.58,11.43,1.73l1.08,0.37l0.49-1.03c0.59-1.28,1.07-2.79,1.4-4.47
			c0.34-1.67,0.5-3.16,0.5-4.43v-0.88l-0.82-0.31c-2.12-0.8-4.38-1.39-6.71-1.77c-2.33-0.35-5.04-0.54-8.03-0.54
			c-4.52,0-8.59,0.79-12.04,2.33c-3.44,1.54-6.39,3.68-8.75,6.35c-2.31,2.67-4.07,5.83-5.27,9.42c-1.14,3.55-1.75,7.46-1.75,11.61
			c0,8.96,2.42,16.2,7.21,21.52c4.8,5.37,11.99,8.09,21.33,8.09c5.5,0,10.47-0.85,14.75-2.52l0.86-0.33l-0.04-0.91
			C1070.1,265.13,1069.84,263.5,1069.38,261.91"/>
		<path class="st0" d="M1080.65,201.99l0.16,0.9l0.92,0.15c0.91,0.14,1.93,0.25,3.06,0.33c1.03,0.08,2.03,0.11,2.95,0.11
			c0.84,0,1.78-0.03,2.78-0.11c1.09-0.07,2.05-0.18,2.92-0.33l0.89-0.15l0.16-0.88c0.14-0.86,0.24-1.82,0.27-2.92
			c0.03-1.01,0.06-1.9,0.06-2.7c0-0.78-0.03-1.68-0.06-2.69c-0.03-1.11-0.13-2.02-0.27-2.83l-0.17-0.87l-0.88-0.15
			c-0.9-0.16-1.9-0.26-2.98-0.33c-1.13-0.08-2.08-0.12-2.83-0.12c-0.75,0-1.7,0.04-2.82,0.12c-1.08,0.07-2.12,0.18-3.07,0.33
			l-0.91,0.14l-0.15,0.89c-0.15,0.81-0.25,1.73-0.3,2.83c-0.04,1-0.05,1.9-0.05,2.68c0,0.8,0.01,1.69,0.05,2.7
			C1080.41,200.18,1080.51,201.13,1080.65,201.99"/>
		<path class="st0" d="M1076.13,213.42c-0.17,0.64-0.28,1.33-0.37,2.14c-0.06,0.75-0.1,1.52-0.1,2.29c0,0.79,0.04,1.53,0.1,2.29
			c0.1,0.83,0.22,1.53,0.37,2.14l0.24,0.96h6.58v45.77l1.04,0.2c0.83,0.14,1.76,0.26,2.74,0.33c1.02,0.08,1.87,0.11,2.57,0.11
			c0.77,0,1.65-0.03,2.68-0.11c0.98-0.07,1.88-0.18,2.73-0.33l1.05-0.2v-56.58h-19.39L1076.13,213.42z"/>
		<path class="st0" d="M1124.61,211.2c-2.7,0-5.58,0.22-8.53,0.64c-2.96,0.44-5.72,1.06-8.14,1.85l-0.88,0.28v0.93
			c0,3.46,0.73,6.48,2.18,8.98l0.51,0.89l0.98-0.3c1.97-0.61,4.03-1.12,6.14-1.5c2.07-0.37,4.33-0.57,6.7-0.57
			c3.71,0,6.55,0.73,8.42,2.17c1.77,1.37,2.67,3.95,2.67,7.67v0.57c-0.7-0.07-1.45-0.15-2.29-0.2c-1.51-0.1-3.43-0.17-5.64-0.17
			c-3.12,0-6.15,0.39-9.01,1.16c-2.88,0.77-5.46,1.97-7.69,3.58c-2.28,1.62-4.1,3.69-5.41,6.14c-1.33,2.46-2.01,5.35-2.01,8.58
			c0,3.28,0.58,6.14,1.71,8.48c1.14,2.36,2.79,4.34,4.88,5.87c2.06,1.5,4.61,2.6,7.56,3.27c2.85,0.66,6.1,0.99,9.65,0.99
			c3.71,0,7.4-0.3,11-0.92c3.51-0.59,6.57-1.18,9.04-1.76l1-0.22v-34.96c0-7.39-2-12.89-5.93-16.33
			C1137.64,212.92,1131.95,211.2,1124.61,211.2 M1134.65,243.62v15.1c-1.06,0.23-2.21,0.4-3.45,0.53c-2.94,0.3-5.75,0.36-8.79,0.05
			c-1.25-0.12-2.35-0.45-3.37-1.01c-0.99-0.54-1.79-1.3-2.45-2.32c-0.64-0.98-0.93-2.41-0.93-4.28c0-2.9,0.93-4.98,2.88-6.36
			c2.06-1.46,5.17-2.2,9.26-2.2c1.07,0,2.42,0.06,4.01,0.21C1132.93,243.44,1133.88,243.53,1134.65,243.62"/>
		<path class="st0" d="M1179.98,259.52l-0.31-1.23l-1.24,0.3c-0.49,0.12-1.12,0.22-1.86,0.29c-1.65,0.15-3.1,0.14-4.37-0.13
			c-0.57-0.13-1.06-0.39-1.49-0.83c-0.45-0.44-0.82-1.13-1.12-2.07c-0.3-0.99-0.47-2.43-0.47-4.27v-62.17l-1.03-0.2
			c-0.84-0.16-1.76-0.26-2.73-0.33c-1.05-0.07-1.92-0.11-2.68-0.11c-0.75,0-1.62,0.04-2.67,0.11c-1,0.07-1.91,0.19-2.73,0.33
			l-1.06,0.2v64.49c0,2.97,0.42,5.52,1.26,7.57c0.86,2.09,2.05,3.78,3.54,5.04c1.47,1.23,3.19,2.14,5.13,2.68
			c1.84,0.52,3.9,0.79,6.05,0.79c1.27,0,2.6-0.06,4.01-0.16c1.53-0.12,2.81-0.37,3.92-0.76l0.86-0.3v-0.9
			C1180.97,264.92,1180.63,262.11,1179.98,259.52"/>
	</g>
	<g>
		<path class="st0" d="M394.38,331.3c1.02,0.37,2.09,0.7,3.21,0.98c1.12,0.28,2.48,0.42,4.09,0.42c2.54,0,4.44-0.52,5.7-1.56
			c1.26-1.04,1.88-2.44,1.88-4.21c0-0.87-0.13-1.61-0.4-2.23c-0.26-0.62-0.66-1.15-1.19-1.6c-0.53-0.45-1.19-0.86-1.98-1.23
			c-0.79-0.37-1.72-0.78-2.77-1.21l-2.65-1.07c-0.9-0.37-1.72-0.78-2.47-1.23c-0.74-0.45-1.39-1-1.93-1.65
			c-0.54-0.65-0.97-1.4-1.28-2.26c-0.31-0.85-0.46-1.87-0.46-3.05c0-2.82,0.96-5.03,2.88-6.63c1.92-1.6,4.62-2.4,8.1-2.4
			c1.49,0,2.9,0.12,4.23,0.37c1.34,0.25,2.51,0.56,3.54,0.93c-0.16,1.3-0.49,2.59-1.02,3.86c-0.84-0.31-1.81-0.59-2.91-0.84
			c-1.1-0.25-2.35-0.37-3.75-0.37c-1.95,0-3.46,0.4-4.51,1.19c-1.05,0.79-1.58,1.98-1.58,3.56c0,0.65,0.13,1.23,0.4,1.75
			c0.26,0.51,0.61,0.96,1.05,1.35c0.43,0.39,0.95,0.74,1.53,1.05c0.59,0.31,1.21,0.59,1.86,0.84l2.6,1.02
			c1.24,0.5,2.34,1.02,3.31,1.56c0.96,0.54,1.78,1.18,2.46,1.91c0.68,0.73,1.2,1.59,1.56,2.58c0.36,0.99,0.54,2.16,0.54,3.49
			c0,3.19-1.1,5.72-3.31,7.56c-2.2,1.84-5.29,2.77-9.26,2.77c-0.96,0-1.83-0.03-2.61-0.09c-0.78-0.06-1.49-0.16-2.16-0.28
			c-0.67-0.12-1.31-0.28-1.93-0.47c-0.62-0.19-1.26-0.39-1.91-0.6c0.06-0.68,0.2-1.38,0.42-2.09
			C393.9,332.69,394.13,331.99,394.38,331.3z"/>
		<path class="st0" d="M421.33,312.51c0.34-0.06,0.73-0.11,1.16-0.14c0.44-0.03,0.81-0.05,1.12-0.05c0.34,0,0.73,0.02,1.16,0.05
			c0.43,0.03,0.82,0.08,1.16,0.14v13.07c0,1.49,0.14,2.72,0.42,3.7c0.28,0.98,0.7,1.75,1.26,2.3c0.56,0.56,1.24,0.95,2.05,1.16
			c0.81,0.22,1.74,0.33,2.79,0.33c1.58,0,2.93-0.17,4.05-0.51v-20.06c0.34-0.06,0.72-0.11,1.14-0.14c0.42-0.03,0.8-0.05,1.14-0.05
			c0.34,0,0.72,0.02,1.14,0.05c0.42,0.03,0.8,0.08,1.14,0.14v23.13c-1.09,0.31-2.38,0.61-3.89,0.88c-1.5,0.28-3.06,0.42-4.68,0.42
			c-1.52,0-2.95-0.13-4.3-0.4c-1.35-0.26-2.53-0.8-3.56-1.61c-1.02-0.81-1.83-1.94-2.42-3.4c-0.59-1.46-0.88-3.38-0.88-5.77V312.51z
			"/>
		<path class="st0" d="M462.09,302.27c0.34-0.06,0.72-0.11,1.14-0.14c0.42-0.03,0.8-0.05,1.14-0.05c0.34,0,0.73,0.02,1.16,0.05
			c0.43,0.03,0.82,0.08,1.16,0.14v13.12c0.56-0.93,1.43-1.74,2.61-2.42c1.18-0.68,2.61-1.02,4.28-1.02c1.43,0,2.74,0.23,3.96,0.7
			c1.21,0.46,2.25,1.19,3.12,2.16c0.87,0.98,1.54,2.22,2.02,3.72c0.48,1.51,0.72,3.28,0.72,5.33c0,4.09-1.16,7.3-3.47,9.61
			c-2.31,2.31-5.64,3.47-9.98,3.47c-1.37,0-2.77-0.13-4.21-0.4c-1.44-0.26-2.66-0.57-3.65-0.91V302.27z M466.69,332.52
			c0.56,0.19,1.16,0.32,1.79,0.39c0.64,0.08,1.3,0.12,1.98,0.12c1.15,0,2.21-0.18,3.19-0.53c0.98-0.36,1.82-0.9,2.54-1.63
			c0.71-0.73,1.28-1.66,1.7-2.79c0.42-1.13,0.63-2.47,0.63-4.03c0-2.57-0.45-4.58-1.35-6c-0.9-1.43-2.39-2.14-4.47-2.14
			c-0.71,0-1.42,0.12-2.12,0.35c-0.7,0.23-1.34,0.61-1.93,1.12c-0.59,0.51-1.06,1.19-1.42,2.05c-0.36,0.85-0.54,1.88-0.54,3.09
			V332.52z"/>
		<path class="st0" d="M502.66,320.65c0-1.83-0.46-3.1-1.4-3.81c-0.93-0.71-2.28-1.07-4.05-1.07c-1.09,0-2.1,0.08-3.05,0.25
			c-0.95,0.17-1.87,0.4-2.77,0.67c-0.59-1.02-0.88-2.25-0.88-3.68c1.05-0.34,2.22-0.61,3.49-0.79c1.27-0.19,2.5-0.28,3.68-0.28
			c3.1,0,5.46,0.71,7.07,2.12c1.61,1.41,2.42,3.67,2.42,6.77v14.94c-1.09,0.25-2.4,0.5-3.96,0.77c-1.55,0.26-3.13,0.4-4.74,0.4
			c-1.52,0-2.89-0.14-4.12-0.42c-1.22-0.28-2.26-0.73-3.12-1.35c-0.85-0.62-1.51-1.41-1.98-2.37c-0.47-0.96-0.7-2.12-0.7-3.49
			c0-1.33,0.27-2.5,0.82-3.51c0.54-1.01,1.28-1.85,2.21-2.51c0.93-0.67,2-1.16,3.21-1.49c1.21-0.33,2.48-0.49,3.81-0.49
			c0.99,0,1.81,0.02,2.44,0.07c0.64,0.05,1.17,0.1,1.61,0.16V320.65z M502.66,325.16c-0.46-0.06-1.06-0.12-1.77-0.19
			c-0.72-0.06-1.32-0.09-1.82-0.09c-1.92,0-3.39,0.36-4.4,1.07c-1.01,0.71-1.51,1.8-1.51,3.26c0,0.93,0.17,1.66,0.51,2.19
			c0.34,0.53,0.77,0.93,1.28,1.21c0.51,0.28,1.08,0.45,1.7,0.51c0.62,0.06,1.21,0.09,1.77,0.09c0.71,0,1.45-0.04,2.21-0.12
			c0.76-0.08,1.43-0.19,2.02-0.35V325.16z"/>
		<path class="st0" d="M514.57,312.51c0.34-0.06,0.67-0.11,1-0.14c0.33-0.03,0.66-0.05,1-0.05s0.66,0.02,0.95,0.05
			c0.29,0.03,0.61,0.08,0.95,0.14c0.09,0.47,0.19,1.09,0.28,1.88s0.14,1.45,0.14,1.98c0.31-0.53,0.71-1.06,1.19-1.58
			c0.48-0.53,1.03-1,1.65-1.42c0.62-0.42,1.33-0.76,2.14-1.02c0.81-0.26,1.69-0.4,2.65-0.4c2.73,0,4.75,0.78,6.05,2.35
			c1.3,1.57,1.96,3.88,1.96,6.96v15.12c-0.34,0.06-0.73,0.11-1.16,0.14c-0.44,0.03-0.82,0.05-1.16,0.05c-0.34,0-0.72-0.02-1.14-0.05
			c-0.42-0.03-0.8-0.08-1.14-0.14v-13.87c0-2.2-0.34-3.82-1.02-4.86c-0.68-1.04-1.77-1.56-3.26-1.56c-0.87,0-1.69,0.16-2.46,0.47
			c-0.78,0.31-1.46,0.79-2.05,1.44c-0.59,0.65-1.06,1.5-1.42,2.53c-0.36,1.04-0.53,2.29-0.53,3.75v12.1
			c-0.34,0.06-0.72,0.11-1.14,0.14c-0.42,0.03-0.8,0.05-1.14,0.05c-0.34,0-0.73-0.02-1.16-0.05c-0.44-0.03-0.82-0.08-1.16-0.14
			V312.51z"/>
		<path class="st0" d="M559.71,332.24c0.25,0.44,0.46,0.98,0.65,1.63c0.19,0.65,0.3,1.32,0.33,2c-1.83,0.71-3.92,1.07-6.28,1.07
			c-3.97,0-6.96-1.12-8.98-3.37c-2.02-2.25-3.02-5.28-3.02-9.1c0-1.77,0.25-3.41,0.74-4.93c0.5-1.52,1.23-2.84,2.21-3.96
			c0.98-1.12,2.19-2,3.65-2.65c1.46-0.65,3.15-0.98,5.07-0.98c1.3,0,2.45,0.08,3.44,0.23c0.99,0.16,1.94,0.4,2.84,0.74
			c0,0.53-0.07,1.14-0.21,1.84c-0.14,0.7-0.33,1.31-0.58,1.84c-1.52-0.53-3.26-0.79-5.21-0.79c-2.39,0-4.17,0.79-5.35,2.37
			c-1.18,1.58-1.77,3.68-1.77,6.28c0,2.98,0.67,5.16,2,6.54c1.33,1.38,3.16,2.07,5.49,2.07c0.93,0,1.79-0.06,2.58-0.19
			C558.1,332.76,558.9,332.55,559.71,332.24z"/>
		<path class="st0" d="M576.41,336.94c-1.86,0-3.49-0.32-4.88-0.95c-1.4-0.63-2.56-1.51-3.49-2.63c-0.93-1.12-1.62-2.43-2.07-3.96
			c-0.45-1.52-0.68-3.16-0.68-4.93c0-1.77,0.23-3.41,0.68-4.93c0.45-1.52,1.14-2.84,2.07-3.96c0.93-1.12,2.1-2,3.49-2.65
			c1.4-0.65,3.02-0.98,4.88-0.98c1.86,0,3.49,0.33,4.89,0.98c1.39,0.65,2.56,1.54,3.49,2.65c0.93,1.12,1.62,2.44,2.07,3.96
			c0.45,1.52,0.68,3.16,0.68,4.93c0,1.77-0.23,3.41-0.68,4.93c-0.45,1.52-1.14,2.84-2.07,3.96c-0.93,1.12-2.1,1.99-3.49,2.63
			C579.9,336.62,578.27,336.94,576.41,336.94z M576.41,333.26c2.14,0,3.72-0.78,4.75-2.33c1.02-1.55,1.53-3.71,1.53-6.47
			c0-2.76-0.51-4.91-1.53-6.45c-1.02-1.54-2.61-2.3-4.75-2.3c-2.14,0-3.72,0.77-4.72,2.3c-1.01,1.54-1.51,3.68-1.51,6.45
			c0,2.76,0.5,4.92,1.51,6.47C572.7,332.48,574.27,333.26,576.41,333.26z"/>
		<path class="st0" d="M620.01,320.65c0-1.83-0.46-3.1-1.4-3.81c-0.93-0.71-2.28-1.07-4.05-1.07c-1.09,0-2.1,0.08-3.05,0.25
			c-0.94,0.17-1.87,0.4-2.77,0.67c-0.59-1.02-0.88-2.25-0.88-3.68c1.05-0.34,2.22-0.61,3.49-0.79c1.27-0.19,2.5-0.28,3.68-0.28
			c3.1,0,5.46,0.71,7.07,2.12c1.61,1.41,2.42,3.67,2.42,6.77v14.94c-1.09,0.25-2.4,0.5-3.96,0.77c-1.55,0.26-3.13,0.4-4.75,0.4
			c-1.52,0-2.89-0.14-4.12-0.42c-1.23-0.28-2.26-0.73-3.12-1.35c-0.85-0.62-1.51-1.41-1.98-2.37c-0.47-0.96-0.7-2.12-0.7-3.49
			c0-1.33,0.27-2.5,0.82-3.51c0.54-1.01,1.28-1.85,2.21-2.51c0.93-0.67,2-1.16,3.21-1.49c1.21-0.33,2.48-0.49,3.81-0.49
			c0.99,0,1.81,0.02,2.44,0.07c0.64,0.05,1.17,0.1,1.6,0.16V320.65z M620.01,325.16c-0.46-0.06-1.06-0.12-1.77-0.19
			c-0.71-0.06-1.32-0.09-1.82-0.09c-1.92,0-3.39,0.36-4.4,1.07c-1.01,0.71-1.51,1.8-1.51,3.26c0,0.93,0.17,1.66,0.51,2.19
			c0.34,0.53,0.77,0.93,1.28,1.21c0.51,0.28,1.08,0.45,1.7,0.51c0.62,0.06,1.21,0.09,1.77,0.09c0.71,0,1.45-0.04,2.21-0.12
			c0.76-0.08,1.43-0.19,2.02-0.35V325.16z"/>
		<path class="st0" d="M632.85,312.51c0.34-0.06,0.67-0.11,1-0.14c0.33-0.03,0.66-0.05,1-0.05s0.66,0.02,0.96,0.05
			c0.29,0.03,0.61,0.08,0.95,0.14c0.1,0.47,0.19,1.08,0.28,1.84c0.09,0.76,0.14,1.4,0.14,1.93c0.28-0.56,0.63-1.09,1.05-1.6
			c0.42-0.51,0.92-0.97,1.49-1.37c0.57-0.4,1.23-0.73,1.98-0.98c0.74-0.25,1.56-0.37,2.47-0.37c1.86,0,3.29,0.38,4.3,1.14
			c1.01,0.76,1.77,1.82,2.3,3.19c0.31-0.53,0.69-1.05,1.14-1.58c0.45-0.53,0.95-0.99,1.51-1.4c0.56-0.4,1.19-0.73,1.91-0.98
			c0.71-0.25,1.52-0.37,2.42-0.37c2.76,0,4.77,0.78,6.02,2.33c1.26,1.55,1.88,3.85,1.88,6.89v15.22c-0.34,0.06-0.73,0.11-1.16,0.14
			c-0.43,0.03-0.82,0.05-1.16,0.05c-0.34,0-0.72-0.02-1.14-0.05c-0.42-0.03-0.8-0.08-1.14-0.14v-13.87c0-2.14-0.33-3.75-0.98-4.82
			c-0.65-1.07-1.72-1.61-3.21-1.61c-1.58,0-2.86,0.57-3.84,1.72c-0.98,1.15-1.47,2.84-1.47,5.07v13.5
			c-0.34,0.06-0.72,0.11-1.14,0.14c-0.42,0.03-0.8,0.05-1.14,0.05s-0.72-0.02-1.14-0.05c-0.42-0.03-0.8-0.08-1.14-0.14v-14.19
			c0-2.08-0.31-3.64-0.93-4.68c-0.62-1.04-1.61-1.56-2.98-1.56c-0.78,0-1.51,0.17-2.19,0.51c-0.68,0.34-1.28,0.85-1.79,1.54
			c-0.51,0.68-0.91,1.54-1.21,2.58c-0.29,1.04-0.44,2.24-0.44,3.61v12.19c-0.34,0.06-0.72,0.11-1.14,0.14
			c-0.42,0.03-0.8,0.05-1.14,0.05c-0.34,0-0.73-0.02-1.16-0.05c-0.43-0.03-0.82-0.08-1.16-0.14V312.51z"/>
		<path class="st0" d="M675.38,316.14h-3.02c-0.06-0.25-0.11-0.53-0.14-0.86c-0.03-0.33-0.05-0.64-0.05-0.95
			c0-0.31,0.01-0.63,0.05-0.95c0.03-0.33,0.08-0.61,0.14-0.86h7.54v23.87c-0.34,0.06-0.72,0.11-1.14,0.14
			c-0.42,0.03-0.8,0.05-1.14,0.05c-0.31,0-0.67-0.02-1.09-0.05c-0.42-0.03-0.8-0.08-1.14-0.14V316.14z M674.36,307.25
			c-0.06-0.37-0.1-0.78-0.12-1.21c-0.02-0.43-0.02-0.82-0.02-1.16c0-0.34,0.01-0.73,0.02-1.16c0.01-0.43,0.05-0.82,0.12-1.16
			c0.4-0.06,0.84-0.11,1.3-0.14c0.46-0.03,0.87-0.05,1.21-0.05c0.34,0,0.74,0.02,1.21,0.05c0.46,0.03,0.88,0.08,1.25,0.14
			c0.06,0.34,0.1,0.73,0.12,1.16c0.01,0.43,0.02,0.82,0.02,1.16c0,0.34-0.01,0.73-0.02,1.16c-0.02,0.43-0.06,0.84-0.12,1.21
			c-0.37,0.06-0.78,0.11-1.23,0.14c-0.45,0.03-0.85,0.05-1.19,0.05c-0.37,0-0.79-0.01-1.26-0.05
			C675.2,307.36,674.76,307.31,674.36,307.25z"/>
		<path class="st0" d="M701.58,333.31c2.76,0.06,4.76,0.65,6,1.77c1.24,1.12,1.86,2.65,1.86,4.61c0,1.27-0.33,2.41-0.98,3.42
			c-0.65,1.01-1.55,1.88-2.7,2.61c-1.15,0.73-2.5,1.29-4.07,1.68c-1.57,0.39-3.27,0.58-5.1,0.58c-3.19,0-5.63-0.5-7.31-1.49
			c-1.67-0.99-2.51-2.56-2.51-4.7c0-1.27,0.34-2.41,1.02-3.42c0.68-1.01,1.57-1.81,2.65-2.4c-0.62-0.4-1.14-0.91-1.56-1.51
			c-0.42-0.6-0.63-1.36-0.63-2.26c0-1.15,0.26-2.14,0.77-2.98c0.51-0.84,1.2-1.58,2.07-2.23c-1.02-0.71-1.85-1.64-2.46-2.77
			c-0.62-1.13-0.93-2.41-0.93-3.84c0-1.18,0.22-2.28,0.65-3.31c0.43-1.02,1.06-1.92,1.88-2.67c0.82-0.76,1.84-1.36,3.05-1.79
			c1.21-0.43,2.59-0.65,4.14-0.65c1.39,0,2.66,0.2,3.79,0.61c1.13,0.4,2.1,0.91,2.91,1.54c0.62-0.5,1.46-0.91,2.51-1.23
			c1.05-0.33,2.22-0.49,3.49-0.49c0.12,0.59,0.19,1.24,0.19,1.95c0,0.34-0.02,0.7-0.05,1.07c-0.03,0.37-0.08,0.74-0.14,1.12h-4.19
			c0.34,0.53,0.6,1.1,0.79,1.72c0.19,0.62,0.28,1.33,0.28,2.14c0,1.27-0.23,2.42-0.7,3.44c-0.46,1.02-1.13,1.9-1.98,2.63
			c-0.85,0.73-1.87,1.29-3.05,1.68c-1.18,0.39-2.47,0.58-3.86,0.58c-1.27,0-2.42-0.14-3.44-0.42c-0.43,0.25-0.86,0.63-1.28,1.14
			c-0.42,0.51-0.63,1.06-0.63,1.65c0,0.56,0.2,1.05,0.6,1.47c0.4,0.42,1.3,0.64,2.7,0.67L701.58,333.31z M695.3,336.98
			c-1.4-0.03-2.44,0.34-3.14,1.12c-0.7,0.78-1.05,1.71-1.05,2.79c0,0.68,0.14,1.24,0.42,1.68c0.28,0.44,0.67,0.78,1.19,1.05
			c0.51,0.26,1.11,0.45,1.81,0.56c0.7,0.11,1.47,0.16,2.3,0.16c2.48,0,4.42-0.41,5.82-1.23c1.4-0.82,2.1-1.85,2.1-3.09
			c0-0.93-0.3-1.64-0.89-2.14c-0.59-0.5-1.68-0.76-3.26-0.79L695.3,336.98z M697.44,325.35c1.67,0,2.91-0.47,3.72-1.4
			c0.81-0.93,1.21-2.12,1.21-3.58c0-1.49-0.4-2.71-1.21-3.65c-0.81-0.94-2.05-1.42-3.72-1.42c-1.67,0-2.91,0.47-3.7,1.42
			c-0.79,0.95-1.19,2.17-1.19,3.65c0,1.46,0.4,2.65,1.19,3.58C694.53,324.88,695.76,325.35,697.44,325.35z"/>
		<path class="st0" d="M725.12,336.94c-1.86,0-3.49-0.32-4.88-0.95c-1.4-0.63-2.56-1.51-3.49-2.63c-0.93-1.12-1.62-2.43-2.07-3.96
			c-0.45-1.52-0.67-3.16-0.67-4.93c0-1.77,0.22-3.41,0.67-4.93c0.45-1.52,1.14-2.84,2.07-3.96c0.93-1.12,2.09-2,3.49-2.65
			c1.4-0.65,3.02-0.98,4.88-0.98c1.86,0,3.49,0.33,4.89,0.98c1.39,0.65,2.56,1.54,3.49,2.65c0.93,1.12,1.62,2.44,2.07,3.96
			c0.45,1.52,0.67,3.16,0.67,4.93c0,1.77-0.23,3.41-0.67,4.93c-0.45,1.52-1.14,2.84-2.07,3.96c-0.93,1.12-2.09,1.99-3.49,2.63
			C728.61,336.62,726.99,336.94,725.12,336.94z M725.12,333.26c2.14,0,3.72-0.78,4.75-2.33c1.02-1.55,1.54-3.71,1.54-6.47
			c0-2.76-0.51-4.91-1.54-6.45c-1.02-1.54-2.61-2.3-4.75-2.3c-2.14,0-3.72,0.77-4.72,2.3c-1.01,1.54-1.51,3.68-1.51,6.45
			c0,2.76,0.51,4.92,1.51,6.47C721.41,332.48,722.98,333.26,725.12,333.26z"/>
		<path class="st0" d="M742.76,336.38c-0.06-0.43-0.12-0.86-0.16-1.28c-0.05-0.42-0.07-0.85-0.07-1.28s0.02-0.88,0.07-1.33
			c0.04-0.45,0.1-0.89,0.16-1.33c0.43-0.06,0.86-0.11,1.28-0.14c0.42-0.03,0.84-0.05,1.28-0.05c0.43,0,0.87,0.02,1.3,0.05
			c0.44,0.03,0.87,0.08,1.3,0.14c0.06,0.44,0.12,0.87,0.16,1.3c0.05,0.43,0.07,0.87,0.07,1.3c0,0.44-0.02,0.87-0.07,1.3
			c-0.05,0.44-0.1,0.87-0.16,1.3c-0.43,0.06-0.86,0.11-1.28,0.14c-0.42,0.03-0.84,0.05-1.28,0.05c-0.44,0-0.87-0.02-1.3-0.05
			C743.63,336.49,743.19,336.44,742.76,336.38z"/>
	</g>
	<g>
		<g>
			<g>
				<path class="st1" d="M412.19,373.46c-1.14,0-2.1-0.88-2.17-2.04c-0.08-1.2,0.83-2.24,2.03-2.32c1.48-0.1,148.7-9.75,207.73-8.68
					c58.95,1.07,83.66,1.99,83.91,2c1.2,0.04,2.14,1.06,2.1,2.26c-0.05,1.21-1.04,2.14-2.26,2.1c-0.24-0.01-24.93-0.92-83.82-2
					c-58.83-1.06-205.89,8.57-207.37,8.67C412.29,373.46,412.24,373.46,412.19,373.46z"/>
			</g>
			<g>
				<path class="st1" d="M730.79,367.46c-0.03,0-0.06,0-0.09,0l-14.82-0.62c-1.2-0.05-2.14-1.07-2.09-2.27
					c0.05-1.2,1.05-2.15,2.27-2.09l14.81,0.62c1.2,0.05,2.14,1.07,2.09,2.27C732.92,366.54,731.95,367.46,730.79,367.46z"/>
			</g>
			<g>
				<path class="st1" d="M743.15,368.2c-0.05,0-0.11,0-0.16,0l-4.35-0.32c-1.2-0.09-2.11-1.13-2.02-2.33
					c0.09-1.2,1.15-2.09,2.33-2.02l4.36,0.32c1.2,0.09,2.11,1.13,2.02,2.33C745.24,367.33,744.28,368.2,743.15,368.2z"/>
			</g>
		</g>
	</g>
	<g>
		<g>
			<path class="st2" d="M412.13,373.46c-1.14,0-2.1-0.89-2.18-2.04c-0.08-1.2,0.83-2.24,2.04-2.32c1.48-0.1,148.72-9.75,207.77-8.68
				c58.96,1.07,83.68,1.99,83.92,2c1.2,0.04,2.15,1.06,2.1,2.26c-0.05,1.21-1.04,2.14-2.26,2.1c-0.24-0.01-24.93-0.93-83.84-2
				c-58.84-1.06-205.93,8.57-207.4,8.67C412.23,373.46,412.18,373.46,412.13,373.46z"/>
		</g>
		<g>
			<path class="st2" d="M730.79,367.46c-0.03,0-0.06,0-0.09,0l-14.82-0.62c-1.2-0.05-2.14-1.07-2.09-2.27
				c0.05-1.2,1.05-2.15,2.27-2.09l14.82,0.62c1.21,0.05,2.14,1.07,2.09,2.27C732.92,366.54,731.95,367.46,730.79,367.46z"/>
		</g>
		<g>
			<path class="st2" d="M743.15,368.2c-0.05,0-0.11,0-0.16-0.01l-4.36-0.31c-1.2-0.09-2.11-1.13-2.02-2.33
				c0.09-1.2,1.15-2.09,2.33-2.02l4.36,0.32c1.2,0.09,2.11,1.13,2.02,2.33C745.24,367.33,744.28,368.2,743.15,368.2z"/>
		</g>
	</g>
	<g>
		<rect x="1335.14" y="165.3" class="st0" width="190.11" height="172.81"/>
		<rect x="1335.14" y="122.1" class="st3" width="190.11" height="43.2"/>
		<g>
			<path class="st0" d="M1364.45,133.96h-1.16c-0.15,0-0.28,0.12-0.28,0.28v14.36c0,0.48-0.05,0.94-0.14,1.36
				c-0.09,0.41-0.24,0.76-0.44,1.05c-0.2,0.29-0.45,0.51-0.78,0.67c-0.32,0.16-0.72,0.24-1.2,0.24c-0.48,0-0.88-0.08-1.2-0.24
				c-0.32-0.16-0.57-0.38-0.78-0.67c-0.2-0.29-0.35-0.65-0.44-1.05c-0.09-0.42-0.14-0.88-0.14-1.36v-14.36
				c0-0.15-0.12-0.28-0.28-0.28h-1.24c-0.15,0-0.28,0.12-0.28,0.28v14.3c0,0.71,0.08,1.37,0.24,1.96c0.16,0.61,0.42,1.15,0.76,1.61
				c0.35,0.47,0.81,0.84,1.36,1.1c0.55,0.26,1.21,0.39,1.97,0.39s1.42-0.13,1.97-0.39c0.55-0.26,1.01-0.63,1.36-1.1
				c0.34-0.46,0.6-1,0.75-1.61c0.15-0.6,0.22-1.26,0.22-1.96v-14.3C1364.72,134.08,1364.6,133.96,1364.45,133.96z"/>
			<path class="st0" d="M1376.1,133.96h-1.14c-0.15,0-0.28,0.12-0.28,0.28v14.38l-5.14-14.47c-0.04-0.11-0.14-0.18-0.26-0.18h-1.62
				c-0.15,0-0.28,0.12-0.28,0.28v18.93c0,0.15,0.12,0.28,0.28,0.28h1.14c0.15,0,0.28-0.12,0.28-0.28v-15.25l5.38,15.34
				c0.04,0.11,0.14,0.19,0.26,0.19h1.38c0.15,0,0.28-0.12,0.28-0.28v-18.93C1376.38,134.08,1376.25,133.96,1376.1,133.96z"/>
			<path class="st0" d="M1385,133.93h-1.81c-0.13,0-0.24,0.09-0.27,0.22l-4.14,18.95c-0.02,0.08,0,0.17,0.05,0.23
				c0.05,0.07,0.13,0.1,0.22,0.1h1.14c0.13,0,0.24-0.09,0.27-0.22l0.9-3.98h5.45l0.9,3.98c0.03,0.13,0.14,0.22,0.27,0.22h1.24
				c0.08,0,0.16-0.04,0.22-0.1c0.05-0.07,0.07-0.15,0.05-0.23l-4.22-18.95C1385.24,134.02,1385.13,133.93,1385,133.93z
				 M1386.49,147.61h-4.82l2.39-10.71L1386.49,147.61z"/>
			<path class="st0" d="M1404.92,133.96h-7.46c-0.15,0-0.28,0.12-0.28,0.28v18.93c0,0.15,0.12,0.28,0.28,0.28h7.46
				c0.15,0,0.28-0.12,0.28-0.28v-1.14c0-0.15-0.12-0.28-0.28-0.28h-5.94v-7.34h4.89c0.15,0,0.28-0.12,0.28-0.28v-1.14
				c0-0.15-0.12-0.28-0.28-0.28h-4.89v-7.07h5.94c0.15,0,0.28-0.12,0.28-0.28v-1.14C1405.2,134.08,1405.08,133.96,1404.92,133.96z"
				/>
			<path class="st0" d="M1419.53,133.96h-1.78c-0.13,0-0.24,0.09-0.27,0.21l-3.68,15.6l-3.7-15.6c-0.03-0.12-0.14-0.21-0.27-0.21
				h-1.78c-0.15,0-0.28,0.12-0.28,0.28v18.93c0,0.15,0.12,0.28,0.28,0.28h1.11c0.15,0,0.28-0.12,0.28-0.28v-14.42l3.46,14.45
				c0.03,0.12,0.14,0.21,0.27,0.21h1.24c0.13,0,0.24-0.09,0.27-0.21l3.4-14.47v14.43c0,0.15,0.12,0.28,0.28,0.28h1.19
				c0.15,0,0.28-0.12,0.28-0.28v-18.93C1419.8,134.08,1419.68,133.96,1419.53,133.96z"/>
			<path class="st0" d="M1426.69,133.96h-3.92c-0.15,0-0.28,0.12-0.28,0.28v18.93c0,0.15,0.12,0.28,0.28,0.28h1.24
				c0.15,0,0.28-0.12,0.28-0.28v-7.51h2.08c1.59,0,2.77-0.4,3.53-1.19c0.75-0.79,1.13-1.99,1.13-3.57v-2.06
				c0-1.44-0.33-2.62-0.99-3.5C1429.36,134.42,1428.24,133.96,1426.69,133.96z M1426.37,143.96h-2.08v-8.32h2.4
				c0.97,0,1.62,0.26,1.97,0.8c0.37,0.56,0.56,1.34,0.56,2.31v2.22c0,1.07-0.22,1.85-0.67,2.31
				C1428.12,143.73,1427.38,143.96,1426.37,143.96z"/>
			<path class="st0" d="M1442.11,152.06c-0.05-0.39-0.08-0.78-0.08-1.17v-2.95c0-1.08-0.23-1.98-0.68-2.69
				c-0.33-0.52-0.81-0.91-1.43-1.18c1.4-0.63,2.11-1.94,2.11-3.92v-1.65c0-1.39-0.34-2.51-1.01-3.31c-0.68-0.82-1.8-1.24-3.32-1.24
				h-3.95c-0.15,0-0.28,0.12-0.28,0.28v18.93c0,0.15,0.12,0.28,0.28,0.28h1.24c0.15,0,0.28-0.12,0.28-0.28v-8.19h1.7
				c0.52,0,0.99,0.05,1.4,0.14c0.39,0.09,0.73,0.25,1.01,0.46c0.27,0.21,0.49,0.5,0.63,0.87c0.15,0.38,0.22,0.87,0.22,1.47v2.97
				c0,0.53,0.03,0.99,0.08,1.35c0.06,0.38,0.18,0.74,0.36,1.05c0.05,0.09,0.14,0.14,0.24,0.14h1.3c0.1,0,0.19-0.06,0.24-0.14
				c0.05-0.09,0.04-0.2-0.01-0.28C1442.27,152.74,1442.16,152.42,1442.11,152.06z M1435.27,135.65h2.4c0.93,0,1.59,0.25,1.97,0.74
				c0.39,0.52,0.59,1.27,0.59,2.23v1.78c0,0.59-0.08,1.09-0.22,1.47c-0.14,0.37-0.35,0.65-0.6,0.86c-0.26,0.21-0.59,0.35-0.98,0.43
				c-0.41,0.09-0.89,0.13-1.43,0.13h-1.72V135.65z"/>
			<path class="st0" d="M1452.73,133.96h-7.46c-0.15,0-0.28,0.12-0.28,0.28v18.93c0,0.15,0.12,0.28,0.28,0.28h7.46
				c0.15,0,0.28-0.12,0.28-0.28v-1.14c0-0.15-0.12-0.28-0.28-0.28h-5.94v-7.34h4.89c0.15,0,0.28-0.12,0.28-0.28v-1.14
				c0-0.15-0.12-0.28-0.28-0.28h-4.89v-7.07h5.94c0.15,0,0.28-0.12,0.28-0.28v-1.14C1453.01,134.08,1452.88,133.96,1452.73,133.96z"
				/>
			<path class="st0" d="M1462.26,144.54c-0.52-0.48-1.09-0.94-1.68-1.35c-0.58-0.4-1.12-0.82-1.63-1.25
				c-0.49-0.42-0.9-0.9-1.22-1.41c-0.3-0.49-0.46-1.11-0.46-1.83c0-0.95,0.2-1.74,0.59-2.35c0.37-0.58,1.01-0.86,1.94-0.86
				c0.46,0,0.85,0.08,1.17,0.24c0.32,0.16,0.58,0.38,0.78,0.66c0.2,0.28,0.35,0.62,0.44,1.01c0.09,0.4,0.14,0.85,0.14,1.33v0.49
				c0,0.15,0.12,0.28,0.28,0.28h1.19c0.15,0,0.28-0.12,0.28-0.28v-0.41c0-0.7-0.08-1.37-0.24-1.96c-0.16-0.61-0.42-1.15-0.76-1.6
				c-0.35-0.46-0.8-0.82-1.35-1.07c-0.54-0.25-1.2-0.38-1.96-0.38c0,0,0,0,0,0c-1.49,0.02-2.6,0.49-3.29,1.41
				c-0.67,0.89-1.02,2.09-1.02,3.57c0,0.93,0.18,1.73,0.53,2.39c0.35,0.65,0.79,1.23,1.33,1.72c0.52,0.49,1.09,0.94,1.68,1.34
				c0.58,0.39,1.12,0.81,1.62,1.24c0.49,0.42,0.9,0.9,1.22,1.41c0.3,0.49,0.46,1.1,0.46,1.8c0,0.95-0.2,1.74-0.6,2.35
				c-0.38,0.58-1.03,0.86-1.99,0.86c-0.96,0-1.61-0.28-1.99-0.86c-0.4-0.61-0.6-1.4-0.6-2.35v-1.05c0-0.15-0.12-0.28-0.28-0.28
				h-1.19c-0.15,0-0.28,0.12-0.28,0.28v0.97c0,0.71,0.08,1.37,0.24,1.96c0.16,0.61,0.42,1.15,0.78,1.6
				c0.36,0.46,0.82,0.82,1.37,1.07c0.55,0.25,1.21,0.38,1.97,0.38c0.76,0,1.42-0.13,1.97-0.38c0.55-0.25,1.01-0.61,1.37-1.07
				c0.36-0.45,0.62-0.99,0.78-1.6c0.16-0.6,0.24-1.26,0.24-1.96c0-0.91-0.18-1.7-0.53-2.35
				C1463.24,145.6,1462.79,145.03,1462.26,144.54z"/>
			<path class="st0" d="M1472.6,133.93h-1.81c-0.13,0-0.24,0.09-0.27,0.22l-4.14,18.95c-0.02,0.08,0,0.17,0.05,0.23
				c0.05,0.07,0.13,0.1,0.22,0.1h1.14c0.13,0,0.24-0.09,0.27-0.22l0.9-3.98h5.45l0.9,3.98c0.03,0.13,0.14,0.22,0.27,0.22h1.24
				c0.08,0,0.16-0.04,0.22-0.1c0.05-0.07,0.07-0.15,0.05-0.23l-4.22-18.95C1472.85,134.02,1472.73,133.93,1472.6,133.93z
				 M1474.1,147.61h-4.82l2.39-10.71L1474.1,147.61z"/>
			<path class="st0" d="M1492.64,135.35c-0.37-0.45-0.85-0.8-1.42-1.04c-0.56-0.24-1.23-0.36-1.99-0.36h-4.16
				c-0.15,0-0.28,0.12-0.28,0.28v18.93c0,0.15,0.12,0.28,0.28,0.28h4.16c0.76,0,1.42-0.12,1.99-0.36c0.57-0.24,1.05-0.59,1.42-1.04
				c0.37-0.44,0.64-0.98,0.81-1.59c0.17-0.6,0.25-1.27,0.25-1.99v-9.52c0-0.72-0.09-1.4-0.25-1.99
				C1493.28,136.33,1493,135.8,1492.64,135.35z M1491.9,138.88v9.63c0,0.98-0.21,1.78-0.64,2.38c-0.41,0.58-1.08,0.86-2.06,0.86
				h-2.62v-16.1h2.62c0.96,0,1.63,0.28,2.05,0.86C1491.68,137.1,1491.9,137.9,1491.9,138.88z"/>
			<path class="st0" d="M1504.02,135.65c0.15,0,0.28-0.12,0.28-0.28v-1.14c0-0.15-0.12-0.28-0.28-0.28h-7.46
				c-0.15,0-0.28,0.12-0.28,0.28v18.93c0,0.15,0.12,0.28,0.28,0.28h7.46c0.15,0,0.28-0.12,0.28-0.28v-1.14
				c0-0.15-0.12-0.28-0.28-0.28h-5.94v-7.34h4.89c0.15,0,0.28-0.12,0.28-0.28v-1.14c0-0.15-0.12-0.28-0.28-0.28h-4.89v-7.07H1504.02
				z"/>
		</g>
		<g>
			<g>
				<path class="st4" d="M1413.5,181.66c-0.81,0-1.55,0.43-1.96,1.12l-19.93,33.92c-0.42,0.72-0.42,1.61,0,2.32l19.75,33.36
					c0.41,0.69,1.15,1.12,1.96,1.12l38.68,0c0.82,0,1.57-0.44,1.98-1.15l13.76-24.07c0.4-0.7,0.4-1.57,0-2.28l-19.34-33.5
					c-0.41-0.71-1.16-1.14-1.97-1.14l-27.35,0.04c-0.8,0-1.55,0.43-1.96,1.12l-14.2,24.17c-0.42,0.72-0.42,1.61,0,2.32l13.98,23.63
					c0.41,0.69,1.16,1.12,1.96,1.12l27.5-0.03c0.81,0,1.57-0.44,1.97-1.15l6.62-11.61l0,0l2.31-4.07l-4.04-6.59l-1.83,3.19
					l-0.09,0.14l-6.9,12.4c-0.41,0.71-1.16,1.15-1.97,1.15l-19.66,0.01c-0.8,0-1.55-0.42-1.96-1.12l-9.94-17.08
					c-0.42-0.72-0.43-1.61,0-2.32l10.17-17.61c0.41-0.7,1.15-1.12,1.96-1.12h19.51c0.81,0,1.56,0.43,1.97,1.14l15.34,26.91
					c0.41,0.7,0.41,1.57,0.01,2.27l-9.8,17.58c-0.4,0.71-1.16,1.15-1.98,1.15h-30.83c-0.8,0-1.55-0.43-1.96-1.12l-15.68-26.87
					c-0.42-0.72-0.43-1.61,0-2.32l15.93-27.47c0.41-0.69,1.16-1.12,1.96-1.12h30.63c0.81,0,1.56,0.44,1.97,1.14l12.32,21.78
					l0.02,0.04l1.96,3.4l3.93-6.88v0l-0.62-1.08l-0.03-0.06l-1.85-3.22l-0.74-1.29l0,0L1454,182.79c-0.41-0.71-1.16-1.14-1.97-1.14
					L1413.5,181.66z"/>
			</g>
			<g>
				<polygon class="st4" points="1375.25,277.64 1380.28,277.64 1380.28,281.18 1375.25,281.18 1375.25,291.41 1371.36,291.41 
					1371.36,266.64 1381.66,266.64 1381.66,270.18 1375.25,270.18 				"/>
			</g>
			<g>
				<g>
					<path class="st4" d="M1387.25,266.64v19.11c0,0.9,0.18,1.52,0.55,1.88c0.36,0.35,0.85,0.53,1.47,0.53
						c0.61,0,1.1-0.18,1.47-0.53c0.37-0.35,0.55-0.98,0.55-1.88v-19.11h3.68v18.86c0,2-0.49,3.54-1.47,4.62
						c-0.98,1.07-2.42,1.61-4.34,1.61c-1.91,0-3.36-0.54-4.33-1.61c-0.98-1.07-1.47-2.61-1.47-4.62v-18.86H1387.25z"/>
				</g>
			</g>
			<g>
				<polygon class="st4" points="1401.09,273.47 1401.09,291.41 1397.58,291.41 1397.58,266.64 1402.47,266.64 1406.47,281.47 
					1406.47,266.64 1409.93,266.64 1409.93,291.41 1405.93,291.41 				"/>
			</g>
			<g>
				<g>
					<path class="st4" d="M1416.62,270.18v17.7h2.19c0.61,0,1.1-0.18,1.45-0.53c0.35-0.35,0.53-0.98,0.53-1.88v-12.88
						c0-0.9-0.18-1.52-0.53-1.88c-0.35-0.35-0.84-0.53-1.45-0.53H1416.62z M1412.73,266.64h6.16c1.96,0,3.41,0.52,4.37,1.56
						c0.96,1.04,1.43,2.56,1.43,4.56v12.53c0,2.01-0.48,3.53-1.43,4.57c-0.96,1.04-2.41,1.56-4.37,1.56h-6.16V266.64z"/>
				</g>
			</g>
			<g>
				<path class="st4" d="M1430.85,283.55h3.75l-1.88-12.53L1430.85,283.55z M1439.73,291.41h-3.93l-0.67-4.49h-4.78l-0.67,4.49
					h-3.57l3.96-24.77h5.7L1439.73,291.41z"/>
			</g>
			<g>
				<g>
					<path class="st4" d="M1452.82,282.17v3.29c0,2.01-0.49,3.54-1.47,4.62c-0.98,1.07-2.42,1.61-4.33,1.61
						c-1.91,0-3.36-0.54-4.33-1.61c-0.98-1.07-1.47-2.61-1.47-4.62v-12.88c0-2,0.49-3.54,1.47-4.62c0.98-1.07,2.42-1.61,4.33-1.61
						c1.91,0,3.36,0.54,4.33,1.61c0.98,1.07,1.47,2.61,1.47,4.62v2.41h-3.68v-2.65c0-0.9-0.18-1.53-0.55-1.89
						c-0.37-0.36-0.86-0.55-1.47-0.55c-0.61,0-1.1,0.18-1.47,0.55c-0.37,0.37-0.55,1-0.55,1.89v13.38c0,0.9,0.18,1.52,0.55,1.87
						c0.37,0.35,0.86,0.53,1.47,0.53c0.61,0,1.1-0.18,1.47-0.53c0.36-0.35,0.55-0.98,0.55-1.87v-3.54H1452.82z"/>
				</g>
			</g>
			<g>
				<rect x="1455.19" y="266.64" class="st4" width="3.89" height="24.77"/>
			</g>
			<g>
				<g>
					<path class="st4" d="M1465.49,285.71c0,0.9,0.18,1.53,0.55,1.89c0.37,0.37,0.85,0.55,1.47,0.55c0.61,0,1.1-0.18,1.47-0.55
						s0.55-1,0.55-1.89v-13.38c0-0.9-0.18-1.53-0.55-1.89c-0.37-0.37-0.85-0.55-1.47-0.55c-0.61,0-1.1,0.18-1.47,0.55
						c-0.37,0.37-0.55,1-0.55,1.89V285.71z M1471.69,261.4l-3.61,3.93h-2.62l2.41-3.93H1471.69z M1461.6,272.58
						c0-2,0.51-3.54,1.52-4.62c1.01-1.07,2.48-1.61,4.39-1.61c1.91,0,3.37,0.54,4.39,1.61c1.01,1.07,1.52,2.61,1.52,4.62v12.88
						c0,2.01-0.51,3.54-1.52,4.62c-1.01,1.07-2.48,1.61-4.39,1.61c-1.91,0-3.37-0.54-4.39-1.61c-1.01-1.07-1.52-2.61-1.52-4.62
						V272.58z"/>
				</g>
			</g>
			<g>
				<polygon class="st4" points="1479.4,273.47 1479.4,291.41 1475.9,291.41 1475.9,266.64 1480.78,266.64 1484.78,281.47 
					1484.78,266.64 1488.25,266.64 1488.25,291.41 1484.25,291.41 				"/>
			</g>
			<g>
				<g>
					<path class="st4" d="M1362.46,307.63h5.45v7.86c0,2.01-0.49,3.54-1.47,4.62c-0.98,1.07-2.42,1.61-4.34,1.61
						c-1.91,0-3.36-0.54-4.33-1.61c-0.98-1.07-1.47-2.61-1.47-4.62v-12.88c0-2,0.49-3.54,1.47-4.62c0.98-1.07,2.42-1.61,4.33-1.61
						c1.91,0,3.36,0.54,4.34,1.61c0.98,1.07,1.47,2.61,1.47,4.62v2.41h-3.68v-2.65c0-0.9-0.18-1.53-0.55-1.89
						c-0.37-0.37-0.86-0.55-1.47-0.55c-0.61,0-1.1,0.18-1.47,0.55c-0.37,0.37-0.55,1-0.55,1.89v13.38c0,0.9,0.18,1.52,0.55,1.88
						c0.36,0.35,0.85,0.53,1.47,0.53c0.61,0,1.1-0.18,1.47-0.53c0.37-0.35,0.55-0.98,0.55-1.88v-4.56h-1.77V307.63z"/>
				</g>
				<g>
					<path class="st4" d="M1374.32,300.2v7.61h1.52c0.73,0,1.3-0.19,1.72-0.57c0.41-0.38,0.62-1.06,0.62-2.05v-2.44
						c0-0.9-0.16-1.54-0.48-1.95c-0.32-0.4-0.82-0.6-1.5-0.6H1374.32z M1378.56,321.43c-0.05-0.16-0.1-0.32-0.14-0.46
						c-0.05-0.14-0.09-0.32-0.12-0.53c-0.04-0.21-0.06-0.48-0.07-0.81c-0.01-0.33-0.02-0.74-0.02-1.24v-3.89
						c0-1.16-0.2-1.97-0.6-2.44c-0.4-0.47-1.05-0.71-1.95-0.71h-1.34v10.09h-3.89v-24.77h5.88c2.03,0,3.5,0.47,4.41,1.42
						c0.91,0.94,1.36,2.37,1.36,4.28v1.95c0,2.55-0.85,4.22-2.55,5.02c0.99,0.4,1.67,1.06,2.04,1.96c0.37,0.91,0.55,2.01,0.55,3.31
						v3.82c0,0.61,0.02,1.15,0.07,1.61c0.05,0.46,0.17,0.93,0.35,1.4H1378.56z"/>
				</g>
				<g>
					<path class="st4" d="M1388.36,296.66v19.11c0,0.9,0.18,1.52,0.55,1.87c0.36,0.35,0.86,0.53,1.47,0.53
						c0.61,0,1.1-0.18,1.47-0.53c0.37-0.35,0.55-0.98,0.55-1.87v-19.11h3.68v18.86c0,2.01-0.49,3.54-1.47,4.62
						c-0.98,1.07-2.42,1.61-4.34,1.61c-1.91,0-3.36-0.54-4.33-1.61c-0.98-1.07-1.47-2.61-1.47-4.62v-18.86H1388.36z"/>
				</g>
				<g>
					<path class="st4" d="M1402.63,300.2v8.39h1.84c0.61,0,1.08-0.17,1.42-0.5c0.33-0.33,0.5-0.94,0.5-1.84v-3.72
						c0-0.9-0.17-1.51-0.5-1.84c-0.33-0.33-0.8-0.5-1.42-0.5H1402.63z M1404.47,296.66c1.96,0,3.41,0.52,4.37,1.56
						c0.96,1.04,1.43,2.56,1.43,4.56v3.22c0,2.01-0.48,3.53-1.43,4.57c-0.96,1.04-2.41,1.56-4.37,1.56h-1.84v9.31h-3.89v-24.77
						H1404.47z"/>
				</g>
				<g>
					<path class="st4" d="M1415.83,315.74c0,0.9,0.18,1.53,0.55,1.89c0.36,0.37,0.85,0.55,1.47,0.55c0.61,0,1.1-0.18,1.47-0.55
						c0.37-0.37,0.55-1,0.55-1.89v-13.38c0-0.9-0.18-1.53-0.55-1.89c-0.37-0.37-0.86-0.55-1.47-0.55c-0.61,0-1.1,0.18-1.47,0.55
						c-0.37,0.37-0.55,1-0.55,1.89V315.74z M1411.93,302.61c0-2,0.51-3.54,1.52-4.62c1.01-1.07,2.48-1.61,4.39-1.61
						c1.91,0,3.37,0.54,4.39,1.61c1.01,1.07,1.52,2.61,1.52,4.62v12.88c0,2.01-0.51,3.54-1.52,4.62c-1.01,1.07-2.48,1.61-4.39,1.61
						c-1.91,0-3.37-0.54-4.39-1.61c-1.01-1.07-1.52-2.61-1.52-4.62V302.61z"/>
				</g>
				<g>
					<path class="st4" d="M1431.26,302.61c0-2,0.48-3.54,1.43-4.62c0.96-1.07,2.39-1.61,4.3-1.61c1.91,0,3.34,0.54,4.3,1.61
						c0.96,1.07,1.43,2.61,1.43,4.62v0.78h-3.68v-1.03c0-0.9-0.17-1.53-0.51-1.89c-0.34-0.37-0.82-0.55-1.43-0.55
						c-0.61,0-1.09,0.18-1.43,0.55c-0.34,0.37-0.51,1-0.51,1.89c0,0.85,0.19,1.6,0.57,2.25c0.38,0.65,0.85,1.26,1.42,1.84
						c0.57,0.58,1.17,1.16,1.82,1.73c0.65,0.58,1.26,1.21,1.82,1.89c0.57,0.68,1.04,1.46,1.42,2.34c0.38,0.87,0.57,1.9,0.57,3.08
						c0,2.01-0.49,3.54-1.47,4.62c-0.98,1.07-2.42,1.61-4.33,1.61c-1.91,0-3.36-0.54-4.33-1.61c-0.98-1.07-1.47-2.61-1.47-4.62
						v-1.52h3.68v1.77c0,0.9,0.18,1.52,0.55,1.88c0.36,0.35,0.86,0.53,1.47,0.53c0.61,0,1.1-0.18,1.47-0.53
						c0.36-0.35,0.55-0.98,0.55-1.88c0-0.85-0.19-1.6-0.57-2.25c-0.38-0.65-0.85-1.26-1.42-1.84c-0.57-0.58-1.17-1.16-1.82-1.73
						c-0.65-0.58-1.26-1.21-1.82-1.89c-0.57-0.68-1.04-1.46-1.42-2.34C1431.44,304.81,1431.26,303.79,1431.26,302.61"/>
				</g>
				<g>
					<path class="st4" d="M1448.56,315.74c0,0.9,0.18,1.53,0.55,1.89c0.36,0.37,0.85,0.55,1.47,0.55c0.61,0,1.1-0.18,1.47-0.55
						c0.37-0.37,0.55-1,0.55-1.89v-13.38c0-0.9-0.18-1.53-0.55-1.89c-0.37-0.37-0.85-0.55-1.47-0.55c-0.61,0-1.1,0.18-1.47,0.55
						c-0.37,0.37-0.55,1-0.55,1.89V315.74z M1444.67,302.61c0-2,0.51-3.54,1.52-4.62c1.01-1.07,2.48-1.61,4.39-1.61
						c1.91,0,3.37,0.54,4.39,1.61c1.01,1.07,1.52,2.61,1.52,4.62v12.88c0,2.01-0.51,3.54-1.52,4.62c-1.01,1.07-2.48,1.61-4.39,1.61
						c-1.91,0-3.37-0.54-4.39-1.61c-1.01-1.07-1.52-2.61-1.52-4.62V302.61z"/>
				</g>
				<g>
					<path class="st4" d="M1470.29,312.2v3.29c0,2.01-0.49,3.54-1.47,4.62c-0.98,1.07-2.42,1.61-4.33,1.61
						c-1.91,0-3.36-0.54-4.34-1.61c-0.98-1.07-1.47-2.61-1.47-4.62v-12.88c0-2,0.49-3.54,1.47-4.62c0.98-1.07,2.42-1.61,4.34-1.61
						c1.91,0,3.36,0.54,4.33,1.61c0.98,1.07,1.47,2.61,1.47,4.62v2.41h-3.68v-2.65c0-0.9-0.18-1.53-0.55-1.89
						c-0.37-0.37-0.86-0.55-1.47-0.55c-0.61,0-1.1,0.18-1.47,0.55c-0.37,0.37-0.55,1-0.55,1.89v13.38c0,0.9,0.18,1.52,0.55,1.88
						c0.37,0.35,0.85,0.53,1.47,0.53c0.61,0,1.1-0.18,1.47-0.53c0.37-0.35,0.55-0.98,0.55-1.88v-3.54H1470.29z"/>
				</g>
			</g>
			<g>
				<rect x="1472.66" y="296.66" class="st4" width="3.89" height="24.77"/>
			</g>
			<g>
				<path class="st4" d="M1484.97,301.05l1.88,12.53h-3.75L1484.97,301.05z M1482.32,296.66l-3.96,24.77h3.57l0.67-4.49h4.78
					l0.67,4.49h3.93l-3.96-24.77H1482.32z"/>
			</g>
			<g>
				<polygon class="st4" points="1493.78,296.66 1493.78,321.44 1504.08,321.44 1504.08,317.9 1497.68,317.9 1497.68,296.66 				"/>
			</g>
		</g>
	</g>
	<line class="st5" x1="1257.97" y1="153.44" x2="1257.97" y2="307.32"/>
	<g>
		<g>
			<path class="st6" d="M220.91,115.85c-7.77-0.09-13.81,9.73-13.52,21.25c0.28,11.57,6.33,20.53,13.54,20.64
				c7.21,0.05,13.24-8.94,13.51-20.46C234.73,125.77,228.66,115.89,220.91,115.85"/>
			<path class="st6" d="M334.85,229.95c0.1-7.76-9.73-13.8-21.24-13.51c-11.57,0.27-20.53,6.31-20.64,13.54
				c-0.04,7.2,8.94,13.23,20.48,13.51C324.93,243.76,334.81,237.71,334.85,229.95"/>
			<path class="st6" d="M220.76,343.89c7.75,0.09,13.79-9.73,13.51-21.25c-0.28-11.56-6.32-20.54-13.54-20.63
				c-7.2-0.04-13.23,8.95-13.52,20.45C206.94,333.97,212.99,343.85,220.76,343.89"/>
			<path class="st6" d="M106.81,229.79c-0.08,7.76,9.74,13.8,21.24,13.52c11.56-0.28,20.53-6.32,20.64-13.55
				c0.04-7.2-8.96-13.23-20.46-13.5C116.72,215.98,106.85,222.04,106.81,229.79"/>
			<path class="st6" d="M295.66,155.38c-5.21-5.3-14.51-4.15-21.12,2.82c-6.64,7.02-8.44,16.98-3.61,21.9
				c4.82,4.9,14.82,3.07,21.8-3.52C299.71,169.98,300.88,160.65,295.66,155.38"/>
			<path class="st6" d="M295.67,304.44c5.28-5.2,4.15-14.5-2.84-21.11c-7.02-6.65-16.97-8.44-21.9-3.62
				c-4.9,4.84-3.07,14.83,3.54,21.81C281.07,308.51,290.4,309.67,295.67,304.44"/>
			<path class="st6" d="M146.6,304.45c5.19,5.29,14.5,4.16,21.11-2.83c6.65-7.01,8.45-16.97,3.62-21.9
				c-4.86-4.88-14.82-3.06-21.81,3.53C142.54,289.86,141.38,299.19,146.6,304.45"/>
			<path class="st6" d="M146.59,155.39c-5.28,5.2-4.15,14.5,2.83,21.12c7.01,6.64,16.96,8.44,21.9,3.62
				c4.9-4.85,3.07-14.82-3.52-21.81C161.19,151.33,151.86,150.18,146.59,155.39"/>
			<path class="st6" d="M221.13,180.79c-3.56-0.02-6.33,3.57-6.2,7.69c0.12,4.15,2.9,7.29,6.2,7.32c3.29,0.01,6.06-3.15,6.19-7.27
				C227.46,184.4,224.69,180.8,221.13,180.79"/>
			<path class="st6" d="M270.26,229.92c0.02-3.55-3.57-6.32-7.69-6.19c-4.17,0.12-7.3,2.89-7.33,6.19c-0.01,3.3,3.15,6.06,7.29,6.19
				C266.65,236.25,270.25,233.47,270.26,229.92"/>
			<path class="st6" d="M221.13,279.05c3.55,0.02,6.33-3.58,6.19-7.69c-0.13-4.15-2.89-7.3-6.19-7.33c-3.29,0-6.07,3.16-6.19,7.28
				C214.8,275.43,217.58,279.04,221.13,279.05"/>
			<path class="st6" d="M172,229.92c-0.02,3.56,3.58,6.33,7.69,6.19c4.15-0.12,7.3-2.89,7.32-6.19c0.02-3.29-3.15-6.06-7.27-6.19
				C175.62,223.6,172.01,226.37,172,229.92"/>
			<path class="st6" d="M186.4,195.19c-2.55,2.49-1.96,7,1.05,9.82c3.03,2.84,7.2,3.11,9.55,0.79c2.36-2.32,2.07-6.5-0.75-9.52
				C193.41,193.27,188.91,192.68,186.4,195.19"/>
			<path class="st6" d="M255.86,195.18c-2.49-2.54-6.99-1.94-9.81,1.06c-2.85,3.02-3.12,7.2-0.8,9.56c2.33,2.34,6.5,2.05,9.52-0.78
				C257.77,202.2,258.37,197.7,255.86,195.18"/>
			<path class="st6" d="M255.87,264.65c2.54-2.5,1.94-6.99-1.06-9.83c-3.03-2.84-7.2-3.1-9.55-0.79c-2.35,2.33-2.05,6.51,0.77,9.52
				C248.85,266.56,253.36,267.15,255.87,264.65"/>
			<path class="st6" d="M186.41,264.66c2.49,2.53,7,1.94,9.82-1.07c2.84-3.03,3.11-7.19,0.79-9.55c-2.32-2.34-6.5-2.06-9.52,0.77
				C184.48,257.64,183.88,262.14,186.41,264.66"/>
		</g>
		<g>
			<path class="st0" d="M251.11,157.49c-5.07-2.15-11.42,1.91-13.94,8.54c-2.54,6.66-0.64,13.29,4.08,15.3
				c4.73,1.97,10.76-1.4,13.66-7.88C257.81,166.99,256.2,159.62,251.11,157.49"/>
			<path class="st0" d="M293.53,199.91c-2.06-5.11-9.41-6.72-15.89-3.82c-6.49,2.91-9.85,8.94-7.93,13.71
				c1.93,4.73,8.59,6.62,15.23,4.08C291.55,211.36,295.64,205,293.53,199.91"/>
			<path class="st0" d="M293.55,259.9c2.16-5.09-1.91-11.41-8.54-13.94c-6.66-2.54-13.3-0.64-15.3,4.08
				c-1.98,4.73,1.4,10.76,7.87,13.66C284.05,266.59,291.43,264.98,293.55,259.9"/>
			<path class="st0" d="M251.15,302.33c5.11-2.08,6.71-9.43,3.82-15.89c-2.91-6.51-8.95-9.85-13.71-7.94
				c-4.74,1.94-6.61,8.6-4.09,15.24C239.7,300.34,246.05,304.42,251.15,302.33"/>
			<path class="st0" d="M191.15,302.34c5.09,2.14,11.41-1.91,13.93-8.55c2.57-6.66,0.65-13.29-4.08-15.3
				c-4.72-1.98-10.75,1.4-13.65,7.87C184.47,292.85,186.07,300.22,191.15,302.34"/>
			<path class="st0" d="M148.72,259.93c2.08,5.12,9.43,6.72,15.9,3.82c6.5-2.92,9.85-8.94,7.93-13.71
				c-1.95-4.74-8.6-6.63-15.23-4.09C150.71,248.49,146.63,254.83,148.72,259.93"/>
			<path class="st0" d="M148.71,199.94c-2.14,5.08,1.91,11.42,8.54,13.93c6.66,2.55,13.28,0.64,15.3-4.07
				c1.98-4.73-1.4-10.77-7.89-13.67C158.21,193.25,150.83,194.85,148.71,199.94"/>
			<path class="st0" d="M191.11,157.51c-5.11,2.07-6.72,9.42-3.82,15.89c2.91,6.51,8.95,9.85,13.7,7.94
				c4.75-1.94,6.63-8.6,4.09-15.22C202.57,159.5,196.21,155.41,191.11,157.51"/>
			<path class="st0" d="M270.79,109.94c-4.12-1.75-9.58,2.33-11.99,8.6c-2.41,6.31-1.15,12.38,2.7,14.02
				c3.84,1.61,9.02-1.82,11.72-7.97C275.92,118.45,274.92,111.67,270.79,109.94"/>
			<path class="st0" d="M341.09,180.2c-1.69-4.16-8.44-5.13-14.57-2.39c-6.18,2.75-9.57,7.94-8.01,11.81
				c1.55,3.85,7.65,5.09,13.92,2.66C338.7,189.84,342.77,184.34,341.09,180.2"/>
			<path class="st0" d="M341.11,279.57c1.74-4.12-2.33-9.58-8.6-11.99c-6.33-2.42-12.4-1.14-14.03,2.69
				c-1.61,3.84,1.81,9.02,7.97,11.74C332.6,284.71,339.38,283.71,341.11,279.57"/>
			<path class="st0" d="M270.85,349.87c4.15-1.67,5.13-8.42,2.39-14.57c-2.75-6.16-7.94-9.55-11.82-8.01
				c-3.86,1.58-5.08,7.67-2.66,13.93C261.2,347.48,266.71,351.56,270.85,349.87"/>
			<path class="st0" d="M171.47,349.89c4.14,1.76,9.58-2.32,11.98-8.6c2.43-6.32,1.16-12.38-2.68-14.03
				c-3.84-1.6-9.01,1.83-11.73,7.97C166.35,341.39,167.34,348.17,171.47,349.89"/>
			<path class="st0" d="M101.19,279.63c1.67,4.16,8.41,5.14,14.56,2.4c6.16-2.74,9.55-7.94,7.99-11.82
				c-1.56-3.84-7.65-5.08-13.92-2.65C103.56,270,99.49,275.49,101.19,279.63"/>
			<path class="st0" d="M101.16,180.26c-1.75,4.13,2.33,9.58,8.59,11.99c6.31,2.42,12.38,1.15,14.02-2.69
				c1.62-3.84-1.81-9.02-7.97-11.73C109.66,175.13,102.89,176.13,101.16,180.26"/>
			<path class="st0" d="M171.42,109.97c-4.17,1.68-5.14,8.41-2.4,14.56c2.76,6.17,7.94,9.55,11.81,8.01
				c3.86-1.57,5.1-7.66,2.65-13.93C181.06,112.35,175.57,108.27,171.42,109.97"/>
		</g>
	</g>
</g>
</svg>
