<?xml version="1.0" encoding="utf-8"?>
<!-- Generator: Adobe Illustrator 27.7.0, SVG Export Plug-In . SVG Version: 6.00 Build 0)  -->
<svg version="1.1" id="Landing_Page" xmlns="http://www.w3.org/2000/svg" xmlns:xlink="http://www.w3.org/1999/xlink" x="0px"
	 y="0px" viewBox="0 0 21 19" style="enable-background:new 0 0 21 19;" xml:space="preserve">
<style type="text/css">
	.st0{fill:#FFFFFF;}
</style>
<g>
	<g>
		<path class="st0" d="M10.5,1.73c-4.29,0-7.77,3.48-7.77,7.77s3.48,7.77,7.77,7.77s7.77-3.48,7.77-7.77S14.8,1.73,10.5,1.73z
			 M14.8,7.84c0,0.09,0.01,0.18,0.01,0.27c0,2.73-2.08,5.87-5.87,5.87c-1.17,0-2.25-0.34-3.16-0.93c0.16,0.02,0.33,0.03,0.49,0.03
			c0.97,0,1.86-0.33,2.56-0.88c-0.9-0.02-1.67-0.61-1.93-1.43c0.13,0.02,0.25,0.04,0.39,0.04c0.19,0,0.37-0.03,0.54-0.07
			C6.89,10.55,6.17,9.7,6.17,8.7c0-0.01,0-0.02,0-0.03c0.28,0.15,0.6,0.25,0.93,0.26c-0.55-0.37-0.92-1-0.92-1.72
			c0-0.38,0.1-0.73,0.28-1.04C7.48,7.43,9,8.24,10.71,8.34c-0.04-0.15-0.05-0.31-0.05-0.47c0-1.14,0.92-2.06,2.06-2.06
			c0.59,0,1.13,0.25,1.51,0.65c0.47-0.09,0.91-0.26,1.31-0.5c-0.15,0.48-0.48,0.89-0.91,1.14c0.42-0.05,0.82-0.16,1.19-0.32
			C15.55,7.18,15.2,7.55,14.8,7.84z"/>
	</g>
</g>
</svg>
