<?xml version="1.0" encoding="utf-8"?>
<!-- Generator: Adobe Illustrator 27.7.0, SVG Export Plug-In . SVG Version: 6.00 Build 0)  -->
<svg version="1.1" id="Landing_Page" xmlns="http://www.w3.org/2000/svg" xmlns:xlink="http://www.w3.org/1999/xlink" x="0px"
	 y="0px" viewBox="0 0 21 19" style="enable-background:new 0 0 21 19;" xml:space="preserve">
<style type="text/css">
	.st0{fill:#FFFFFF;}
</style>
<g>
	<g>
		<path class="st0" d="M10.5,1.74c-4.29,0-7.77,3.48-7.77,7.77s3.48,7.77,7.77,7.77s7.77-3.48,7.77-7.77S14.8,1.74,10.5,1.74z
			 M15.47,12c-0.12,0.45-0.47,0.8-0.92,0.92c-0.81,0.22-4.05,0.22-4.05,0.22s-3.24,0-4.05-0.22C6,12.8,5.65,12.45,5.53,12
			c-0.22-0.81-0.22-2.49-0.22-2.49s0-1.69,0.22-2.49C5.65,6.58,6,6.22,6.45,6.11c0.81-0.22,4.05-0.22,4.05-0.22s3.24,0,4.05,0.22
			c0.45,0.12,0.8,0.47,0.92,0.92c0.22,0.81,0.22,2.49,0.22,2.49S15.68,11.19,15.47,12z"/>
		<polygon class="st0" points="9.47,11.06 12.16,9.51 9.47,7.95 		"/>
	</g>
</g>
</svg>
